<?xml version="1.0" encoding="utf-8"?>
<!-- Generator: Adobe Illustrator 25.4.8, SVG Export Plug-In . SVG Version: 6.00 Build 0)  -->
<svg version="1.1" id="Layer_1" xmlns="http://www.w3.org/2000/svg" xmlns:xlink="http://www.w3.org/1999/xlink" x="0px" y="0px"
	 viewBox="0 0 216.2 227.9" style="enable-background:new 0 0 216.2 227.9;" xml:space="preserve">
<style type="text/css">
	.st0{fill:#23CF7C;}
	.st1{fill:#FFFFFF;stroke:#E2E3E4;stroke-width:0.5;stroke-miterlimit:10;}
	.st2{fill:#F5F5F5;}
	.st3{enable-background:new    ;}
	.st4{opacity:0.3;fill:none;stroke:#23CF7C;stroke-width:0.9847;stroke-miterlimit:10;enable-background:new    ;}
	.st5{fill:none;stroke:#E0E0E0;stroke-width:0.2462;stroke-miterlimit:10;}
	.st6{fill:#FF8700;}
	.st7{fill:none;stroke:#0280FF;stroke-width:0.5;stroke-miterlimit:10;}
	.st8{fill:none;}
	.st9{fill:#0280FF;}
	.st10{fill-rule:evenodd;clip-rule:evenodd;fill:#23CF7C;}
	.st11{fill:#FFFFFF;}
	.st12{fill:#808080;}
	.st13{fill:#414042;}
	.st14{fill:url(#SVGID_1_);}
	.st15{fill:url(#SVGID_00000159470696495344885290000006112368157157412264_);}
	.st16{fill:url(#SVGID_00000132085864510875633550000000143973915839713203_);}
	.st17{fill:url(#SVGID_00000119817241732151855940000006146509459116670093_);}
	.st18{fill:url(#SVGID_00000155139614833751864730000015148396616549057190_);}
	.st19{opacity:0.5;fill:#35353A;enable-background:new    ;}
	.st20{fill:#35353A;}
</style>
<g>
	<g>
		<path class="st0" d="M1.7,216.3v-59.9c0-5.4,4.4-9.9,9.9-9.9h193.2c5.4,0,9.9,4.4,9.9,9.9v59.9c0,5.4-4.4,9.9-9.9,9.9H11.5     C6.1,226.2,1.7,221.8,1.7,216.3z"/>
	</g>
</g>
<g>
	<path class="st1" d="M203.7,178H12.5c-6,0-10.8-4.8-10.8-10.8V37.4c0-6,4.8-10.8,10.8-10.8h191.2c6,0,10.8,4.8,10.8,10.8v129.7    C214.5,173.1,209.7,178,203.7,178z"/>
</g>
<g>
	<rect x="47" y="35.3" class="st2" width="150.1" height="9"/>
	<circle class="st2" cx="28.7" cy="39.8" r="2.7"/>
	<circle class="st2" cx="20" cy="39.8" r="2.7"/>
</g>
<g class="st3">
	<path class="st0" d="M112.3,17.8h1.1v1.3c0,0.1,0,0.2-0.1,0.3s-0.2,0.1-0.3,0.1h-0.7v2.6h-2.1v-2.6h-4.5c-0.1,0-0.3,0-0.4-0.1    s-0.2-0.2-0.2-0.3l-0.2-1.2L110,11h2.3V17.8z M110.3,14.9c0-0.2,0-0.4,0-0.6c0-0.2,0-0.4,0.1-0.6l-2.9,4.1h2.9    C110.3,17.8,110.3,14.9,110.3,14.9z"/>
</g>
<path class="st4" d="M87.7,24.2c0-12.2,9.8-22,22-22s22,9.8,22,22"/>
<path class="st5" d="M183.9,102.3H33.6c-2.6,0-4.8-2.1-4.8-4.8V84.7c0-2.6,2.1-4.8,4.8-4.8h150.3c2.6,0,4.8,2.1,4.8,4.8v12.8   C188.7,100.1,186.5,102.3,183.9,102.3z"/>
<path class="st5" d="M183.9,128.9H33.6c-2.6,0-4.8-2.1-4.8-4.8v-12.8c0-2.6,2.1-4.8,4.8-4.8h150.3c2.6,0,4.8,2.1,4.8,4.8v12.8   C188.7,126.7,186.5,128.9,183.9,128.9z"/>
<path class="st5" d="M183.9,155.5H33.6c-2.6,0-4.8-2.1-4.8-4.8v-12.8c0-2.6,2.1-4.8,4.8-4.8h150.3c2.6,0,4.8,2.1,4.8,4.8v12.8   C188.7,153.3,186.5,155.5,183.9,155.5z"/>
<g>
	<path class="st6" d="M174.5,112.7c0-0.4,0.3-0.8,0.8-0.8h1.3v-0.5h-1.3c-0.7,0-1.3,0.6-1.3,1.3h-0.3l-5.9,3v1.5h0.5v1h0.5v4.2h-0.5    v1h-0.5v1.6h13v-1.6h-0.5v-1h-0.5v-4.2h0.5v-1h0.5v-1.5l-5.9-3H174.5z M168.8,122.9h1.6v0.5h-1.6V122.9z M171.9,118.2v4.2h-0.5v1    h-0.5v-1h-0.5v-4.2h0.5v-1h0.5v1H171.9z M175,118.2v4.2h-0.5v1H174v-1h-0.5v-4.2h0.5v-1h0.5v1H175z M178.1,118.2v4.2h-0.5v1h-0.5    v-1h-0.5v-4.2h0.5v-1h0.5v1H178.1z M179.7,122.9v0.5h-1.6v-0.5H179.7z M178.6,122.4v-4.2h0.5v4.2H178.6z M176.6,117.7H175v-0.5h1.6    V117.7z M176,118.2v4.2h-0.5v-4.2H176z M176.6,122.9v0.5H175v-0.5H176.6z M173.4,117.7h-1.6v-0.5h1.6V117.7z M172.9,118.2v4.2h-0.5    v-4.2H172.9z M173.4,122.9v0.5h-1.6v-0.5H173.4z M170.3,117.7h-1.6v-0.5h1.6V117.7z M169.8,118.2v4.2h-0.5v-4.2H169.8z     M180.2,123.9v0.5h-12v-0.5H180.2z M179.7,117.7h-1.6v-0.5h1.6V117.7z M180.2,116.6h-2.6h-0.5h-2.6H174h-2.6h-0.5h-2.6V116l5.5-2.8    h0.2v1.8h0.5v-1.8h0.2l5.5,2.8L180.2,116.6L180.2,116.6z"/>
	<rect x="169.8" y="115.6" class="st6" width="8.8" height="0.5"/>
	<path class="st6" d="M181,108.8c-1.6,0-2.9,1.3-2.9,2.9s1.3,2.9,2.9,2.9c1.6,0,2.9-1.3,2.9-2.9S182.6,108.8,181,108.8z M181,114    c-1.3,0-2.3-1-2.3-2.3s1-2.3,2.3-2.3s2.3,1,2.3,2.3S182.3,114,181,114z"/>
	<path class="st6" d="M181,109.9c-1,0-1.8,0.8-1.8,1.8s0.8,1.8,1.8,1.8s1.8-0.8,1.8-1.8C182.8,110.7,182,109.9,181,109.9z     M181,113.2c-0.8,0-1.5-0.7-1.5-1.5s0.7-1.5,1.5-1.5s1.5,0.7,1.5,1.5S181.8,113.2,181,113.2z"/>
	<rect x="177.1" y="111.4" class="st6" width="0.5" height="0.5"/>
	<path class="st6" d="M182.3,119c0,0.4-0.3,0.8-0.8,0.8h-0.3v0.5h0.3c0.7,0,1.3-0.6,1.3-1.3v-4.2h-0.5V119z"/>
	<rect x="180.2" y="119.8" class="st6" width="0.5" height="0.5"/>
</g>
<g>
	<g>
		<g>
			<g>
				<path class="st7" d="M168.8,96.6c-0.4,0-0.8-0.2-1.1-0.4c-0.3-0.3-0.4-0.7-0.4-1.1v-7.6c0-0.4,0.2-0.8,0.4-1.1       c0.3-0.3,0.7-0.4,1.1-0.4H181c0.4,0,0.8,0.2,1.1,0.4c0.3,0.3,0.4,0.7,0.4,1.1v7.6c0,0.4-0.2,0.8-0.4,1.1       c-0.3,0.3-0.7,0.4-1.1,0.4H168.8L168.8,96.6z"/>
			</g>
		</g>
	</g>
	<g>
		<g>
			<path class="st8" d="M168.8,96.6c-0.4,0-0.8-0.2-1.1-0.4c-0.3-0.3-0.4-0.7-0.4-1.1v-7.6c0-0.4,0.2-0.8,0.4-1.1      c0.3-0.3,0.7-0.4,1.1-0.4H181c0.4,0,0.8,0.2,1.1,0.4c0.3,0.3,0.4,0.7,0.4,1.1v7.6c0,0.4-0.2,0.8-0.4,1.1      c-0.3,0.3-0.7,0.4-1.1,0.4H168.8L168.8,96.6z"/>
		</g>
	</g>
	<g>
		<g>
			<g>
				<path class="st9" d="M169.2,90.6c-0.2,0-0.4-0.1-0.6-0.3c-0.2-0.2-0.3-0.4-0.3-0.6v-0.3c0-0.2,0.1-0.4,0.2-0.6       c0.2-0.2,0.4-0.3,0.6-0.3h11.4l0,0c0.2,0,0.4,0.1,0.6,0.3s0.3,0.4,0.3,0.6v0.3c0,0.2-0.1,0.4-0.2,0.6c-0.2,0.2-0.4,0.3-0.6,0.3       H169.2L169.2,90.6z M180.6,89L180.6,89h-11.4c-0.1,0-0.2,0-0.3,0.1s-0.1,0.2-0.1,0.3v0.3c0,0.1,0,0.2,0.1,0.3       c0.1,0.1,0.2,0.1,0.3,0.1l0,0h11.4c0.1,0,0.2,0,0.3-0.1s0.1-0.2,0.1-0.3v-0.3c0-0.1,0-0.2-0.1-0.3C180.8,89,180.7,89,180.6,89z"/>
			</g>
		</g>
	</g>
	<g>
		<g>
			<path class="st9" d="M169.6,94.1c-0.2,0-0.3-0.1-0.5-0.2c-0.1-0.1-0.2-0.3-0.2-0.5v-1.1c0-0.4,0.3-0.7,0.7-0.7h1.1      c0.4,0,0.7,0.3,0.7,0.7v1.1c0,0.4-0.3,0.7-0.7,0.7H169.6L169.6,94.1z M170.7,92.2h-1.1c-0.1,0-0.2,0.1-0.2,0.2v1.1      c0,0.1,0,0.1,0.1,0.2s0.1,0.1,0.2,0.1l0,0h1.1c0.1,0,0.2-0.1,0.2-0.2v-1.1C170.9,92.3,170.8,92.2,170.7,92.2z"/>
		</g>
	</g>
	<g>
		<g>
			<path class="st9" d="M180.3,95.2L180.3,95.2h-6c-0.2,0-0.3-0.1-0.3-0.3c0-0.2,0.1-0.3,0.3-0.3l0,0h6c0.2,0,0.3,0.1,0.3,0.3      C180.6,95,180.4,95.2,180.3,95.2z"/>
		</g>
	</g>
	<g>
		<g>
			<path class="st9" d="M173.1,95.2L173.1,95.2h-1.2c-0.2,0-0.3-0.1-0.3-0.3c0-0.2,0.1-0.3,0.3-0.3l0,0h1.2c0.2,0,0.3,0.1,0.3,0.3      C173.4,95,173.3,95.2,173.1,95.2z"/>
		</g>
	</g>
	<g>
		<path class="st9" d="M176.9,94L176.9,94h-1.2c-0.2,0-0.3-0.1-0.3-0.3c0-0.2,0.1-0.3,0.3-0.3l0,0h1.2c0.2,0,0.3,0.1,0.3,0.3     S177.1,94,176.9,94z"/>
	</g>
	<g>
		<path class="st9" d="M180.3,94h-2c-0.2,0-0.3-0.1-0.3-0.3c0-0.2,0.1-0.3,0.3-0.3h2c0.2,0,0.3,0.1,0.3,0.3S180.4,94,180.3,94z"/>
	</g>
</g>
<g>
	<g id="Path_00000127735081343945191090000002759500474631638197_">
		<g>
			<path class="st10" d="M179.7,147.9c-0.2,0-0.3,0-0.3,0.2v0.8h-2.3v-3.3h2.2v1.1H178c-0.2,0-0.2,0.2-0.2,0.3s0,0.2,0.2,0.3h1.7      c0.1,0,0.2-0.2,0.3-0.3v-1.9c0-0.1-0.2-0.3-0.3-0.3h-3c-0.2,0-0.3,0.2-0.3,0.3v4c0,0.1,0.2,0.3,0.3,0.3h3.1      c0.1,0,0.2-0.2,0.3-0.3v-1.2C180.1,147.9,179.8,147.9,179.7,147.9z"/>
		</g>
	</g>
	<g id="Path_00000132075676656694358130000018006432558877149824_">
		<g>
			<path class="st10" d="M175.6,147h-1.3c-0.3,0-0.3,0.2-0.3,0.3c0,0.2,0.1,0.3,0.3,0.3h1.4c0.2,0,0.3-0.2,0.3-0.3      C175.9,147.2,175.8,147.1,175.6,147z"/>
		</g>
	</g>
	<g id="Path_00000156548032133194326350000011273000551279070095_">
		<g>
			<path class="st10" d="M174.5,144.7c-0.2,0-0.3,0.1-0.3,0.3v1.4c0,0.2,0.2,0.3,0.3,0.3s0.3-0.1,0.3-0.3V145      C174.8,144.8,174.7,144.7,174.5,144.7z"/>
		</g>
	</g>
	<g id="Path_00000019678281425209937120000009016873613909487795_">
		<g>
			<path class="st10" d="M176.6,140c-0.2,0-0.4,0.2-0.3,0.4v1.1c0,0.2,0.1,0.4,0.3,0.4c0.1,0,0.2,0,0.3-0.3v-1.4      C177,140.1,176.8,140,176.6,140z"/>
		</g>
	</g>
	<g id="Path_00000105409256893247274510000018422624403664050334_">
		<g>
			<path class="st10" d="M175.4,140.1c-0.2,0-0.4,0.2-0.3,0.4v2.9h-1.3c-0.2,0-0.3,0.2-0.3,0.3s0.1,0.3,0.3,0.3h1.8      c0.1,0,0.2-0.2,0.3-0.3v-3.5C175.7,140.1,175.5,140.1,175.4,140.1z"/>
		</g>
	</g>
	<g id="Path_00000075849350410702438360000013162722467906293147_">
		<g>
			<path class="st10" d="M173.5,145.6H170c-0.2,0-0.3,0.2-0.3,0.3s0.1,0.3,0.3,0.4h3.5c0.2,0,0.3-0.2,0.3-0.3      C173.8,145.8,173.7,145.6,173.5,145.6z"/>
		</g>
	</g>
	<g id="Path_00000172421587836208565970000002004059228474653084_">
		<g>
			<path class="st10" d="M179.9,143.2h-3.3c-0.2,0-0.3,0.2-0.3,0.3s0.2,0.3,0.3,0.3h3.3c0.2,0,0.3-0.2,0.3-0.3      S180.1,143.2,179.9,143.2z"/>
		</g>
	</g>
	<g id="Path_00000089533305434038596960000016193008337854910888_">
		<g>
			<path class="st10" d="M172.5,143.3H170c-0.2,0-0.3,0.2-0.3,0.3s0,0.2,0.2,0.3h2.2v0.8c0,0.2,0.1,0.4,0.3,0.4c0.1,0,0.2,0,0.3-0.3      v-1.3C172.8,143.4,172.5,143.3,172.5,143.3z"/>
		</g>
	</g>
	<g id="Path_00000060007742829743242160000018027751417913192610_">
		<g>
			<path class="st10" d="M175.5,149h-2.1v-1.7c0-0.2-0.2-0.3-0.3-0.3c-0.2,0-0.3,0.1-0.3,0.2v2.2c0,0.1,0.3,0.2,0.3,0.3h2.3      c0.2,0,0.3-0.2,0.3-0.3C175.8,149.2,175.7,149.1,175.5,149z"/>
		</g>
	</g>
	<g id="Path_00000032611331108286902950000001507450894776565142_">
		<g>
			<path class="st10" d="M173.9,142.1h-0.4v-1.7c0-0.2-0.2-0.3-0.4-0.3s-0.2,0-0.3,0.2v2.2c0,0.3,0.5,0.3,0.7,0.3      c0.1,0,0.7,0.1,0.7-0.3C174.2,142.3,174.1,142.1,173.9,142.1z"/>
		</g>
	</g>
	<g id="Composite_Path_00000149372262167180673890000015392119430660414866_">
		<g>
			<path class="st10" d="M172,147.1h-2c-0.1,0-0.3,0.2-0.3,0.3v2c0,0.1,0.2,0.2,0.3,0.3h2c0.1,0,0.3-0.2,0.3-0.3v-2      C172.3,147.2,172,147.1,172,147.1z M171.6,149h-1.2v-1.2h1.2V149z"/>
		</g>
	</g>
	<g id="Composite_Path_00000095318021352191924620000000852102617652345765_">
		<g>
			<path class="st10" d="M179.9,140.1H178c-0.1,0-0.3,0.2-0.3,0.3v2c0,0.1,0.2,0.2,0.3,0.3h1.9c0.1,0,0.3-0.2,0.3-0.3v-2      C180.2,140.3,179.9,140.1,179.9,140.1z M179.5,142h-1.2v-1.2h1.2V142z"/>
		</g>
	</g>
	<g id="Composite_Path_00000111158440237373462110000002868406605883356323_">
		<g>
			<path class="st10" d="M171.9,140.1H170c-0.1,0-0.3,0.2-0.3,0.3v2c0,0.1,0.2,0.2,0.3,0.3h1.9c0.1,0,0.3-0.2,0.3-0.3v-2      C172.3,140.3,172,140.1,171.9,140.1z M171.6,142h-1.2v-1.2h1.2V142z"/>
		</g>
	</g>
	<g id="Path_00000046306600728809704190000005382498880656177593_">
		<g>
			<path class="st10" d="M170.6,150.9h-1.2c-0.2,0-0.6-0.4-0.6-0.6v-1.2c0-0.2-0.2-0.3-0.3-0.3s-0.3,0.1-0.3,0.3v1.3      c0,0.5,0.7,1.2,1.2,1.2h1.3c0.2,0,0.3-0.2,0.3-0.3C170.9,151.1,170.8,150.9,170.6,150.9z"/>
		</g>
	</g>
	<g id="Path_00000153679670961968363320000007559320850757950080_">
		<g>
			<path class="st10" d="M181.4,148.8c-0.1,0-0.3,0.1-0.3,0.3v1.3c-0.1,0.2-0.4,0.5-0.6,0.6h-1.2c-0.2,0-0.3,0.2-0.3,0.3      s0.1,0.3,0.3,0.3h1.3c0.4,0,1.2-0.6,1.2-1.2V149C181.7,148.8,181.5,148.8,181.4,148.8z"/>
		</g>
	</g>
	<g id="Path_00000123408872769949801090000012101231556140483491_">
		<g>
			<path class="st10" d="M180.4,138h-1.2c-0.2,0-0.3,0.2-0.3,0.3s0.1,0.3,0.3,0.3h1.2c0.3,0,0.6,0.5,0.6,0.6v1.3      c0,0.2,0.2,0.3,0.3,0.3s0.3-0.1,0.3-0.3v-1.3C181.7,138.6,180.9,137.9,180.4,138z"/>
		</g>
	</g>
	<g id="Path_00000101795250134528739950000015058628305151412877_">
		<g>
			<path class="st10" d="M170.5,138h-1.2c-0.5,0-1.3,0.7-1.3,1.2v1.3c0,0.2,0.2,0.3,0.3,0.3s0.3-0.1,0.3-0.3v-1.2      c0-0.2,0.5-0.6,0.6-0.6h1.2c0.2,0,0.3-0.2,0.3-0.3C170.9,138.1,170.8,138,170.5,138z"/>
		</g>
	</g>
</g>
<g>
	<g class="st3">
		<path class="st11" d="M50.3,198.9h-1c-0.1,0-0.2,0-0.3-0.1c-0.1-0.1-0.1-0.1-0.2-0.2l-0.5-1.4h-2.8l-0.5,1.4     c0,0.1-0.1,0.1-0.1,0.2s-0.2,0.1-0.3,0.1h-1l2.6-6.7h1.3L50.3,198.9z M46,196.4h2.1l-0.8-2.2c0-0.1-0.1-0.2-0.1-0.4     s-0.1-0.3-0.1-0.4c0,0.2-0.1,0.3-0.1,0.4c0,0.1-0.1,0.3-0.1,0.4L46,196.4z"/>
		<path class="st11" d="M54.3,195.1c0,0-0.1,0.1-0.1,0.1c0,0-0.1,0-0.1,0c-0.1,0-0.1,0-0.2-0.1c-0.1,0-0.1-0.1-0.2-0.1     c-0.1,0-0.2-0.1-0.3-0.1c-0.1,0-0.2-0.1-0.4-0.1c-0.2,0-0.4,0-0.5,0.1c-0.2,0.1-0.3,0.2-0.4,0.3c-0.1,0.1-0.2,0.3-0.2,0.5     c0,0.2-0.1,0.4-0.1,0.7c0,0.3,0,0.5,0.1,0.7s0.1,0.4,0.2,0.5s0.2,0.2,0.4,0.3c0.1,0.1,0.3,0.1,0.5,0.1s0.3,0,0.4-0.1     c0.1,0,0.2-0.1,0.3-0.1c0.1-0.1,0.1-0.1,0.2-0.1c0.1,0,0.1-0.1,0.2-0.1c0.1,0,0.2,0,0.2,0.1l0.3,0.4c-0.1,0.1-0.3,0.3-0.4,0.4     s-0.3,0.2-0.5,0.2c-0.2,0.1-0.3,0.1-0.5,0.1c-0.2,0-0.3,0-0.5,0c-0.3,0-0.6-0.1-0.8-0.2c-0.3-0.1-0.5-0.3-0.7-0.5     c-0.2-0.2-0.3-0.5-0.5-0.8s-0.2-0.7-0.2-1c0-0.3,0.1-0.7,0.2-1s0.2-0.6,0.4-0.8s0.4-0.4,0.7-0.5c0.3-0.1,0.6-0.2,1-0.2     c0.4,0,0.7,0.1,0.9,0.2c0.3,0.1,0.5,0.3,0.7,0.5L54.3,195.1z"/>
		<path class="st11" d="M58.7,195.1c0,0-0.1,0.1-0.1,0.1c0,0-0.1,0-0.1,0c-0.1,0-0.1,0-0.2-0.1c-0.1,0-0.1-0.1-0.2-0.1     c-0.1,0-0.2-0.1-0.3-0.1c-0.1,0-0.2-0.1-0.4-0.1c-0.2,0-0.4,0-0.5,0.1c-0.2,0.1-0.3,0.2-0.4,0.3c-0.1,0.1-0.2,0.3-0.2,0.5     c0,0.2-0.1,0.4-0.1,0.7c0,0.3,0,0.5,0.1,0.7s0.1,0.4,0.2,0.5s0.2,0.2,0.4,0.3c0.1,0.1,0.3,0.1,0.5,0.1s0.3,0,0.4-0.1     c0.1,0,0.2-0.1,0.3-0.1c0.1-0.1,0.1-0.1,0.2-0.1c0.1,0,0.1-0.1,0.2-0.1c0.1,0,0.2,0,0.2,0.1l0.3,0.4c-0.1,0.1-0.3,0.3-0.4,0.4     s-0.3,0.2-0.5,0.2c-0.2,0.1-0.3,0.1-0.5,0.1c-0.2,0-0.3,0-0.5,0c-0.3,0-0.6-0.1-0.8-0.2c-0.3-0.1-0.5-0.3-0.7-0.5     c-0.2-0.2-0.3-0.5-0.5-0.8s-0.2-0.7-0.2-1c0-0.3,0.1-0.7,0.2-1s0.2-0.6,0.4-0.8s0.4-0.4,0.7-0.5c0.3-0.1,0.6-0.2,1-0.2     c0.4,0,0.7,0.1,0.9,0.2c0.3,0.1,0.5,0.3,0.7,0.5L58.7,195.1z"/>
		<path class="st11" d="M61.8,194.1c0.3,0,0.6,0,0.8,0.1c0.3,0.1,0.5,0.2,0.7,0.4c0.2,0.2,0.3,0.4,0.4,0.7s0.2,0.6,0.2,0.9     c0,0.1,0,0.2,0,0.2c0,0.1,0,0.1,0,0.1s0,0.1-0.1,0.1c0,0-0.1,0-0.1,0h-2.9c0,0.5,0.2,0.8,0.4,1.1c0.2,0.2,0.5,0.3,0.9,0.3     c0.2,0,0.3,0,0.5-0.1c0.1,0,0.3-0.1,0.4-0.1c0.1-0.1,0.2-0.1,0.3-0.1s0.1-0.1,0.2-0.1c0,0,0.1,0,0.1,0c0,0,0.1,0,0.1,0.1l0.3,0.4     c-0.1,0.1-0.3,0.3-0.4,0.4c-0.2,0.1-0.3,0.2-0.5,0.2c-0.2,0.1-0.3,0.1-0.5,0.1c-0.2,0-0.4,0-0.5,0c-0.3,0-0.6-0.1-0.9-0.2     c-0.3-0.1-0.5-0.3-0.7-0.5c-0.2-0.2-0.4-0.5-0.5-0.8s-0.2-0.7-0.2-1.1c0-0.3,0.1-0.6,0.2-0.9c0.1-0.3,0.3-0.5,0.5-0.7     c0.2-0.2,0.4-0.4,0.7-0.5S61.4,194.1,61.8,194.1z M61.8,194.9c-0.3,0-0.6,0.1-0.8,0.3c-0.2,0.2-0.3,0.5-0.4,0.8h2.2     c0-0.1,0-0.3-0.1-0.4c0-0.1-0.1-0.2-0.2-0.3s-0.2-0.2-0.3-0.2S62,194.9,61.8,194.9z"/>
		<path class="st11" d="M64.8,200.5v-6.3h0.7c0.1,0,0.1,0,0.2,0.1c0.1,0,0.1,0.1,0.1,0.2l0.1,0.4c0.2-0.2,0.4-0.4,0.7-0.5     c0.2-0.1,0.5-0.2,0.9-0.2c0.3,0,0.5,0.1,0.7,0.2c0.2,0.1,0.4,0.3,0.6,0.5s0.3,0.5,0.4,0.8c0.1,0.3,0.1,0.6,0.1,1     c0,0.4,0,0.7-0.1,1c-0.1,0.3-0.2,0.6-0.4,0.8c-0.2,0.2-0.4,0.4-0.6,0.5c-0.3,0.1-0.5,0.2-0.8,0.2c-0.3,0-0.5,0-0.7-0.1     c-0.2-0.1-0.4-0.2-0.5-0.3v2H64.8z M67,195c-0.2,0-0.4,0.1-0.6,0.2c-0.2,0.1-0.3,0.2-0.5,0.4v2.1c0.1,0.2,0.3,0.3,0.4,0.3     c0.2,0.1,0.3,0.1,0.5,0.1c0.2,0,0.3,0,0.5-0.1c0.1-0.1,0.3-0.2,0.4-0.3c0.1-0.1,0.2-0.3,0.2-0.5c0.1-0.2,0.1-0.4,0.1-0.7     c0-0.3,0-0.5-0.1-0.7s-0.1-0.4-0.2-0.5c-0.1-0.1-0.2-0.2-0.3-0.3C67.3,195,67.1,195,67,195z"/>
		<path class="st11" d="M71.6,199c-0.4,0-0.7-0.1-1-0.4s-0.3-0.6-0.3-1V195h-0.5c-0.1,0-0.1,0-0.2-0.1c0,0-0.1-0.1-0.1-0.2v-0.5     l0.8-0.1l0.2-1.3c0-0.1,0-0.1,0.1-0.1s0.1-0.1,0.2-0.1h0.6v1.5h1.3v0.8h-1.3v2.6c0,0.1,0,0.3,0.1,0.3c0.1,0.1,0.2,0.1,0.3,0.1     c0.1,0,0.1,0,0.2,0c0,0,0.1,0,0.1-0.1s0.1,0,0.1-0.1c0,0,0.1,0,0.1,0c0,0,0.1,0,0.1,0c0,0,0,0,0.1,0.1l0.3,0.6     c-0.2,0.1-0.4,0.2-0.6,0.3C72,198.9,71.8,199,71.6,199z"/>
		<path class="st11" d="M75.4,200.5v-6.3h0.7c0.1,0,0.1,0,0.2,0.1c0.1,0,0.1,0.1,0.1,0.2l0.1,0.4c0.2-0.2,0.4-0.4,0.7-0.5     c0.2-0.1,0.5-0.2,0.9-0.2c0.3,0,0.5,0.1,0.7,0.2c0.2,0.1,0.4,0.3,0.6,0.5s0.3,0.5,0.4,0.8c0.1,0.3,0.1,0.6,0.1,1     c0,0.4,0,0.7-0.1,1c-0.1,0.3-0.2,0.6-0.4,0.8c-0.2,0.2-0.4,0.4-0.6,0.5c-0.3,0.1-0.5,0.2-0.8,0.2c-0.3,0-0.5,0-0.7-0.1     c-0.2-0.1-0.4-0.2-0.5-0.3v2H75.4z M77.6,195c-0.2,0-0.4,0.1-0.6,0.2c-0.2,0.1-0.3,0.2-0.5,0.4v2.1c0.1,0.2,0.3,0.3,0.4,0.3     c0.2,0.1,0.3,0.1,0.5,0.1c0.2,0,0.3,0,0.5-0.1c0.1-0.1,0.3-0.2,0.4-0.3c0.1-0.1,0.2-0.3,0.2-0.5c0.1-0.2,0.1-0.4,0.1-0.7     c0-0.3,0-0.5-0.1-0.7s-0.1-0.4-0.2-0.5c-0.1-0.1-0.2-0.2-0.3-0.3C77.9,195,77.8,195,77.6,195z"/>
		<path class="st11" d="M84.4,198.9h-0.5c-0.1,0-0.2,0-0.3,0s-0.1-0.1-0.1-0.2l-0.1-0.3c-0.1,0.1-0.2,0.2-0.4,0.3s-0.2,0.2-0.4,0.2     c-0.1,0.1-0.3,0.1-0.4,0.1c-0.1,0-0.3,0-0.5,0c-0.2,0-0.4,0-0.6-0.1c-0.2-0.1-0.3-0.1-0.4-0.2c-0.1-0.1-0.2-0.2-0.3-0.4     c-0.1-0.2-0.1-0.3-0.1-0.6c0-0.2,0-0.4,0.1-0.5s0.3-0.3,0.5-0.5c0.2-0.1,0.5-0.3,0.9-0.4c0.4-0.1,0.8-0.1,1.4-0.1v-0.3     c0-0.3-0.1-0.6-0.2-0.7s-0.3-0.2-0.6-0.2c-0.2,0-0.3,0-0.5,0.1c-0.1,0-0.2,0.1-0.3,0.1c-0.1,0.1-0.2,0.1-0.3,0.1     c-0.1,0-0.2,0.1-0.3,0.1c-0.1,0-0.1,0-0.2-0.1s-0.1-0.1-0.1-0.1l-0.2-0.4c0.5-0.5,1.2-0.8,2-0.8c0.3,0,0.5,0,0.7,0.1     c0.2,0.1,0.4,0.2,0.6,0.4c0.2,0.2,0.3,0.4,0.3,0.6c0.1,0.2,0.1,0.5,0.1,0.7V198.9z M82.2,198.2c0.1,0,0.2,0,0.3,0s0.2-0.1,0.3-0.1     c0.1,0,0.2-0.1,0.3-0.2c0.1-0.1,0.2-0.1,0.2-0.2v-0.8c-0.3,0-0.6,0-0.8,0.1c-0.2,0-0.4,0.1-0.5,0.2s-0.2,0.1-0.3,0.2     c-0.1,0.1-0.1,0.2-0.1,0.3c0,0.2,0.1,0.3,0.2,0.4C81.8,198.1,82,198.2,82.2,198.2z"/>
		<path class="st11" d="M87,200.2c0,0.1-0.1,0.1-0.1,0.2c-0.1,0-0.1,0.1-0.2,0.1h-0.9l0.9-1.9l-1.9-4.4h1c0.1,0,0.2,0,0.2,0.1     c0,0,0.1,0.1,0.1,0.1l1,2.5c0,0.1,0.1,0.2,0.1,0.3c0,0.1,0,0.2,0.1,0.3c0-0.1,0.1-0.2,0.1-0.3s0.1-0.2,0.1-0.3l1-2.5     c0-0.1,0.1-0.1,0.1-0.2c0.1,0,0.1-0.1,0.2-0.1h0.9L87,200.2z"/>
		<path class="st11" d="M90.3,198.9v-4.8H91c0.1,0,0.2,0.1,0.3,0.2l0.1,0.4c0.1-0.1,0.2-0.2,0.3-0.3c0.1-0.1,0.2-0.1,0.3-0.2     c0.1-0.1,0.2-0.1,0.3-0.1c0.1,0,0.2,0,0.4,0c0.3,0,0.5,0.1,0.7,0.2c0.2,0.2,0.3,0.4,0.4,0.6c0.1-0.2,0.2-0.3,0.3-0.4     c0.1-0.1,0.2-0.2,0.4-0.3c0.1-0.1,0.3-0.1,0.4-0.2c0.1,0,0.3-0.1,0.5-0.1c0.3,0,0.5,0,0.7,0.1c0.2,0.1,0.4,0.2,0.5,0.4     c0.1,0.2,0.2,0.3,0.3,0.6c0.1,0.2,0.1,0.5,0.1,0.8v3h-1.1v-3c0-0.3-0.1-0.5-0.2-0.7c-0.1-0.2-0.3-0.2-0.6-0.2     c-0.1,0-0.2,0-0.3,0.1s-0.2,0.1-0.3,0.2c-0.1,0.1-0.1,0.2-0.2,0.3s-0.1,0.2-0.1,0.4v3h-1.2v-3c0-0.3-0.1-0.6-0.2-0.7     s-0.3-0.2-0.6-0.2c-0.2,0-0.3,0-0.5,0.1c-0.1,0.1-0.3,0.2-0.4,0.3v3.5H90.3z"/>
		<path class="st11" d="M100.1,194.1c0.3,0,0.6,0,0.8,0.1c0.3,0.1,0.5,0.2,0.7,0.4c0.2,0.2,0.3,0.4,0.4,0.7s0.2,0.6,0.2,0.9     c0,0.1,0,0.2,0,0.2c0,0.1,0,0.1,0,0.1s0,0.1-0.1,0.1c0,0-0.1,0-0.1,0h-2.9c0,0.5,0.2,0.8,0.4,1.1c0.2,0.2,0.5,0.3,0.9,0.3     c0.2,0,0.3,0,0.5-0.1c0.1,0,0.3-0.1,0.4-0.1c0.1-0.1,0.2-0.1,0.3-0.1s0.1-0.1,0.2-0.1c0,0,0.1,0,0.1,0c0,0,0.1,0,0.1,0.1l0.3,0.4     c-0.1,0.1-0.3,0.3-0.4,0.4c-0.2,0.1-0.3,0.2-0.5,0.2c-0.2,0.1-0.3,0.1-0.5,0.1c-0.2,0-0.4,0-0.5,0c-0.3,0-0.6-0.1-0.9-0.2     c-0.3-0.1-0.5-0.3-0.7-0.5c-0.2-0.2-0.4-0.5-0.5-0.8s-0.2-0.7-0.2-1.1c0-0.3,0.1-0.6,0.2-0.9c0.1-0.3,0.3-0.5,0.5-0.7     c0.2-0.2,0.4-0.4,0.7-0.5S99.7,194.1,100.1,194.1z M100.1,194.9c-0.3,0-0.6,0.1-0.8,0.3c-0.2,0.2-0.3,0.5-0.4,0.8h2.2     c0-0.1,0-0.3-0.1-0.4c0-0.1-0.1-0.2-0.2-0.3s-0.2-0.2-0.3-0.2S100.3,194.9,100.1,194.9z"/>
		<path class="st11" d="M103.1,198.9v-4.8h0.7c0.1,0,0.2,0.1,0.3,0.2l0.1,0.4c0.1-0.1,0.2-0.2,0.3-0.3s0.2-0.2,0.3-0.2     s0.2-0.1,0.4-0.1s0.3,0,0.4,0c0.3,0,0.5,0,0.7,0.1s0.4,0.2,0.5,0.4c0.1,0.2,0.2,0.4,0.3,0.6c0.1,0.2,0.1,0.5,0.1,0.7v3h-1.1v-3     c0-0.3-0.1-0.5-0.2-0.7s-0.3-0.2-0.6-0.2c-0.2,0-0.4,0-0.6,0.1s-0.3,0.2-0.5,0.4v3.4H103.1z"/>
		<path class="st11" d="M109.9,199c-0.4,0-0.7-0.1-1-0.4s-0.3-0.6-0.3-1V195h-0.5c-0.1,0-0.1,0-0.2-0.1c0,0-0.1-0.1-0.1-0.2v-0.5     l0.8-0.1l0.2-1.3c0-0.1,0-0.1,0.1-0.1s0.1-0.1,0.2-0.1h0.6v1.5h1.3v0.8h-1.3v2.6c0,0.1,0,0.3,0.1,0.3c0.1,0.1,0.2,0.1,0.3,0.1     c0.1,0,0.1,0,0.2,0c0,0,0.1,0,0.1-0.1c0,0,0.1,0,0.1-0.1c0,0,0.1,0,0.1,0c0,0,0.1,0,0.1,0c0,0,0,0,0.1,0.1l0.3,0.6     c-0.2,0.1-0.4,0.2-0.6,0.3S110.2,199,109.9,199z"/>
		<path class="st11" d="M114.8,195.1c0,0-0.1,0.1-0.1,0.1c0,0-0.1,0-0.1,0c-0.1,0-0.1,0-0.2,0c-0.1,0-0.1-0.1-0.2-0.1     c-0.1,0-0.2-0.1-0.3-0.1c-0.1,0-0.2,0-0.4,0c-0.2,0-0.4,0-0.5,0.1c-0.1,0.1-0.2,0.2-0.2,0.4c0,0.1,0,0.2,0.1,0.3     c0.1,0.1,0.2,0.1,0.3,0.2c0.1,0.1,0.2,0.1,0.4,0.1c0.1,0,0.3,0.1,0.4,0.1c0.1,0,0.3,0.1,0.4,0.2s0.3,0.1,0.4,0.2     c0.1,0.1,0.2,0.2,0.3,0.4c0.1,0.1,0.1,0.3,0.1,0.5c0,0.2,0,0.4-0.1,0.6c-0.1,0.2-0.2,0.4-0.4,0.5c-0.2,0.1-0.4,0.3-0.6,0.3     s-0.5,0.1-0.8,0.1c-0.2,0-0.3,0-0.5,0s-0.3-0.1-0.5-0.1c-0.1-0.1-0.3-0.1-0.4-0.2s-0.2-0.1-0.3-0.2l0.3-0.4c0-0.1,0.1-0.1,0.1-0.1     c0,0,0.1,0,0.2,0c0.1,0,0.1,0,0.2,0.1c0.1,0,0.1,0.1,0.2,0.1c0.1,0,0.2,0.1,0.3,0.1s0.3,0.1,0.4,0.1c0.1,0,0.3,0,0.4,0     c0.1,0,0.2-0.1,0.2-0.1s0.1-0.1,0.1-0.2c0-0.1,0-0.1,0-0.2c0-0.1,0-0.2-0.1-0.3c-0.1-0.1-0.2-0.1-0.3-0.2     c-0.1-0.1-0.2-0.1-0.4-0.1c-0.1,0-0.3-0.1-0.4-0.1c-0.1,0-0.3-0.1-0.4-0.2s-0.3-0.2-0.4-0.3c-0.1-0.1-0.2-0.2-0.3-0.4     s-0.1-0.3-0.1-0.5c0-0.2,0-0.4,0.1-0.6s0.2-0.3,0.3-0.5c0.2-0.1,0.3-0.2,0.6-0.3c0.2-0.1,0.5-0.1,0.8-0.1c0.3,0,0.6,0.1,0.9,0.2     s0.5,0.3,0.7,0.4L114.8,195.1z"/>
		<path class="st11" d="M119.4,199c-0.4,0-0.7-0.1-1-0.4s-0.3-0.6-0.3-1V195h-0.5c-0.1,0-0.1,0-0.2-0.1c0,0-0.1-0.1-0.1-0.2v-0.5     l0.8-0.1l0.2-1.3c0-0.1,0-0.1,0.1-0.1s0.1-0.1,0.2-0.1h0.6v1.5h1.3v0.8h-1.3v2.6c0,0.1,0,0.3,0.1,0.3c0.1,0.1,0.2,0.1,0.3,0.1     c0.1,0,0.1,0,0.2,0c0,0,0.1,0,0.1-0.1c0,0,0.1,0,0.1-0.1c0,0,0.1,0,0.1,0c0,0,0.1,0,0.1,0c0,0,0,0,0.1,0.1l0.3,0.6     c-0.2,0.1-0.4,0.2-0.6,0.3S119.6,199,119.4,199z"/>
		<path class="st11" d="M121.4,198.9V192h1.1v2.7c0.2-0.2,0.4-0.3,0.6-0.4s0.5-0.2,0.8-0.2c0.3,0,0.5,0,0.7,0.1s0.4,0.2,0.5,0.4     c0.1,0.2,0.2,0.4,0.3,0.6c0.1,0.2,0.1,0.5,0.1,0.7v3h-1.1v-3c0-0.3-0.1-0.5-0.2-0.7s-0.3-0.2-0.6-0.2c-0.2,0-0.4,0-0.6,0.1     c-0.2,0.1-0.3,0.2-0.5,0.4v3.4H121.4z"/>
		<path class="st11" d="M126.7,198.9v-4.8h0.7c0.1,0,0.2,0,0.2,0.1c0,0,0.1,0.1,0.1,0.2l0.1,0.6c0.2-0.3,0.4-0.5,0.6-0.7     c0.2-0.2,0.5-0.3,0.8-0.3c0.2,0,0.4,0.1,0.6,0.2l-0.1,0.9c0,0.1,0,0.1-0.1,0.1c0,0-0.1,0-0.1,0c0,0-0.1,0-0.2,0s-0.2,0-0.3,0     c-0.2,0-0.4,0.1-0.6,0.2c-0.2,0.1-0.3,0.3-0.4,0.6v3H126.7z"/>
		<path class="st11" d="M132.5,194.1c0.4,0,0.7,0.1,1,0.2c0.3,0.1,0.5,0.3,0.7,0.5c0.2,0.2,0.4,0.5,0.5,0.8c0.1,0.3,0.2,0.6,0.2,1     c0,0.4-0.1,0.7-0.2,1c-0.1,0.3-0.3,0.6-0.5,0.8c-0.2,0.2-0.5,0.4-0.7,0.5c-0.3,0.1-0.6,0.2-1,0.2c-0.4,0-0.7-0.1-1-0.2     c-0.3-0.1-0.5-0.3-0.7-0.5c-0.2-0.2-0.4-0.5-0.5-0.8c-0.1-0.3-0.2-0.6-0.2-1c0-0.4,0.1-0.7,0.2-1c0.1-0.3,0.3-0.6,0.5-0.8     c0.2-0.2,0.5-0.4,0.7-0.5C131.8,194.1,132.1,194.1,132.5,194.1z M132.5,198.1c0.4,0,0.7-0.1,0.9-0.4c0.2-0.3,0.3-0.7,0.3-1.2     s-0.1-0.9-0.3-1.2c-0.2-0.3-0.5-0.4-0.9-0.4c-0.4,0-0.7,0.1-0.9,0.4c-0.2,0.3-0.3,0.7-0.3,1.2s0.1,0.9,0.3,1.2     C131.8,198,132.1,198.1,132.5,198.1z"/>
		<path class="st11" d="M136.8,194.1v3c0,0.3,0.1,0.5,0.2,0.7s0.3,0.2,0.6,0.2c0.2,0,0.4,0,0.6-0.1c0.2-0.1,0.3-0.2,0.5-0.4v-3.4     h1.1v4.8h-0.7c-0.1,0-0.2-0.1-0.3-0.2l-0.1-0.4c-0.1,0.1-0.2,0.2-0.3,0.3s-0.2,0.2-0.3,0.2c-0.1,0.1-0.2,0.1-0.4,0.1s-0.3,0-0.4,0     c-0.3,0-0.5,0-0.7-0.1c-0.2-0.1-0.4-0.2-0.5-0.4s-0.2-0.4-0.3-0.6c-0.1-0.2-0.1-0.5-0.1-0.7v-3H136.8z"/>
		<path class="st11" d="M142.7,194.1c0.2,0,0.4,0,0.6,0.1s0.3,0.1,0.5,0.2h1.4v0.4c0,0.1,0,0.1-0.1,0.2c0,0-0.1,0.1-0.2,0.1     l-0.4,0.1c0,0.1,0.1,0.2,0.1,0.3c0,0.1,0,0.2,0,0.3c0,0.2,0,0.4-0.1,0.6c-0.1,0.2-0.2,0.4-0.4,0.5c-0.2,0.1-0.4,0.2-0.6,0.3     c-0.2,0.1-0.5,0.1-0.7,0.1c-0.2,0-0.4,0-0.5-0.1c-0.1,0.1-0.2,0.2-0.2,0.3c0,0.1,0,0.2,0.1,0.2c0.1,0,0.2,0.1,0.3,0.1     c0.1,0,0.3,0,0.5,0c0.2,0,0.4,0,0.6,0c0.2,0,0.4,0,0.6,0.1c0.2,0,0.3,0.1,0.5,0.2c0.1,0.1,0.3,0.2,0.3,0.3     c0.1,0.1,0.1,0.3,0.1,0.6c0,0.2-0.1,0.4-0.2,0.6s-0.3,0.4-0.5,0.5s-0.4,0.3-0.7,0.4c-0.3,0.1-0.6,0.1-1,0.1c-0.4,0-0.7,0-0.9-0.1     c-0.3-0.1-0.5-0.2-0.7-0.3s-0.3-0.2-0.4-0.4c-0.1-0.2-0.1-0.3-0.1-0.5c0-0.2,0.1-0.4,0.2-0.6c0.1-0.2,0.3-0.3,0.6-0.4     c-0.1-0.1-0.2-0.2-0.3-0.3c-0.1-0.1-0.1-0.2-0.1-0.4c0-0.1,0-0.1,0-0.2c0-0.1,0.1-0.2,0.1-0.2c0.1-0.1,0.1-0.1,0.2-0.2     c0.1-0.1,0.2-0.1,0.3-0.2c-0.2-0.1-0.4-0.3-0.6-0.5s-0.2-0.5-0.2-0.8c0-0.2,0-0.4,0.1-0.6c0.1-0.2,0.2-0.4,0.4-0.5     c0.2-0.1,0.4-0.2,0.6-0.3C142.1,194.1,142.4,194.1,142.7,194.1z M143.9,199.1c0-0.1,0-0.2-0.1-0.2s-0.1-0.1-0.2-0.1     s-0.2-0.1-0.3-0.1c-0.1,0-0.3,0-0.4,0s-0.3,0-0.4,0s-0.3,0-0.4-0.1c-0.1,0.1-0.2,0.2-0.3,0.3s-0.1,0.2-0.1,0.3     c0,0.1,0,0.2,0.1,0.2c0,0.1,0.1,0.1,0.2,0.2c0.1,0.1,0.2,0.1,0.4,0.1s0.3,0,0.5,0c0.2,0,0.4,0,0.6,0c0.2,0,0.3-0.1,0.4-0.1     s0.2-0.1,0.2-0.2C143.9,199.3,143.9,199.2,143.9,199.1z M142.7,196.4c0.1,0,0.3,0,0.4-0.1c0.1,0,0.2-0.1,0.3-0.2     c0.1-0.1,0.1-0.2,0.2-0.2c0-0.1,0.1-0.2,0.1-0.3c0-0.2-0.1-0.4-0.2-0.6s-0.4-0.2-0.6-0.2c-0.3,0-0.5,0.1-0.6,0.2     c-0.1,0.1-0.2,0.3-0.2,0.6c0,0.1,0,0.2,0.1,0.3c0,0.1,0.1,0.2,0.2,0.2c0.1,0.1,0.2,0.1,0.3,0.2     C142.4,196.4,142.5,196.4,142.7,196.4z"/>
		<path class="st11" d="M145.8,198.9V192h1.1v2.7c0.2-0.2,0.4-0.3,0.6-0.4c0.2-0.1,0.5-0.2,0.8-0.2c0.3,0,0.5,0,0.7,0.1     s0.4,0.2,0.5,0.4c0.1,0.2,0.2,0.4,0.3,0.6c0.1,0.2,0.1,0.5,0.1,0.7v3h-1.1v-3c0-0.3-0.1-0.5-0.2-0.7s-0.3-0.2-0.6-0.2     c-0.2,0-0.4,0-0.6,0.1c-0.2,0.1-0.3,0.2-0.5,0.4v3.4H145.8z"/>
		<path class="st11" d="M156.2,195.1c0,0-0.1,0.1-0.1,0.1c0,0-0.1,0-0.1,0c-0.1,0-0.1,0-0.2-0.1c-0.1,0-0.1-0.1-0.2-0.1     c-0.1,0-0.2-0.1-0.3-0.1s-0.2-0.1-0.4-0.1c-0.2,0-0.4,0-0.5,0.1c-0.2,0.1-0.3,0.2-0.4,0.3c-0.1,0.1-0.2,0.3-0.2,0.5     c0,0.2-0.1,0.4-0.1,0.7c0,0.3,0,0.5,0.1,0.7c0.1,0.2,0.1,0.4,0.2,0.5c0.1,0.1,0.2,0.2,0.4,0.3c0.1,0.1,0.3,0.1,0.5,0.1     s0.3,0,0.4-0.1s0.2-0.1,0.3-0.1c0.1-0.1,0.1-0.1,0.2-0.1c0.1,0,0.1-0.1,0.2-0.1c0.1,0,0.2,0,0.2,0.1l0.3,0.4     c-0.1,0.1-0.3,0.3-0.4,0.4s-0.3,0.2-0.5,0.2c-0.2,0.1-0.3,0.1-0.5,0.1c-0.2,0-0.3,0-0.5,0c-0.3,0-0.6-0.1-0.8-0.2     c-0.3-0.1-0.5-0.3-0.7-0.5c-0.2-0.2-0.3-0.5-0.5-0.8c-0.1-0.3-0.2-0.7-0.2-1c0-0.3,0-0.7,0.2-1s0.2-0.6,0.4-0.8     c0.2-0.2,0.4-0.4,0.7-0.5s0.6-0.2,1-0.2c0.4,0,0.7,0.1,0.9,0.2c0.3,0.1,0.5,0.3,0.7,0.5L156.2,195.1z"/>
		<path class="st11" d="M161.1,198.9h-0.5c-0.1,0-0.2,0-0.3,0c-0.1,0-0.1-0.1-0.1-0.2l-0.1-0.3c-0.1,0.1-0.2,0.2-0.4,0.3     s-0.2,0.2-0.4,0.2c-0.1,0.1-0.3,0.1-0.4,0.1c-0.1,0-0.3,0-0.5,0c-0.2,0-0.4,0-0.6-0.1c-0.2-0.1-0.3-0.1-0.4-0.2     c-0.1-0.1-0.2-0.2-0.3-0.4c-0.1-0.2-0.1-0.3-0.1-0.6c0-0.2,0-0.4,0.1-0.5c0.1-0.2,0.3-0.3,0.5-0.5c0.2-0.1,0.5-0.3,0.9-0.4     c0.4-0.1,0.8-0.1,1.4-0.1v-0.3c0-0.3-0.1-0.6-0.2-0.7s-0.3-0.2-0.6-0.2c-0.2,0-0.3,0-0.5,0.1c-0.1,0-0.2,0.1-0.3,0.1     c-0.1,0.1-0.2,0.1-0.3,0.1c-0.1,0-0.2,0.1-0.3,0.1c-0.1,0-0.1,0-0.2-0.1s-0.1-0.1-0.1-0.1l-0.2-0.4c0.5-0.5,1.2-0.8,2-0.8     c0.3,0,0.5,0,0.7,0.1c0.2,0.1,0.4,0.2,0.6,0.4c0.2,0.2,0.3,0.4,0.3,0.6c0.1,0.2,0.1,0.5,0.1,0.7V198.9z M158.8,198.2     c0.1,0,0.2,0,0.3,0c0.1,0,0.2-0.1,0.3-0.1c0.1,0,0.2-0.1,0.3-0.2c0.1-0.1,0.2-0.1,0.2-0.2v-0.8c-0.3,0-0.6,0-0.8,0.1     s-0.4,0.1-0.5,0.2c-0.1,0.1-0.2,0.1-0.3,0.2c-0.1,0.1-0.1,0.2-0.1,0.3c0,0.2,0.1,0.3,0.2,0.4C158.5,198.1,158.6,198.2,158.8,198.2     z"/>
		<path class="st11" d="M162.2,198.9v-4.8h0.7c0.1,0,0.2,0,0.2,0.1c0,0,0.1,0.1,0.1,0.2l0.1,0.6c0.2-0.3,0.4-0.5,0.6-0.7     c0.2-0.2,0.5-0.3,0.8-0.3c0.2,0,0.4,0.1,0.6,0.2l-0.1,0.9c0,0.1,0,0.1-0.1,0.1c0,0-0.1,0-0.1,0c0,0-0.1,0-0.2,0     c-0.1,0-0.2,0-0.3,0c-0.2,0-0.4,0.1-0.6,0.2c-0.2,0.1-0.3,0.3-0.4,0.6v3H162.2z"/>
		<path class="st11" d="M169.3,198.9c-0.1,0-0.2-0.1-0.3-0.2l-0.1-0.5c-0.1,0.1-0.2,0.2-0.3,0.3c-0.1,0.1-0.2,0.2-0.4,0.2     c-0.1,0.1-0.3,0.1-0.4,0.2c-0.1,0-0.3,0.1-0.5,0.1c-0.3,0-0.5-0.1-0.7-0.2c-0.2-0.1-0.4-0.3-0.6-0.5c-0.2-0.2-0.3-0.5-0.4-0.8     c-0.1-0.3-0.1-0.6-0.1-1c0-0.4,0-0.7,0.1-1c0.1-0.3,0.2-0.6,0.4-0.8c0.2-0.2,0.4-0.4,0.6-0.5c0.3-0.1,0.5-0.2,0.8-0.2     c0.3,0,0.5,0,0.7,0.1c0.2,0.1,0.4,0.2,0.5,0.3V192h1.1v6.9H169.3z M167.8,198.1c0.2,0,0.4,0,0.6-0.1c0.2-0.1,0.3-0.2,0.5-0.4v-2.1     c-0.1-0.2-0.3-0.3-0.4-0.3c-0.2-0.1-0.3-0.1-0.5-0.1c-0.2,0-0.3,0-0.5,0.1c-0.1,0.1-0.3,0.2-0.4,0.3c-0.1,0.1-0.2,0.3-0.2,0.5     c-0.1,0.2-0.1,0.4-0.1,0.7c0,0.3,0,0.5,0.1,0.7s0.1,0.4,0.2,0.5c0.1,0.1,0.2,0.2,0.3,0.3C167.5,198,167.7,198.1,167.8,198.1z"/>
		<path class="st11" d="M171,198.2c0-0.1,0-0.2,0-0.2c0-0.1,0.1-0.1,0.1-0.2c0.1-0.1,0.1-0.1,0.2-0.1c0.1,0,0.2,0,0.3,0     c0.1,0,0.2,0,0.3,0.1c0.1,0,0.2,0.1,0.2,0.2c0.1,0.1,0.1,0.2,0.1,0.2c0,0.1,0,0.2,0,0.3c0,0.1,0,0.3-0.1,0.5s-0.1,0.3-0.2,0.5     s-0.2,0.3-0.3,0.5c-0.1,0.2-0.3,0.3-0.4,0.4l-0.2-0.2c-0.1,0-0.1-0.1-0.1-0.2c0,0,0-0.1,0-0.1c0,0,0-0.1,0.1-0.1     c0,0,0.1-0.1,0.1-0.1c0-0.1,0.1-0.1,0.1-0.2c0-0.1,0.1-0.1,0.1-0.2s0.1-0.2,0.1-0.3c-0.1,0-0.2,0-0.3-0.1c-0.1,0-0.1-0.1-0.2-0.1     c-0.1-0.1-0.1-0.1-0.1-0.2C171,198.4,171,198.3,171,198.2z"/>
	</g>
	<g class="st3">
		<path class="st11" d="M58.1,211.3v-6.9h1.1v2.7c0.2-0.2,0.4-0.4,0.6-0.5s0.5-0.2,0.8-0.2c0.3,0,0.5,0.1,0.7,0.2     c0.2,0.1,0.4,0.3,0.6,0.5c0.2,0.2,0.3,0.5,0.4,0.8c0.1,0.3,0.1,0.6,0.1,1c0,0.4,0,0.7-0.1,1c-0.1,0.3-0.2,0.6-0.4,0.8     c-0.2,0.2-0.4,0.4-0.6,0.5c-0.3,0.1-0.5,0.2-0.8,0.2c-0.1,0-0.3,0-0.4,0s-0.2-0.1-0.3-0.1s-0.2-0.1-0.3-0.2     c-0.1-0.1-0.2-0.2-0.2-0.3l-0.1,0.3c0,0.1-0.1,0.1-0.1,0.2s-0.1,0.1-0.2,0.1H58.1z M60.3,207.4c-0.2,0-0.4,0.1-0.6,0.2     c-0.2,0.1-0.3,0.2-0.5,0.4v2.1c0.1,0.2,0.3,0.3,0.4,0.3s0.3,0.1,0.5,0.1c0.2,0,0.3,0,0.5-0.1c0.1-0.1,0.3-0.2,0.4-0.3     c0.1-0.1,0.2-0.3,0.2-0.5c0.1-0.2,0.1-0.4,0.1-0.7c0-0.3,0-0.5-0.1-0.7s-0.1-0.4-0.2-0.5c-0.1-0.1-0.2-0.2-0.3-0.3     S60.4,207.4,60.3,207.4z"/>
		<path class="st11" d="M67.1,211.3h-0.5c-0.1,0-0.2,0-0.3,0s-0.1-0.1-0.1-0.2l-0.1-0.3c-0.1,0.1-0.2,0.2-0.4,0.3s-0.2,0.2-0.4,0.2     c-0.1,0.1-0.3,0.1-0.4,0.1c-0.1,0-0.3,0-0.5,0c-0.2,0-0.4,0-0.6-0.1c-0.2-0.1-0.3-0.1-0.4-0.2c-0.1-0.1-0.2-0.2-0.3-0.4     c-0.1-0.2-0.1-0.3-0.1-0.6c0-0.2,0-0.4,0.1-0.5s0.3-0.3,0.5-0.5c0.2-0.1,0.5-0.3,0.9-0.4c0.4-0.1,0.8-0.1,1.4-0.1v-0.3     c0-0.3-0.1-0.6-0.2-0.7s-0.3-0.2-0.6-0.2c-0.2,0-0.3,0-0.5,0.1c-0.1,0-0.2,0.1-0.3,0.1c-0.1,0.1-0.2,0.1-0.3,0.1     c-0.1,0-0.2,0.1-0.3,0.1c-0.1,0-0.1,0-0.2-0.1s-0.1-0.1-0.1-0.1l-0.2-0.4c0.5-0.5,1.2-0.8,2-0.8c0.3,0,0.5,0,0.7,0.1     c0.2,0.1,0.4,0.2,0.6,0.4c0.2,0.2,0.3,0.4,0.3,0.6c0.1,0.2,0.1,0.5,0.1,0.7V211.3z M64.8,210.6c0.1,0,0.2,0,0.3,0s0.2-0.1,0.3-0.1     c0.1,0,0.2-0.1,0.3-0.2c0.1-0.1,0.2-0.1,0.2-0.2v-0.8c-0.3,0-0.6,0-0.8,0.1c-0.2,0-0.4,0.1-0.5,0.2s-0.2,0.1-0.3,0.2     c-0.1,0.1-0.1,0.2-0.1,0.3c0,0.2,0.1,0.3,0.2,0.4C64.5,210.5,64.7,210.6,64.8,210.6z"/>
		<path class="st11" d="M68.2,211.3v-4.8h0.7c0.1,0,0.2,0.1,0.3,0.2l0.1,0.4c0.1-0.1,0.2-0.2,0.3-0.3s0.2-0.2,0.3-0.2     s0.2-0.1,0.4-0.1s0.3,0,0.4,0c0.3,0,0.5,0,0.7,0.1s0.4,0.2,0.5,0.4c0.1,0.2,0.2,0.4,0.3,0.6c0.1,0.2,0.1,0.5,0.1,0.7v3h-1.1v-3     c0-0.3-0.1-0.5-0.2-0.7s-0.3-0.2-0.6-0.2c-0.2,0-0.4,0-0.6,0.1s-0.3,0.2-0.5,0.4v3.4H68.2z"/>
		<path class="st11" d="M74.6,204.4v4h0.2c0.1,0,0.1,0,0.2,0s0.1-0.1,0.1-0.1l1.2-1.5c0.1-0.1,0.1-0.1,0.2-0.1     c0.1,0,0.1-0.1,0.2-0.1h1l-1.5,1.8c-0.1,0.1-0.1,0.1-0.2,0.2c-0.1,0.1-0.1,0.1-0.2,0.1c0.1,0,0.1,0.1,0.2,0.2     c0,0.1,0.1,0.1,0.1,0.2l1.6,2.3h-1c-0.1,0-0.2,0-0.2,0c-0.1,0-0.1-0.1-0.2-0.2l-1.2-1.8c0-0.1-0.1-0.1-0.1-0.1s-0.1,0-0.2,0h-0.3     v2.2h-1.1v-6.9H74.6z"/>
		<path class="st11" d="M82,211.4c-0.4,0-0.7-0.1-1-0.4s-0.3-0.6-0.3-1v-2.7h-0.5c-0.1,0-0.1,0-0.2-0.1c0,0-0.1-0.1-0.1-0.2v-0.5     l0.8-0.1l0.2-1.3c0-0.1,0-0.1,0.1-0.1s0.1-0.1,0.2-0.1h0.6v1.5h1.3v0.8h-1.3v2.6c0,0.1,0,0.3,0.1,0.3c0.1,0.1,0.2,0.1,0.3,0.1     c0.1,0,0.1,0,0.2,0c0,0,0.1,0,0.1-0.1s0.1,0,0.1-0.1c0,0,0.1,0,0.1,0c0,0,0.1,0,0.1,0c0,0,0,0,0.1,0.1l0.3,0.6     c-0.2,0.1-0.4,0.2-0.6,0.3C82.4,211.3,82.2,211.4,82,211.4z"/>
		<path class="st11" d="M84,211.3v-4.8h0.7c0.1,0,0.2,0,0.2,0.1c0,0,0.1,0.1,0.1,0.2l0.1,0.6c0.2-0.3,0.4-0.5,0.6-0.7     s0.5-0.3,0.8-0.3c0.2,0,0.4,0.1,0.6,0.2l-0.1,0.9c0,0.1,0,0.1-0.1,0.1c0,0-0.1,0-0.1,0c0,0-0.1,0-0.2,0c-0.1,0-0.2,0-0.3,0     c-0.2,0-0.4,0.1-0.6,0.2c-0.2,0.1-0.3,0.3-0.4,0.6v3H84z"/>
		<path class="st11" d="M91.4,211.3h-0.5c-0.1,0-0.2,0-0.3,0s-0.1-0.1-0.1-0.2l-0.1-0.3c-0.1,0.1-0.2,0.2-0.4,0.3s-0.2,0.2-0.4,0.2     c-0.1,0.1-0.3,0.1-0.4,0.1c-0.1,0-0.3,0-0.5,0c-0.2,0-0.4,0-0.6-0.1c-0.2-0.1-0.3-0.1-0.4-0.2c-0.1-0.1-0.2-0.2-0.3-0.4     c-0.1-0.2-0.1-0.3-0.1-0.6c0-0.2,0-0.4,0.1-0.5s0.3-0.3,0.5-0.5c0.2-0.1,0.5-0.3,0.9-0.4c0.4-0.1,0.8-0.1,1.4-0.1v-0.3     c0-0.3-0.1-0.6-0.2-0.7s-0.3-0.2-0.6-0.2c-0.2,0-0.3,0-0.5,0.1c-0.1,0-0.2,0.1-0.3,0.1c-0.1,0.1-0.2,0.1-0.3,0.1     c-0.1,0-0.2,0.1-0.3,0.1c-0.1,0-0.1,0-0.2-0.1s-0.1-0.1-0.1-0.1l-0.2-0.4c0.5-0.5,1.2-0.8,2-0.8c0.3,0,0.5,0,0.7,0.1     c0.2,0.1,0.4,0.2,0.6,0.4c0.2,0.2,0.3,0.4,0.3,0.6c0.1,0.2,0.1,0.5,0.1,0.7V211.3z M89.2,210.6c0.1,0,0.2,0,0.3,0s0.2-0.1,0.3-0.1     c0.1,0,0.2-0.1,0.3-0.2c0.1-0.1,0.2-0.1,0.2-0.2v-0.8c-0.3,0-0.6,0-0.8,0.1c-0.2,0-0.4,0.1-0.5,0.2s-0.2,0.1-0.3,0.2     c-0.1,0.1-0.1,0.2-0.1,0.3c0,0.2,0.1,0.3,0.2,0.4C88.8,210.5,89,210.6,89.2,210.6z"/>
		<path class="st11" d="M92.5,211.3v-4.8h0.7c0.1,0,0.2,0.1,0.3,0.2l0.1,0.4c0.1-0.1,0.2-0.2,0.3-0.3s0.2-0.2,0.3-0.2     s0.2-0.1,0.4-0.1s0.3,0,0.4,0c0.3,0,0.5,0,0.7,0.1s0.4,0.2,0.5,0.4c0.1,0.2,0.2,0.4,0.3,0.6c0.1,0.2,0.1,0.5,0.1,0.7v3h-1.1v-3     c0-0.3-0.1-0.5-0.2-0.7s-0.3-0.2-0.6-0.2c-0.2,0-0.4,0-0.6,0.1s-0.3,0.2-0.5,0.4v3.4H92.5z"/>
		<path class="st11" d="M100.6,207.5c0,0-0.1,0.1-0.1,0.1c0,0-0.1,0-0.1,0c-0.1,0-0.1,0-0.2,0c-0.1,0-0.1-0.1-0.2-0.1     c-0.1,0-0.2-0.1-0.3-0.1s-0.2,0-0.4,0c-0.2,0-0.4,0-0.5,0.1c-0.1,0.1-0.2,0.2-0.2,0.4c0,0.1,0,0.2,0.1,0.3     c0.1,0.1,0.2,0.1,0.3,0.2s0.2,0.1,0.4,0.1s0.3,0.1,0.4,0.1c0.1,0,0.3,0.1,0.4,0.2c0.1,0.1,0.3,0.1,0.4,0.2s0.2,0.2,0.3,0.4     c0.1,0.1,0.1,0.3,0.1,0.5c0,0.2,0,0.4-0.1,0.6c-0.1,0.2-0.2,0.4-0.4,0.5c-0.2,0.1-0.4,0.3-0.6,0.3c-0.2,0.1-0.5,0.1-0.8,0.1     c-0.2,0-0.3,0-0.5,0s-0.3-0.1-0.5-0.1c-0.1-0.1-0.3-0.1-0.4-0.2s-0.2-0.1-0.3-0.2l0.3-0.4c0-0.1,0.1-0.1,0.1-0.1c0,0,0.1,0,0.2,0     c0.1,0,0.1,0,0.2,0.1c0.1,0,0.1,0.1,0.2,0.1c0.1,0,0.2,0.1,0.3,0.1c0.1,0,0.3,0.1,0.4,0.1c0.1,0,0.3,0,0.4,0     c0.1,0,0.2-0.1,0.2-0.1s0.1-0.1,0.1-0.2c0-0.1,0-0.1,0-0.2c0-0.1,0-0.2-0.1-0.3c-0.1-0.1-0.2-0.1-0.3-0.2     c-0.1-0.1-0.2-0.1-0.4-0.1c-0.1,0-0.3-0.1-0.4-0.1c-0.1,0-0.3-0.1-0.4-0.2c-0.1-0.1-0.3-0.2-0.4-0.3s-0.2-0.2-0.3-0.4     s-0.1-0.3-0.1-0.5c0-0.2,0-0.4,0.1-0.6c0.1-0.2,0.2-0.3,0.3-0.5s0.3-0.2,0.6-0.3c0.2-0.1,0.5-0.1,0.8-0.1c0.3,0,0.6,0.1,0.9,0.2     c0.3,0.1,0.5,0.3,0.7,0.4L100.6,207.5z"/>
		<path class="st11" d="M102,211.3v-3.9l-0.4-0.1c-0.1,0-0.2,0-0.2-0.1c-0.1,0-0.1-0.1-0.1-0.2v-0.5h0.7v-0.4c0-0.3,0-0.5,0.1-0.7     s0.2-0.4,0.4-0.6c0.2-0.2,0.3-0.3,0.6-0.3c0.2-0.1,0.5-0.1,0.7-0.1c0.2,0,0.4,0,0.6,0.1l0,0.6c0,0.1,0,0.1-0.1,0.2     c-0.1,0-0.2,0-0.3,0c-0.1,0-0.3,0-0.4,0c-0.1,0-0.2,0.1-0.3,0.2c-0.1,0.1-0.1,0.2-0.2,0.3c0,0.1-0.1,0.3-0.1,0.4v0.3h1.2v0.8h-1.2     v3.9H102z"/>
		<path class="st11" d="M107.1,206.5c0.3,0,0.6,0,0.8,0.1c0.3,0.1,0.5,0.2,0.7,0.4c0.2,0.2,0.3,0.4,0.4,0.7c0.1,0.3,0.2,0.6,0.2,0.9     c0,0.1,0,0.2,0,0.2c0,0.1,0,0.1,0,0.1c0,0,0,0.1-0.1,0.1c0,0-0.1,0-0.1,0h-2.9c0,0.5,0.2,0.8,0.4,1.1c0.2,0.2,0.5,0.3,0.9,0.3     c0.2,0,0.3,0,0.5-0.1c0.1,0,0.3-0.1,0.4-0.1c0.1-0.1,0.2-0.1,0.3-0.1s0.1-0.1,0.2-0.1c0,0,0.1,0,0.1,0c0,0,0.1,0,0.1,0.1l0.3,0.4     c-0.1,0.1-0.3,0.3-0.4,0.4c-0.2,0.1-0.3,0.2-0.5,0.2c-0.2,0.1-0.3,0.1-0.5,0.1c-0.2,0-0.4,0-0.5,0c-0.3,0-0.6-0.1-0.9-0.2     c-0.3-0.1-0.5-0.3-0.7-0.5c-0.2-0.2-0.4-0.5-0.5-0.8s-0.2-0.7-0.2-1.1c0-0.3,0.1-0.6,0.2-0.9c0.1-0.3,0.3-0.5,0.5-0.7     c0.2-0.2,0.4-0.4,0.7-0.5S106.7,206.5,107.1,206.5z M107.1,207.3c-0.3,0-0.6,0.1-0.8,0.3c-0.2,0.2-0.3,0.5-0.4,0.8h2.2     c0-0.1,0-0.3-0.1-0.4c0-0.1-0.1-0.2-0.2-0.3s-0.2-0.2-0.3-0.2S107.3,207.3,107.1,207.3z"/>
		<path class="st11" d="M110.1,211.3v-4.8h0.7c0.1,0,0.2,0,0.2,0.1c0,0,0.1,0.1,0.1,0.2l0.1,0.6c0.2-0.3,0.4-0.5,0.6-0.7     c0.2-0.2,0.5-0.3,0.8-0.3c0.2,0,0.4,0.1,0.6,0.2l-0.1,0.9c0,0.1,0,0.1-0.1,0.1c0,0-0.1,0-0.1,0c0,0-0.1,0-0.2,0s-0.2,0-0.3,0     c-0.2,0-0.4,0.1-0.6,0.2c-0.2,0.1-0.3,0.3-0.4,0.6v3H110.1z"/>
		<path class="st11" d="M117.7,206.5c0.4,0,0.7,0.1,1,0.2c0.3,0.1,0.5,0.3,0.7,0.5c0.2,0.2,0.4,0.5,0.5,0.8c0.1,0.3,0.2,0.6,0.2,1     c0,0.4-0.1,0.7-0.2,1c-0.1,0.3-0.3,0.6-0.5,0.8c-0.2,0.2-0.5,0.4-0.7,0.5c-0.3,0.1-0.6,0.2-1,0.2c-0.4,0-0.7-0.1-1-0.2     c-0.3-0.1-0.5-0.3-0.7-0.5c-0.2-0.2-0.4-0.5-0.5-0.8c-0.1-0.3-0.2-0.6-0.2-1c0-0.4,0.1-0.7,0.2-1c0.1-0.3,0.3-0.6,0.5-0.8     c0.2-0.2,0.5-0.4,0.7-0.5C117,206.5,117.3,206.5,117.7,206.5z M117.7,210.5c0.4,0,0.7-0.1,0.9-0.4c0.2-0.3,0.3-0.7,0.3-1.2     s-0.1-0.9-0.3-1.2c-0.2-0.3-0.5-0.4-0.9-0.4c-0.4,0-0.7,0.1-0.9,0.4c-0.2,0.3-0.3,0.7-0.3,1.2s0.1,0.9,0.3,1.2     C117,210.4,117.3,210.5,117.7,210.5z"/>
		<path class="st11" d="M120.9,211.3v-4.8h0.7c0.1,0,0.2,0,0.2,0.1c0,0,0.1,0.1,0.1,0.2l0.1,0.6c0.2-0.3,0.4-0.5,0.6-0.7     c0.2-0.2,0.5-0.3,0.8-0.3c0.2,0,0.4,0.1,0.6,0.2l-0.1,0.9c0,0.1,0,0.1-0.1,0.1c0,0-0.1,0-0.1,0c0,0-0.1,0-0.2,0     c-0.1,0-0.2,0-0.3,0c-0.2,0-0.4,0.1-0.6,0.2c-0.2,0.1-0.3,0.3-0.4,0.6v3H120.9z"/>
		<path class="st11" d="M133,207.9c0,0.3,0,0.6-0.1,0.9c-0.1,0.3-0.2,0.5-0.3,0.8s-0.3,0.5-0.4,0.7c-0.2,0.2-0.4,0.4-0.6,0.5     l1.7,1.9h-1c-0.1,0-0.3,0-0.4-0.1c-0.1,0-0.2-0.1-0.3-0.2l-1-1.1c-0.2,0-0.3,0.1-0.5,0.1c-0.2,0-0.3,0-0.5,0c-0.5,0-1-0.1-1.4-0.3     c-0.4-0.2-0.8-0.4-1.1-0.7s-0.5-0.7-0.7-1.1s-0.2-0.9-0.2-1.4s0.1-0.9,0.2-1.4c0.2-0.4,0.4-0.8,0.7-1.1c0.3-0.3,0.7-0.5,1.1-0.7     c0.4-0.2,0.9-0.3,1.4-0.3c0.5,0,1,0.1,1.4,0.3c0.4,0.2,0.8,0.4,1.1,0.7s0.5,0.7,0.7,1.1C132.9,207,133,207.5,133,207.9z      M131.7,207.9c0-0.4,0-0.7-0.1-1c-0.1-0.3-0.2-0.5-0.4-0.7s-0.4-0.4-0.7-0.5s-0.6-0.2-0.9-0.2c-0.3,0-0.6,0.1-0.9,0.2     c-0.3,0.1-0.5,0.3-0.7,0.5c-0.2,0.2-0.3,0.5-0.4,0.7c-0.1,0.3-0.1,0.6-0.1,1s0,0.7,0.1,1c0.1,0.3,0.2,0.5,0.4,0.7     c0.2,0.2,0.4,0.4,0.7,0.5c0.3,0.1,0.6,0.2,0.9,0.2c0.3,0,0.6-0.1,0.9-0.2s0.5-0.3,0.7-0.5c0.2-0.2,0.3-0.5,0.4-0.7     C131.7,208.6,131.7,208.3,131.7,207.9z"/>
		<path class="st11" d="M135.3,208.7v2.6H134v-6.7h2c0.5,0,0.9,0,1.2,0.1c0.3,0.1,0.6,0.2,0.8,0.4c0.2,0.2,0.4,0.4,0.5,0.6     c0.1,0.2,0.1,0.5,0.1,0.8c0,0.2,0,0.4-0.1,0.6s-0.2,0.4-0.3,0.5c-0.1,0.2-0.3,0.3-0.5,0.4c-0.2,0.1-0.4,0.2-0.6,0.3     c0.2,0.1,0.3,0.2,0.4,0.4l1.7,2.5h-1.1c-0.1,0-0.2,0-0.3-0.1c-0.1,0-0.1-0.1-0.2-0.2l-1.4-2.1c-0.1-0.1-0.1-0.1-0.2-0.2     c-0.1,0-0.2-0.1-0.3-0.1H135.3z M135.3,207.8h0.8c0.2,0,0.4,0,0.6-0.1c0.2-0.1,0.3-0.1,0.4-0.2c0.1-0.1,0.2-0.2,0.3-0.4     c0.1-0.1,0.1-0.3,0.1-0.5c0-0.3-0.1-0.6-0.3-0.8c-0.2-0.2-0.6-0.3-1-0.3h-0.8V207.8z"/>
		<path class="st11" d="M145.2,207.5c0,0-0.1,0.1-0.1,0.1c0,0-0.1,0-0.1,0c-0.1,0-0.1,0-0.2-0.1c-0.1,0-0.1-0.1-0.2-0.1     c-0.1,0-0.2-0.1-0.3-0.1s-0.2-0.1-0.4-0.1c-0.2,0-0.4,0-0.5,0.1c-0.2,0.1-0.3,0.2-0.4,0.3c-0.1,0.1-0.2,0.3-0.2,0.5     c0,0.2-0.1,0.4-0.1,0.7c0,0.3,0,0.5,0.1,0.7c0.1,0.2,0.1,0.4,0.2,0.5c0.1,0.1,0.2,0.2,0.4,0.3c0.1,0.1,0.3,0.1,0.5,0.1     s0.3,0,0.4-0.1s0.2-0.1,0.3-0.1c0.1-0.1,0.1-0.1,0.2-0.1c0.1,0,0.1-0.1,0.2-0.1c0.1,0,0.2,0,0.2,0.1l0.3,0.4     c-0.1,0.1-0.3,0.3-0.4,0.4s-0.3,0.2-0.5,0.2c-0.2,0.1-0.3,0.1-0.5,0.1c-0.2,0-0.3,0-0.5,0c-0.3,0-0.6-0.1-0.8-0.2     c-0.3-0.1-0.5-0.3-0.7-0.5c-0.2-0.2-0.3-0.5-0.5-0.8c-0.1-0.3-0.2-0.7-0.2-1c0-0.3,0-0.7,0.2-1s0.2-0.6,0.4-0.8     c0.2-0.2,0.4-0.4,0.7-0.5s0.6-0.2,1-0.2c0.4,0,0.7,0.1,0.9,0.2c0.3,0.1,0.5,0.3,0.7,0.5L145.2,207.5z"/>
		<path class="st11" d="M148.3,206.5c0.4,0,0.7,0.1,1,0.2c0.3,0.1,0.5,0.3,0.7,0.5c0.2,0.2,0.4,0.5,0.5,0.8c0.1,0.3,0.2,0.6,0.2,1     c0,0.4-0.1,0.7-0.2,1c-0.1,0.3-0.3,0.6-0.5,0.8c-0.2,0.2-0.5,0.4-0.7,0.5c-0.3,0.1-0.6,0.2-1,0.2c-0.4,0-0.7-0.1-1-0.2     c-0.3-0.1-0.5-0.3-0.7-0.5c-0.2-0.2-0.4-0.5-0.5-0.8c-0.1-0.3-0.2-0.6-0.2-1c0-0.4,0.1-0.7,0.2-1c0.1-0.3,0.3-0.6,0.5-0.8     c0.2-0.2,0.5-0.4,0.7-0.5C147.6,206.5,147.9,206.5,148.3,206.5z M148.3,210.5c0.4,0,0.7-0.1,0.9-0.4c0.2-0.3,0.3-0.7,0.3-1.2     s-0.1-0.9-0.3-1.2c-0.2-0.3-0.5-0.4-0.9-0.4c-0.4,0-0.7,0.1-0.9,0.4c-0.2,0.3-0.3,0.7-0.3,1.2s0.1,0.9,0.3,1.2     C147.6,210.4,147.9,210.5,148.3,210.5z"/>
		<path class="st11" d="M154.9,211.3c-0.1,0-0.2-0.1-0.3-0.2l-0.1-0.5c-0.1,0.1-0.2,0.2-0.3,0.3c-0.1,0.1-0.2,0.2-0.4,0.2     c-0.1,0.1-0.3,0.1-0.4,0.2c-0.1,0-0.3,0.1-0.5,0.1c-0.3,0-0.5-0.1-0.7-0.2c-0.2-0.1-0.4-0.3-0.6-0.5c-0.2-0.2-0.3-0.5-0.4-0.8     c-0.1-0.3-0.1-0.6-0.1-1c0-0.4,0-0.7,0.1-1c0.1-0.3,0.2-0.6,0.4-0.8c0.2-0.2,0.4-0.4,0.6-0.5c0.3-0.1,0.5-0.2,0.8-0.2     c0.3,0,0.5,0,0.7,0.1c0.2,0.1,0.4,0.2,0.5,0.3v-2.5h1.1v6.9H154.9z M153.3,210.5c0.2,0,0.4,0,0.6-0.1c0.2-0.1,0.3-0.2,0.5-0.4     v-2.1c-0.1-0.2-0.3-0.3-0.4-0.3c-0.2-0.1-0.3-0.1-0.5-0.1c-0.2,0-0.3,0-0.5,0.1c-0.1,0.1-0.3,0.2-0.4,0.3     c-0.1,0.1-0.2,0.3-0.2,0.5c-0.1,0.2-0.1,0.4-0.1,0.7c0,0.3,0,0.5,0.1,0.7s0.1,0.4,0.2,0.5c0.1,0.1,0.2,0.2,0.3,0.3     C153.1,210.4,153.2,210.5,153.3,210.5z"/>
		<path class="st11" d="M158.8,206.5c0.3,0,0.6,0,0.8,0.1c0.3,0.1,0.5,0.2,0.7,0.4c0.2,0.2,0.3,0.4,0.4,0.7c0.1,0.3,0.2,0.6,0.2,0.9     c0,0.1,0,0.2,0,0.2c0,0.1,0,0.1,0,0.1c0,0,0,0.1-0.1,0.1c0,0-0.1,0-0.1,0h-2.9c0,0.5,0.2,0.8,0.4,1.1c0.2,0.2,0.5,0.3,0.9,0.3     c0.2,0,0.3,0,0.5-0.1c0.1,0,0.3-0.1,0.4-0.1c0.1-0.1,0.2-0.1,0.3-0.1c0.1,0,0.1-0.1,0.2-0.1c0,0,0.1,0,0.1,0s0.1,0,0.1,0.1     l0.3,0.4c-0.1,0.1-0.3,0.3-0.4,0.4c-0.2,0.1-0.3,0.2-0.5,0.2c-0.2,0.1-0.3,0.1-0.5,0.1c-0.2,0-0.4,0-0.5,0c-0.3,0-0.6-0.1-0.9-0.2     c-0.3-0.1-0.5-0.3-0.7-0.5c-0.2-0.2-0.4-0.5-0.5-0.8c-0.1-0.3-0.2-0.7-0.2-1.1c0-0.3,0.1-0.6,0.2-0.9s0.3-0.5,0.5-0.7     c0.2-0.2,0.4-0.4,0.7-0.5S158.4,206.5,158.8,206.5z M158.8,207.3c-0.3,0-0.6,0.1-0.8,0.3s-0.3,0.5-0.4,0.8h2.2     c0-0.1,0-0.3-0.1-0.4c0-0.1-0.1-0.2-0.2-0.3c-0.1-0.1-0.2-0.2-0.3-0.2S159,207.3,158.8,207.3z"/>
	</g>
</g>
<g class="st3">
	<path d="M34.4,63.6c0.1,0,0.1,0,0.2,0.1l0.5,0.6c-0.3,0.4-0.7,0.6-1.1,0.8c-0.4,0.2-0.9,0.3-1.5,0.3c-0.5,0-1-0.1-1.4-0.3    c-0.4-0.2-0.8-0.4-1.1-0.8c-0.3-0.3-0.5-0.7-0.7-1.2c-0.2-0.5-0.2-0.9-0.2-1.5c0-0.5,0.1-1,0.3-1.5c0.2-0.5,0.4-0.8,0.8-1.2    c0.3-0.3,0.7-0.6,1.2-0.8c0.5-0.2,1-0.3,1.5-0.3c0.5,0,1,0.1,1.4,0.3c0.4,0.2,0.7,0.4,1,0.7l-0.5,0.6c0,0-0.1,0.1-0.1,0.1    c0,0-0.1,0-0.2,0c-0.1,0-0.2,0-0.2-0.1c-0.1-0.1-0.2-0.1-0.3-0.2c-0.1-0.1-0.3-0.1-0.5-0.2c-0.2-0.1-0.4-0.1-0.7-0.1    c-0.3,0-0.7,0.1-0.9,0.2s-0.5,0.3-0.7,0.5c-0.2,0.2-0.4,0.5-0.5,0.8c-0.1,0.3-0.2,0.7-0.2,1.1c0,0.4,0.1,0.8,0.2,1.1    c0.1,0.3,0.3,0.6,0.5,0.8c0.2,0.2,0.4,0.4,0.7,0.5s0.6,0.2,0.9,0.2c0.2,0,0.3,0,0.5,0c0.1,0,0.3-0.1,0.4-0.1c0.1,0,0.2-0.1,0.4-0.2    c0.1-0.1,0.2-0.2,0.3-0.3c0,0,0.1-0.1,0.1-0.1C34.4,63.6,34.4,63.6,34.4,63.6z"/>
	<path d="M36.1,65.3v-7.4h1.2v2.9c0.2-0.2,0.4-0.3,0.7-0.5c0.2-0.1,0.5-0.2,0.8-0.2c0.3,0,0.5,0,0.7,0.1s0.4,0.2,0.5,0.4    c0.1,0.2,0.3,0.4,0.3,0.6c0.1,0.2,0.1,0.5,0.1,0.8v3.3h-1.2v-3.3c0-0.3-0.1-0.6-0.2-0.7c-0.1-0.2-0.4-0.3-0.7-0.3    c-0.2,0-0.4,0-0.6,0.1c-0.2,0.1-0.4,0.2-0.5,0.4v3.7H36.1z"/>
	<path d="M43.9,60.1c0.3,0,0.6,0.1,0.9,0.2c0.3,0.1,0.5,0.3,0.7,0.5c0.2,0.2,0.3,0.4,0.5,0.7c0.1,0.3,0.2,0.6,0.2,1    c0,0.1,0,0.2,0,0.2c0,0.1,0,0.1,0,0.1S46,62.9,46,62.9c0,0-0.1,0-0.1,0h-3.2c0,0.5,0.2,0.9,0.4,1.2s0.6,0.4,1,0.4    c0.2,0,0.4,0,0.5-0.1c0.1,0,0.3-0.1,0.4-0.2c0.1-0.1,0.2-0.1,0.3-0.2c0.1,0,0.2-0.1,0.2-0.1c0,0,0.1,0,0.1,0c0,0,0.1,0,0.1,0.1    l0.4,0.5c-0.1,0.2-0.3,0.3-0.5,0.4s-0.3,0.2-0.5,0.3c-0.2,0.1-0.4,0.1-0.6,0.1c-0.2,0-0.4,0-0.6,0c-0.4,0-0.7-0.1-1-0.2    s-0.6-0.3-0.8-0.5c-0.2-0.2-0.4-0.5-0.5-0.9s-0.2-0.7-0.2-1.2c0-0.4,0.1-0.7,0.2-1c0.1-0.3,0.3-0.6,0.5-0.8    c0.2-0.2,0.5-0.4,0.8-0.5C43.2,60.2,43.5,60.1,43.9,60.1z M43.9,61c-0.4,0-0.6,0.1-0.8,0.3c-0.2,0.2-0.3,0.5-0.4,0.9H45    c0-0.2,0-0.3-0.1-0.5c0-0.1-0.1-0.3-0.2-0.4c-0.1-0.1-0.2-0.2-0.3-0.3S44.1,61,43.9,61z"/>
	<path d="M50.7,61.3c0,0-0.1,0.1-0.1,0.1c0,0-0.1,0-0.2,0c-0.1,0-0.1,0-0.2-0.1c-0.1,0-0.1-0.1-0.2-0.1c-0.1,0-0.2-0.1-0.3-0.1    c-0.1,0-0.3-0.1-0.4-0.1c-0.2,0-0.4,0-0.6,0.1c-0.2,0.1-0.3,0.2-0.4,0.3c-0.1,0.1-0.2,0.3-0.2,0.5c-0.1,0.2-0.1,0.4-0.1,0.7    c0,0.3,0,0.5,0.1,0.7c0.1,0.2,0.1,0.4,0.3,0.5c0.1,0.1,0.2,0.3,0.4,0.3c0.2,0.1,0.3,0.1,0.5,0.1c0.2,0,0.4,0,0.5-0.1    c0.1,0,0.2-0.1,0.3-0.2c0.1-0.1,0.2-0.1,0.2-0.2c0.1,0,0.1-0.1,0.2-0.1c0.1,0,0.2,0,0.2,0.1l0.4,0.5c-0.1,0.2-0.3,0.3-0.4,0.4    s-0.3,0.2-0.5,0.3c-0.2,0.1-0.3,0.1-0.5,0.1c-0.2,0-0.4,0-0.5,0c-0.3,0-0.6-0.1-0.9-0.2c-0.3-0.1-0.5-0.3-0.7-0.5    c-0.2-0.2-0.4-0.5-0.5-0.8c-0.1-0.3-0.2-0.7-0.2-1.1c0-0.4,0.1-0.7,0.2-1c0.1-0.3,0.3-0.6,0.5-0.8c0.2-0.2,0.5-0.4,0.8-0.6    c0.3-0.1,0.7-0.2,1.1-0.2c0.4,0,0.7,0.1,1,0.2c0.3,0.1,0.5,0.3,0.8,0.5L50.7,61.3z"/>
	<path d="M53.2,57.9v4.3h0.2c0.1,0,0.1,0,0.2,0s0.1-0.1,0.2-0.1l1.3-1.6c0.1-0.1,0.1-0.1,0.2-0.2s0.1-0.1,0.2-0.1h1.1L55,62.1    c-0.1,0.1-0.1,0.1-0.2,0.2c-0.1,0.1-0.1,0.1-0.2,0.2c0.1,0,0.1,0.1,0.2,0.2c0.1,0.1,0.1,0.1,0.2,0.2l1.7,2.5h-1.1    c-0.1,0-0.2,0-0.2,0c-0.1,0-0.1-0.1-0.2-0.2l-1.3-1.9c0-0.1-0.1-0.1-0.2-0.2c0,0-0.1,0-0.2,0h-0.3v2.3h-1.2v-7.4H53.2z"/>
	<path d="M59.3,60.1c0.4,0,0.7,0.1,1,0.2c0.3,0.1,0.6,0.3,0.8,0.5c0.2,0.2,0.4,0.5,0.5,0.8c0.1,0.3,0.2,0.7,0.2,1.1    c0,0.4-0.1,0.8-0.2,1.1c-0.1,0.3-0.3,0.6-0.5,0.8c-0.2,0.2-0.5,0.4-0.8,0.5c-0.3,0.1-0.7,0.2-1,0.2c-0.4,0-0.7-0.1-1-0.2    c-0.3-0.1-0.6-0.3-0.8-0.5c-0.2-0.2-0.4-0.5-0.5-0.8c-0.1-0.3-0.2-0.7-0.2-1.1c0-0.4,0.1-0.8,0.2-1.1c0.1-0.3,0.3-0.6,0.5-0.8    s0.5-0.4,0.8-0.5C58.6,60.2,58.9,60.1,59.3,60.1z M59.3,64.5c0.4,0,0.7-0.1,0.9-0.4c0.2-0.3,0.3-0.7,0.3-1.3c0-0.6-0.1-1-0.3-1.3    s-0.5-0.4-0.9-0.4c-0.4,0-0.8,0.1-1,0.4c-0.2,0.3-0.3,0.7-0.3,1.3c0,0.6,0.1,1,0.3,1.3S58.9,64.5,59.3,64.5z"/>
	<path d="M63.9,60.2v3.3c0,0.3,0.1,0.6,0.2,0.7c0.1,0.2,0.4,0.3,0.7,0.3c0.2,0,0.4,0,0.6-0.1s0.4-0.2,0.5-0.4v-3.7h1.2v5.1h-0.8    c-0.2,0-0.3-0.1-0.3-0.2L66,64.7c-0.1,0.1-0.2,0.2-0.3,0.3c-0.1,0.1-0.2,0.2-0.4,0.2c-0.1,0.1-0.3,0.1-0.4,0.1    c-0.1,0-0.3,0.1-0.5,0.1c-0.3,0-0.5,0-0.7-0.1s-0.4-0.2-0.5-0.4c-0.1-0.2-0.3-0.4-0.3-0.6s-0.1-0.5-0.1-0.8v-3.3H63.9z"/>
	<path d="M70.2,65.4c-0.4,0-0.8-0.1-1-0.4c-0.2-0.3-0.4-0.6-0.4-1v-2.9h-0.5c-0.1,0-0.1,0-0.2-0.1c0,0-0.1-0.1-0.1-0.2v-0.5l0.8-0.1    l0.3-1.4c0-0.1,0-0.1,0.1-0.2c0,0,0.1-0.1,0.2-0.1H70v1.6h1.3v0.9H70v2.8c0,0.2,0,0.3,0.1,0.4s0.2,0.1,0.3,0.1c0.1,0,0.1,0,0.2,0    c0.1,0,0.1,0,0.1-0.1s0.1,0,0.1-0.1s0.1,0,0.1,0c0,0,0.1,0,0.1,0s0,0,0.1,0.1l0.4,0.6c-0.2,0.2-0.4,0.3-0.6,0.3    C70.7,65.4,70.4,65.4,70.2,65.4z"/>
</g>
<g class="st3">
	<path class="st12" d="M42.1,92c0.1,0,0.1,0,0.1,0.1l0.4,0.4c-0.2,0.3-0.5,0.5-0.8,0.6c-0.3,0.1-0.7,0.2-1.2,0.2    c-0.4,0-0.8-0.1-1.1-0.2c-0.3-0.1-0.6-0.3-0.8-0.6c-0.2-0.3-0.4-0.6-0.5-0.9c-0.1-0.4-0.2-0.7-0.2-1.1c0-0.4,0.1-0.8,0.2-1.2    c0.1-0.3,0.3-0.7,0.6-0.9c0.3-0.3,0.6-0.4,0.9-0.6c0.4-0.1,0.7-0.2,1.2-0.2c0.4,0,0.8,0.1,1.1,0.2c0.3,0.1,0.6,0.3,0.8,0.5    l-0.3,0.5c0,0,0,0.1-0.1,0.1c0,0-0.1,0-0.1,0c-0.1,0-0.1,0-0.2-0.1c-0.1,0-0.1-0.1-0.2-0.2c-0.1-0.1-0.2-0.1-0.4-0.2    c-0.1,0-0.3-0.1-0.6-0.1c-0.3,0-0.5,0-0.7,0.1c-0.2,0.1-0.4,0.2-0.6,0.4c-0.2,0.2-0.3,0.4-0.4,0.6S39,90.2,39,90.5    c0,0.3,0,0.6,0.1,0.8c0.1,0.2,0.2,0.5,0.4,0.6c0.2,0.2,0.3,0.3,0.5,0.4c0.2,0.1,0.4,0.1,0.7,0.1c0.1,0,0.3,0,0.4,0    c0.1,0,0.2,0,0.3-0.1s0.2-0.1,0.3-0.1c0.1-0.1,0.2-0.1,0.3-0.2C42,92.1,42,92,42.1,92C42,92,42.1,92,42.1,92z"/>
	<path class="st12" d="M43.4,93.3v-4H44c0.1,0,0.2,0,0.2,0.1c0,0,0.1,0.1,0.1,0.2l0.1,0.5c0.1-0.2,0.3-0.4,0.5-0.6    c0.2-0.1,0.4-0.2,0.6-0.2c0.2,0,0.4,0,0.5,0.1l-0.1,0.7c0,0,0,0.1,0,0.1c0,0-0.1,0-0.1,0c0,0-0.1,0-0.2,0c-0.1,0-0.2,0-0.3,0    c-0.2,0-0.4,0.1-0.5,0.2c-0.1,0.1-0.3,0.3-0.4,0.5v2.5H43.4z"/>
	<path class="st12" d="M48.2,89.3c0.2,0,0.5,0,0.7,0.1c0.2,0.1,0.4,0.2,0.5,0.3c0.2,0.2,0.3,0.3,0.4,0.6c0.1,0.2,0.1,0.5,0.1,0.8    c0,0.1,0,0.1,0,0.2c0,0,0,0.1,0,0.1c0,0,0,0-0.1,0.1s-0.1,0-0.1,0h-2.5c0,0.4,0.1,0.7,0.3,0.9c0.2,0.2,0.4,0.3,0.8,0.3    c0.2,0,0.3,0,0.4-0.1s0.2-0.1,0.3-0.1c0.1,0,0.2-0.1,0.2-0.1s0.1-0.1,0.2-0.1c0,0,0.1,0,0.1,0s0.1,0,0.1,0.1l0.3,0.3    c-0.1,0.1-0.2,0.2-0.4,0.3s-0.3,0.2-0.4,0.2c-0.1,0-0.3,0.1-0.4,0.1c-0.1,0-0.3,0-0.4,0c-0.3,0-0.5,0-0.8-0.1    c-0.2-0.1-0.4-0.2-0.6-0.4c-0.2-0.2-0.3-0.4-0.4-0.7c-0.1-0.3-0.2-0.6-0.2-0.9c0-0.3,0-0.5,0.1-0.8c0.1-0.2,0.2-0.4,0.4-0.6    c0.2-0.2,0.4-0.3,0.6-0.4C47.6,89.3,47.9,89.3,48.2,89.3z M48.2,90c-0.3,0-0.5,0.1-0.7,0.2s-0.3,0.4-0.3,0.7h1.8    c0-0.1,0-0.2-0.1-0.3c0-0.1-0.1-0.2-0.2-0.3c-0.1-0.1-0.2-0.1-0.3-0.2C48.5,90,48.4,90,48.2,90z"/>
	<path class="st12" d="M53.5,93.3c-0.1,0-0.2-0.1-0.2-0.2l-0.1-0.4c-0.1,0.1-0.2,0.2-0.3,0.3c-0.1,0.1-0.2,0.1-0.3,0.2    c-0.1,0.1-0.2,0.1-0.3,0.1c-0.1,0-0.2,0-0.4,0c-0.2,0-0.4,0-0.6-0.1c-0.2-0.1-0.3-0.2-0.5-0.4c-0.1-0.2-0.2-0.4-0.3-0.6    c-0.1-0.3-0.1-0.5-0.1-0.9c0-0.3,0-0.6,0.1-0.8s0.2-0.5,0.3-0.7c0.1-0.2,0.3-0.3,0.5-0.4s0.4-0.2,0.7-0.2c0.2,0,0.4,0,0.6,0.1    c0.2,0.1,0.3,0.2,0.4,0.3v-2.1h1v5.7H53.5z M52.2,92.6c0.2,0,0.4,0,0.5-0.1c0.1-0.1,0.3-0.2,0.4-0.4v-1.8c-0.1-0.1-0.2-0.2-0.4-0.3    C52.6,90,52.5,90,52.4,90c-0.1,0-0.3,0-0.4,0.1c-0.1,0.1-0.2,0.1-0.3,0.2c-0.1,0.1-0.1,0.2-0.2,0.4s-0.1,0.4-0.1,0.6    c0,0.2,0,0.4,0.1,0.6c0,0.2,0.1,0.3,0.2,0.4s0.2,0.2,0.3,0.2C52,92.6,52.1,92.6,52.2,92.6z"/>
	<path class="st12" d="M56.3,88.2c0,0.1,0,0.2-0.1,0.2s-0.1,0.1-0.1,0.2c-0.1,0.1-0.1,0.1-0.2,0.1c-0.1,0-0.2,0-0.2,0    c-0.1,0-0.2,0-0.2,0s-0.1-0.1-0.2-0.1c-0.1-0.1-0.1-0.1-0.1-0.2s0-0.1,0-0.2c0-0.1,0-0.2,0-0.2c0-0.1,0.1-0.1,0.1-0.2    c0.1-0.1,0.1-0.1,0.2-0.1s0.2,0,0.2,0c0.1,0,0.2,0,0.2,0c0.1,0,0.1,0.1,0.2,0.1c0.1,0.1,0.1,0.1,0.1,0.2    C56.2,88,56.3,88.1,56.3,88.2z M56.1,89.4v4h-1v-4H56.1z"/>
	<path class="st12" d="M58.5,93.4c-0.3,0-0.6-0.1-0.8-0.3c-0.2-0.2-0.3-0.5-0.3-0.8v-2.2H57c-0.1,0-0.1,0-0.1,0s-0.1-0.1-0.1-0.2    v-0.4l0.6-0.1l0.2-1.1c0-0.1,0-0.1,0.1-0.1c0,0,0.1,0,0.1,0h0.5v1.2h1v0.7h-1v2.2c0,0.1,0,0.2,0.1,0.3c0.1,0.1,0.1,0.1,0.2,0.1    c0.1,0,0.1,0,0.1,0c0,0,0.1,0,0.1,0c0,0,0.1,0,0.1,0c0,0,0,0,0.1,0c0,0,0.1,0,0.1,0c0,0,0,0,0.1,0.1l0.3,0.5    c-0.1,0.1-0.3,0.2-0.5,0.3C58.9,93.4,58.7,93.4,58.5,93.4z"/>
	<path class="st12" d="M60.5,93.3c0,0.1-0.1,0.1-0.1,0.2s-0.1,0.1-0.1,0.1c0,0-0.1,0.1-0.1,0.1c-0.1,0-0.1,0-0.2,0h-0.4l2.3-5.8    c0-0.1,0.1-0.2,0.2-0.2c0.1-0.1,0.2-0.1,0.3-0.1h0.4L60.5,93.3z"/>
	<path class="st12" d="M68.2,90.5c0,0.4-0.1,0.8-0.2,1.1c-0.1,0.3-0.3,0.6-0.6,0.9c-0.2,0.2-0.5,0.4-0.9,0.6    c-0.3,0.1-0.7,0.2-1.2,0.2h-2.1v-5.6h2.1c0.4,0,0.8,0.1,1.2,0.2c0.3,0.1,0.6,0.3,0.9,0.6c0.2,0.2,0.4,0.5,0.6,0.9    S68.2,90.1,68.2,90.5z M67.1,90.5c0-0.3,0-0.6-0.1-0.8c-0.1-0.2-0.2-0.5-0.4-0.6s-0.3-0.3-0.6-0.4c-0.2-0.1-0.5-0.1-0.7-0.1h-1.1    v3.9h1.1c0.3,0,0.5,0,0.7-0.1c0.2-0.1,0.4-0.2,0.6-0.4c0.2-0.2,0.3-0.4,0.4-0.6C67.1,91.1,67.1,90.8,67.1,90.5z"/>
	<path class="st12" d="M70.6,89.3c0.2,0,0.5,0,0.7,0.1c0.2,0.1,0.4,0.2,0.5,0.3c0.2,0.2,0.3,0.3,0.4,0.6c0.1,0.2,0.1,0.5,0.1,0.8    c0,0.1,0,0.1,0,0.2c0,0,0,0.1,0,0.1c0,0,0,0-0.1,0.1s-0.1,0-0.1,0h-2.5c0,0.4,0.1,0.7,0.3,0.9c0.2,0.2,0.4,0.3,0.8,0.3    c0.2,0,0.3,0,0.4-0.1s0.2-0.1,0.3-0.1c0.1,0,0.2-0.1,0.2-0.1s0.1-0.1,0.2-0.1c0,0,0.1,0,0.1,0s0.1,0,0.1,0.1l0.3,0.3    c-0.1,0.1-0.2,0.2-0.4,0.3s-0.3,0.2-0.4,0.2c-0.1,0-0.3,0.1-0.4,0.1c-0.1,0-0.3,0-0.4,0c-0.3,0-0.5,0-0.8-0.1    c-0.2-0.1-0.4-0.2-0.6-0.4c-0.2-0.2-0.3-0.4-0.4-0.7c-0.1-0.3-0.2-0.6-0.2-0.9c0-0.3,0-0.5,0.1-0.8c0.1-0.2,0.2-0.4,0.4-0.6    c0.2-0.2,0.4-0.3,0.6-0.4C70.1,89.3,70.3,89.3,70.6,89.3z M70.6,90c-0.3,0-0.5,0.1-0.7,0.2s-0.3,0.4-0.3,0.7h1.8    c0-0.1,0-0.2-0.1-0.3c0-0.1-0.1-0.2-0.2-0.3c-0.1-0.1-0.2-0.1-0.3-0.2C70.9,90,70.8,90,70.6,90z"/>
	<path class="st12" d="M73.1,93.3v-5.7h1v2.3c0.2-0.2,0.3-0.3,0.5-0.4c0.2-0.1,0.4-0.1,0.7-0.1c0.2,0,0.4,0,0.6,0.1    c0.2,0.1,0.3,0.2,0.5,0.4c0.1,0.2,0.2,0.4,0.3,0.6c0.1,0.2,0.1,0.5,0.1,0.9c0,0.3,0,0.6-0.1,0.8s-0.2,0.5-0.3,0.7s-0.3,0.3-0.5,0.4    s-0.4,0.2-0.7,0.2c-0.1,0-0.2,0-0.3,0s-0.2-0.1-0.3-0.1c-0.1,0-0.2-0.1-0.2-0.2C74.2,93,74.1,93,74,92.9l0,0.3c0,0.1,0,0.1-0.1,0.1    c0,0-0.1,0-0.2,0H73.1z M75,90c-0.2,0-0.4,0-0.5,0.1c-0.1,0.1-0.3,0.2-0.4,0.4v1.8c0.1,0.1,0.2,0.2,0.4,0.3    c0.1,0.1,0.3,0.1,0.4,0.1c0.1,0,0.3,0,0.4-0.1c0.1-0.1,0.2-0.1,0.3-0.2c0.1-0.1,0.1-0.3,0.2-0.4s0.1-0.4,0.1-0.6    c0-0.2,0-0.4-0.1-0.6c0-0.2-0.1-0.3-0.2-0.4s-0.2-0.2-0.3-0.2C75.2,90.1,75.1,90,75,90z"/>
	<path class="st12" d="M78.7,88.2c0,0.1,0,0.2,0,0.2c0,0.1-0.1,0.1-0.1,0.2c-0.1,0.1-0.1,0.1-0.2,0.1c-0.1,0-0.2,0-0.2,0    c-0.1,0-0.2,0-0.2,0c-0.1,0-0.1-0.1-0.2-0.1c-0.1-0.1-0.1-0.1-0.1-0.2s0-0.1,0-0.2c0-0.1,0-0.2,0-0.2c0-0.1,0.1-0.1,0.1-0.2    c0.1-0.1,0.1-0.1,0.2-0.1c0.1,0,0.2,0,0.2,0c0.1,0,0.2,0,0.2,0c0.1,0,0.1,0.1,0.2,0.1c0.1,0.1,0.1,0.1,0.1,0.2    C78.7,88,78.7,88.1,78.7,88.2z M78.5,89.4v4h-1v-4H78.5z"/>
	<path class="st12" d="M80.9,93.4c-0.3,0-0.6-0.1-0.8-0.3c-0.2-0.2-0.3-0.5-0.3-0.8v-2.2h-0.4c-0.1,0-0.1,0-0.1,0    c0,0-0.1-0.1-0.1-0.2v-0.4l0.6-0.1l0.2-1.1c0-0.1,0-0.1,0.1-0.1s0.1,0,0.1,0h0.5v1.2h1v0.7h-1v2.2c0,0.1,0,0.2,0.1,0.3    s0.1,0.1,0.2,0.1c0.1,0,0.1,0,0.1,0c0,0,0.1,0,0.1,0s0.1,0,0.1,0c0,0,0,0,0.1,0c0,0,0.1,0,0.1,0c0,0,0,0,0.1,0.1L82,93    c-0.1,0.1-0.3,0.2-0.5,0.3C81.3,93.4,81.1,93.4,80.9,93.4z"/>
	<path class="st12" d="M88,92c0.1,0,0.1,0,0.1,0.1l0.4,0.4c-0.2,0.3-0.5,0.5-0.8,0.6c-0.3,0.1-0.7,0.2-1.2,0.2    c-0.4,0-0.8-0.1-1.1-0.2c-0.3-0.1-0.6-0.3-0.8-0.6c-0.2-0.3-0.4-0.6-0.5-0.9c-0.1-0.4-0.2-0.7-0.2-1.1c0-0.4,0.1-0.8,0.2-1.2    c0.1-0.3,0.3-0.7,0.6-0.9c0.3-0.3,0.6-0.4,0.9-0.6c0.4-0.1,0.7-0.2,1.2-0.2c0.4,0,0.8,0.1,1.1,0.2s0.6,0.3,0.8,0.5l-0.3,0.5    c0,0,0,0.1-0.1,0.1c0,0-0.1,0-0.1,0c-0.1,0-0.1,0-0.2-0.1c-0.1,0-0.1-0.1-0.2-0.2c-0.1-0.1-0.2-0.1-0.4-0.2c-0.1,0-0.3-0.1-0.6-0.1    c-0.3,0-0.5,0-0.7,0.1s-0.4,0.2-0.6,0.4c-0.2,0.2-0.3,0.4-0.4,0.6c-0.1,0.2-0.1,0.5-0.1,0.8c0,0.3,0,0.6,0.1,0.8    c0.1,0.2,0.2,0.5,0.4,0.6c0.2,0.2,0.3,0.3,0.5,0.4c0.2,0.1,0.4,0.1,0.7,0.1c0.1,0,0.3,0,0.4,0c0.1,0,0.2,0,0.3-0.1s0.2-0.1,0.3-0.1    c0.1-0.1,0.2-0.1,0.3-0.2C87.9,92.1,87.9,92,88,92C87.9,92,88,92,88,92z"/>
	<path class="st12" d="M92.4,93.3H92c-0.1,0-0.2,0-0.2,0c-0.1,0-0.1-0.1-0.1-0.2l-0.1-0.3c-0.1,0.1-0.2,0.2-0.3,0.2    c-0.1,0.1-0.2,0.1-0.3,0.2c-0.1,0-0.2,0.1-0.3,0.1c-0.1,0-0.2,0-0.4,0c-0.2,0-0.3,0-0.5-0.1s-0.3-0.1-0.4-0.2s-0.2-0.2-0.2-0.3    c-0.1-0.1-0.1-0.3-0.1-0.5c0-0.1,0-0.3,0.1-0.4c0.1-0.1,0.2-0.3,0.4-0.4s0.4-0.2,0.7-0.3c0.3-0.1,0.7-0.1,1.1-0.1v-0.2    c0-0.3-0.1-0.5-0.2-0.6C91.2,90.1,91,90,90.8,90c-0.2,0-0.3,0-0.4,0.1c-0.1,0-0.2,0.1-0.3,0.1c-0.1,0-0.1,0.1-0.2,0.1    s-0.1,0.1-0.2,0.1c-0.1,0-0.1,0-0.2,0c0,0-0.1-0.1-0.1-0.1l-0.2-0.3c0.5-0.4,1-0.6,1.7-0.6c0.2,0,0.4,0,0.6,0.1    c0.2,0.1,0.3,0.2,0.5,0.3s0.2,0.3,0.3,0.5s0.1,0.4,0.1,0.6V93.3z M90.5,92.7c0.1,0,0.2,0,0.3,0c0.1,0,0.2,0,0.2-0.1    c0.1,0,0.1-0.1,0.2-0.1c0.1-0.1,0.1-0.1,0.2-0.2v-0.7c-0.3,0-0.5,0-0.7,0.1c-0.2,0-0.3,0.1-0.5,0.1s-0.2,0.1-0.2,0.2    c0,0.1-0.1,0.2-0.1,0.2c0,0.2,0,0.3,0.1,0.4C90.3,92.7,90.4,92.7,90.5,92.7z"/>
	<path class="st12" d="M93.3,93.3v-4h0.6c0.1,0,0.2,0,0.2,0.1s0.1,0.1,0.1,0.2l0.1,0.5c0.1-0.2,0.3-0.4,0.5-0.6    c0.2-0.1,0.4-0.2,0.6-0.2c0.2,0,0.4,0,0.5,0.1l-0.1,0.7c0,0,0,0.1-0.1,0.1c0,0-0.1,0-0.1,0c0,0-0.1,0-0.2,0c-0.1,0-0.2,0-0.3,0    c-0.2,0-0.4,0.1-0.5,0.2c-0.1,0.1-0.3,0.3-0.4,0.5v2.5H93.3z"/>
	<path class="st12" d="M99.3,93.3c-0.1,0-0.2-0.1-0.2-0.2L99,92.8c-0.1,0.1-0.2,0.2-0.3,0.3c-0.1,0.1-0.2,0.1-0.3,0.2    c-0.1,0.1-0.2,0.1-0.3,0.1c-0.1,0-0.2,0-0.4,0c-0.2,0-0.4,0-0.6-0.1c-0.2-0.1-0.3-0.2-0.5-0.4c-0.1-0.2-0.2-0.4-0.3-0.6    c-0.1-0.3-0.1-0.5-0.1-0.9c0-0.3,0-0.6,0.1-0.8s0.2-0.5,0.3-0.7c0.1-0.2,0.3-0.3,0.5-0.4s0.4-0.2,0.7-0.2c0.2,0,0.4,0,0.6,0.1    c0.2,0.1,0.3,0.2,0.4,0.3v-2.1h1v5.7H99.3z M98,92.6c0.2,0,0.4,0,0.5-0.1c0.1-0.1,0.3-0.2,0.4-0.4v-1.8c-0.1-0.1-0.2-0.2-0.4-0.3    C98.4,90,98.3,90,98.2,90c-0.1,0-0.3,0-0.4,0.1c-0.1,0.1-0.2,0.1-0.3,0.2c-0.1,0.1-0.1,0.2-0.2,0.4s-0.1,0.4-0.1,0.6    c0,0.2,0,0.4,0.1,0.6c0,0.2,0.1,0.3,0.2,0.4s0.2,0.2,0.3,0.2C97.8,92.6,97.9,92.6,98,92.6z"/>
</g>
<g class="st3">
	<path class="st12" d="M38.3,121.3v-5.6h1.9c0.4,0,0.7,0,0.9,0.1c0.3,0.1,0.5,0.2,0.6,0.3c0.2,0.1,0.3,0.3,0.4,0.5    c0.1,0.2,0.1,0.4,0.1,0.6c0,0.1,0,0.3-0.1,0.4c0,0.1-0.1,0.2-0.2,0.3s-0.2,0.2-0.3,0.3s-0.3,0.2-0.4,0.2c0.8,0.2,1.2,0.6,1.2,1.2    c0,0.2,0,0.5-0.1,0.7c-0.1,0.2-0.2,0.4-0.4,0.5c-0.2,0.1-0.4,0.3-0.6,0.3c-0.3,0.1-0.5,0.1-0.9,0.1H38.3z M39.3,118.2h0.8    c0.4,0,0.6-0.1,0.8-0.2c0.2-0.1,0.3-0.3,0.3-0.6c0-0.3-0.1-0.5-0.2-0.6s-0.4-0.2-0.8-0.2h-0.9V118.2z M39.3,118.9v1.6h1.1    c0.2,0,0.4,0,0.5-0.1c0.1,0,0.2-0.1,0.3-0.2c0.1-0.1,0.1-0.2,0.2-0.3c0-0.1,0.1-0.2,0.1-0.3c0-0.1,0-0.2-0.1-0.3    c0-0.1-0.1-0.2-0.2-0.2c-0.1-0.1-0.2-0.1-0.3-0.2s-0.3-0.1-0.5-0.1H39.3z"/>
	<path class="st12" d="M46.4,121.3h-0.4c-0.1,0-0.2,0-0.2,0c-0.1,0-0.1-0.1-0.1-0.2l-0.1-0.3c-0.1,0.1-0.2,0.2-0.3,0.2    c-0.1,0.1-0.2,0.1-0.3,0.2c-0.1,0-0.2,0.1-0.3,0.1c-0.1,0-0.2,0-0.4,0c-0.2,0-0.3,0-0.5-0.1c-0.1,0-0.3-0.1-0.4-0.2    c-0.1-0.1-0.2-0.2-0.2-0.3c-0.1-0.1-0.1-0.3-0.1-0.5c0-0.1,0-0.3,0.1-0.4c0.1-0.1,0.2-0.3,0.4-0.4c0.2-0.1,0.4-0.2,0.7-0.3    c0.3-0.1,0.7-0.1,1.1-0.1v-0.2c0-0.3-0.1-0.5-0.2-0.6c-0.1-0.1-0.3-0.2-0.5-0.2c-0.2,0-0.3,0-0.4,0.1c-0.1,0-0.2,0.1-0.3,0.1    s-0.1,0.1-0.2,0.1s-0.1,0.1-0.2,0.1c-0.1,0-0.1,0-0.2,0c0,0-0.1-0.1-0.1-0.1l-0.2-0.3c0.5-0.4,1-0.6,1.7-0.6c0.2,0,0.4,0,0.6,0.1    s0.3,0.2,0.5,0.3c0.1,0.1,0.2,0.3,0.3,0.5c0.1,0.2,0.1,0.4,0.1,0.6V121.3z M44.5,120.7c0.1,0,0.2,0,0.3,0c0.1,0,0.2,0,0.2-0.1    c0.1,0,0.1-0.1,0.2-0.1c0.1-0.1,0.1-0.1,0.2-0.2v-0.7c-0.3,0-0.5,0-0.7,0.1c-0.2,0-0.3,0.1-0.5,0.1c-0.1,0.1-0.2,0.1-0.2,0.2    c0,0.1-0.1,0.2-0.1,0.2c0,0.2,0,0.3,0.1,0.4C44.2,120.7,44.3,120.7,44.5,120.7z"/>
	<path class="st12" d="M47.3,121.3v-4h0.6c0.1,0,0.2,0.1,0.2,0.2l0.1,0.3c0.1-0.1,0.2-0.2,0.3-0.2s0.2-0.1,0.3-0.2s0.2-0.1,0.3-0.1    c0.1,0,0.2,0,0.4,0c0.2,0,0.4,0,0.6,0.1c0.2,0.1,0.3,0.2,0.4,0.3s0.2,0.3,0.3,0.5c0.1,0.2,0.1,0.4,0.1,0.6v2.5h-1v-2.5    c0-0.2-0.1-0.4-0.2-0.6s-0.3-0.2-0.5-0.2c-0.2,0-0.3,0-0.5,0.1c-0.1,0.1-0.3,0.2-0.4,0.3v2.9H47.3z"/>
	<path class="st12" d="M52.7,115.6v3.3h0.2c0.1,0,0.1,0,0.2,0c0,0,0.1-0.1,0.1-0.1l1-1.2c0-0.1,0.1-0.1,0.1-0.1c0,0,0.1,0,0.2,0h0.9    l-1.2,1.5c0,0.1-0.1,0.1-0.1,0.1c0,0-0.1,0.1-0.2,0.1c0.1,0,0.1,0.1,0.1,0.1c0,0.1,0.1,0.1,0.1,0.2l1.3,1.9h-0.9    c-0.1,0-0.1,0-0.2,0c-0.1,0-0.1-0.1-0.1-0.1l-1-1.5c0-0.1-0.1-0.1-0.1-0.1c0,0-0.1,0-0.2,0h-0.2v1.8h-1v-5.7H52.7z"/>
	<path class="st12" d="M61.5,115.7v0.9h-1.7v4.7h-1v-4.7H57v-0.9H61.5z"/>
	<path class="st12" d="M61.4,121.3v-4H62c0.1,0,0.2,0,0.2,0.1c0,0,0.1,0.1,0.1,0.2l0.1,0.5c0.1-0.2,0.3-0.4,0.5-0.6    c0.2-0.1,0.4-0.2,0.6-0.2c0.2,0,0.4,0,0.5,0.1l-0.1,0.7c0,0,0,0.1,0,0.1c0,0-0.1,0-0.1,0c0,0-0.1,0-0.2,0c-0.1,0-0.2,0-0.3,0    c-0.2,0-0.4,0.1-0.5,0.2c-0.1,0.1-0.3,0.3-0.4,0.5v2.5H61.4z"/>
	<path class="st12" d="M67.6,121.3h-0.4c-0.1,0-0.2,0-0.2,0c-0.1,0-0.1-0.1-0.1-0.2l-0.1-0.3c-0.1,0.1-0.2,0.2-0.3,0.2    c-0.1,0.1-0.2,0.1-0.3,0.2c-0.1,0-0.2,0.1-0.3,0.1c-0.1,0-0.2,0-0.4,0c-0.2,0-0.3,0-0.5-0.1c-0.1,0-0.3-0.1-0.4-0.2    c-0.1-0.1-0.2-0.2-0.2-0.3c-0.1-0.1-0.1-0.3-0.1-0.5c0-0.1,0-0.3,0.1-0.4c0.1-0.1,0.2-0.3,0.4-0.4c0.2-0.1,0.4-0.2,0.7-0.3    c0.3-0.1,0.7-0.1,1.1-0.1v-0.2c0-0.3-0.1-0.5-0.2-0.6c-0.1-0.1-0.3-0.2-0.5-0.2c-0.2,0-0.3,0-0.4,0.1c-0.1,0-0.2,0.1-0.3,0.1    s-0.1,0.1-0.2,0.1s-0.1,0.1-0.2,0.1c-0.1,0-0.1,0-0.2,0c0,0-0.1-0.1-0.1-0.1l-0.2-0.3c0.5-0.4,1-0.6,1.7-0.6c0.2,0,0.4,0,0.6,0.1    s0.3,0.2,0.5,0.3c0.1,0.1,0.2,0.3,0.3,0.5c0.1,0.2,0.1,0.4,0.1,0.6V121.3z M65.7,120.7c0.1,0,0.2,0,0.3,0c0.1,0,0.2,0,0.2-0.1    c0.1,0,0.1-0.1,0.2-0.1c0.1-0.1,0.1-0.1,0.2-0.2v-0.7c-0.3,0-0.5,0-0.7,0.1c-0.2,0-0.3,0.1-0.5,0.1c-0.1,0.1-0.2,0.1-0.2,0.2    c0,0.1-0.1,0.2-0.1,0.2c0,0.2,0,0.3,0.1,0.4C65.5,120.7,65.6,120.7,65.7,120.7z"/>
	<path class="st12" d="M68.5,121.3v-4h0.6c0.1,0,0.2,0.1,0.2,0.2l0.1,0.3c0.1-0.1,0.2-0.2,0.3-0.2s0.2-0.1,0.3-0.2    c0.1,0,0.2-0.1,0.3-0.1c0.1,0,0.2,0,0.4,0c0.2,0,0.4,0,0.6,0.1c0.2,0.1,0.3,0.2,0.4,0.3c0.1,0.1,0.2,0.3,0.3,0.5s0.1,0.4,0.1,0.6    v2.5h-1v-2.5c0-0.2-0.1-0.4-0.2-0.6c-0.1-0.1-0.3-0.2-0.5-0.2c-0.2,0-0.3,0-0.5,0.1c-0.1,0.1-0.3,0.2-0.4,0.3v2.9H68.5z"/>
	<path class="st12" d="M75.3,118.1C75.3,118.2,75.2,118.2,75.3,118.1c-0.1,0.1-0.1,0.1-0.2,0.1c0,0-0.1,0-0.1,0    c-0.1,0-0.1-0.1-0.2-0.1c-0.1,0-0.1-0.1-0.2-0.1c-0.1,0-0.2,0-0.3,0c-0.2,0-0.3,0-0.4,0.1s-0.2,0.2-0.2,0.3c0,0.1,0,0.2,0.1,0.2    c0.1,0.1,0.1,0.1,0.2,0.2s0.2,0.1,0.3,0.1s0.2,0.1,0.4,0.1s0.2,0.1,0.4,0.1c0.1,0.1,0.2,0.1,0.3,0.2c0.1,0.1,0.2,0.2,0.2,0.3    c0.1,0.1,0.1,0.2,0.1,0.4c0,0.2,0,0.4-0.1,0.5c-0.1,0.2-0.2,0.3-0.3,0.4c-0.1,0.1-0.3,0.2-0.5,0.3c-0.2,0.1-0.4,0.1-0.7,0.1    c-0.1,0-0.3,0-0.4,0c-0.1,0-0.3-0.1-0.4-0.1s-0.2-0.1-0.3-0.2c-0.1-0.1-0.2-0.1-0.3-0.2l0.2-0.4c0,0,0.1-0.1,0.1-0.1s0.1,0,0.1,0    c0.1,0,0.1,0,0.2,0.1c0.1,0,0.1,0.1,0.2,0.1c0.1,0,0.2,0.1,0.2,0.1c0.1,0,0.2,0,0.4,0c0.1,0,0.2,0,0.3,0c0.1,0,0.1-0.1,0.2-0.1    c0.1,0,0.1-0.1,0.1-0.2s0-0.1,0-0.2c0-0.1,0-0.2-0.1-0.2c-0.1-0.1-0.1-0.1-0.2-0.2c-0.1,0-0.2-0.1-0.3-0.1c-0.1,0-0.2-0.1-0.4-0.1    c-0.1,0-0.2-0.1-0.4-0.1c-0.1-0.1-0.2-0.1-0.3-0.2c-0.1-0.1-0.2-0.2-0.2-0.3c-0.1-0.1-0.1-0.3-0.1-0.4c0-0.2,0-0.3,0.1-0.5    c0.1-0.1,0.2-0.3,0.3-0.4c0.1-0.1,0.3-0.2,0.5-0.3c0.2-0.1,0.4-0.1,0.6-0.1c0.3,0,0.5,0,0.7,0.1c0.2,0.1,0.4,0.2,0.6,0.4    L75.3,118.1z"/>
	<path class="st12" d="M76.5,121.3v-3.2l-0.3-0.1c-0.1,0-0.1,0-0.2-0.1c0,0-0.1-0.1-0.1-0.2v-0.4h0.6v-0.3c0-0.2,0-0.4,0.1-0.6    s0.2-0.3,0.3-0.5c0.1-0.1,0.3-0.2,0.5-0.3c0.2-0.1,0.4-0.1,0.6-0.1c0.2,0,0.4,0,0.5,0.1l0,0.5c0,0.1,0,0.1-0.1,0.1    c-0.1,0-0.1,0-0.2,0c-0.1,0-0.2,0-0.3,0c-0.1,0-0.2,0.1-0.2,0.1c-0.1,0.1-0.1,0.1-0.1,0.2c0,0.1,0,0.2,0,0.4v0.3h1v0.7h-1v3.3H76.5    z"/>
	<path class="st12" d="M80.7,117.3c0.2,0,0.5,0,0.7,0.1c0.2,0.1,0.4,0.2,0.5,0.3c0.2,0.2,0.3,0.3,0.4,0.6c0.1,0.2,0.1,0.5,0.1,0.8    c0,0.1,0,0.1,0,0.2c0,0,0,0.1,0,0.1c0,0,0,0-0.1,0.1s-0.1,0-0.1,0h-2.5c0,0.4,0.1,0.7,0.3,0.9c0.2,0.2,0.4,0.3,0.8,0.3    c0.2,0,0.3,0,0.4-0.1s0.2-0.1,0.3-0.1c0.1,0,0.2-0.1,0.2-0.1s0.1-0.1,0.2-0.1c0,0,0.1,0,0.1,0s0.1,0,0.1,0.1l0.3,0.3    c-0.1,0.1-0.2,0.2-0.4,0.3s-0.3,0.2-0.4,0.2c-0.1,0-0.3,0.1-0.4,0.1c-0.1,0-0.3,0-0.4,0c-0.3,0-0.5,0-0.8-0.1    c-0.2-0.1-0.4-0.2-0.6-0.4c-0.2-0.2-0.3-0.4-0.4-0.7c-0.1-0.3-0.2-0.6-0.2-0.9c0-0.3,0-0.5,0.1-0.8c0.1-0.2,0.2-0.4,0.4-0.6    c0.2-0.2,0.4-0.3,0.6-0.4C80.1,117.3,80.4,117.3,80.7,117.3z M80.7,118c-0.3,0-0.5,0.1-0.7,0.2s-0.3,0.4-0.3,0.7h1.8    c0-0.1,0-0.2-0.1-0.3c0-0.1-0.1-0.2-0.2-0.3c-0.1-0.1-0.2-0.1-0.3-0.2C81,118,80.8,118,80.7,118z"/>
	<path class="st12" d="M83.2,121.3v-4h0.6c0.1,0,0.2,0,0.2,0.1s0.1,0.1,0.1,0.2l0.1,0.5c0.1-0.2,0.3-0.4,0.5-0.6    c0.2-0.1,0.4-0.2,0.6-0.2c0.2,0,0.4,0,0.5,0.1l-0.1,0.7c0,0,0,0.1-0.1,0.1c0,0-0.1,0-0.1,0c0,0-0.1,0-0.2,0c-0.1,0-0.2,0-0.3,0    c-0.2,0-0.4,0.1-0.5,0.2c-0.1,0.1-0.3,0.3-0.4,0.5v2.5H83.2z"/>
</g>
<g class="st3">
	<path class="st12" d="M43.6,145.3c0,0.2,0,0.5-0.1,0.7c-0.1,0.2-0.1,0.4-0.2,0.6c-0.1,0.2-0.2,0.4-0.4,0.5    c-0.1,0.2-0.3,0.3-0.5,0.4l1.4,1.5h-0.9c-0.1,0-0.2,0-0.3-0.1s-0.2-0.1-0.3-0.2l-0.8-0.9c-0.1,0-0.3,0.1-0.4,0.1s-0.3,0-0.4,0    c-0.4,0-0.8-0.1-1.2-0.2s-0.6-0.3-0.9-0.6s-0.4-0.6-0.6-0.9c-0.1-0.3-0.2-0.7-0.2-1.1s0.1-0.8,0.2-1.1s0.3-0.7,0.6-0.9    c0.2-0.3,0.5-0.5,0.9-0.6c0.3-0.1,0.7-0.2,1.2-0.2s0.8,0.1,1.2,0.2c0.3,0.1,0.6,0.3,0.9,0.6c0.2,0.3,0.4,0.6,0.6,0.9    S43.6,144.9,43.6,145.3z M42.6,145.3c0-0.3,0-0.6-0.1-0.8c-0.1-0.2-0.2-0.4-0.4-0.6c-0.2-0.2-0.3-0.3-0.6-0.4    c-0.2-0.1-0.5-0.1-0.7-0.1s-0.5,0-0.7,0.1c-0.2,0.1-0.4,0.2-0.6,0.4c-0.2,0.2-0.3,0.4-0.4,0.6c-0.1,0.2-0.1,0.5-0.1,0.8    s0,0.6,0.1,0.8c0.1,0.2,0.2,0.5,0.4,0.6s0.3,0.3,0.6,0.4c0.2,0.1,0.5,0.1,0.7,0.1s0.5,0,0.7-0.1s0.4-0.2,0.6-0.4    c0.2-0.2,0.3-0.4,0.4-0.6S42.6,145.6,42.6,145.3z"/>
	<path class="st12" d="M45.5,145.9v2.2h-1v-5.6h1.7c0.4,0,0.7,0,1,0.1c0.3,0.1,0.5,0.2,0.7,0.3s0.3,0.3,0.4,0.5s0.1,0.4,0.1,0.7    c0,0.2,0,0.4-0.1,0.5c-0.1,0.2-0.1,0.3-0.2,0.5s-0.2,0.3-0.4,0.4c-0.2,0.1-0.3,0.2-0.5,0.2c0.1,0.1,0.2,0.2,0.3,0.3l1.4,2.1h-0.9    c-0.1,0-0.2,0-0.2-0.1c-0.1,0-0.1-0.1-0.2-0.2l-1.2-1.8c0-0.1-0.1-0.1-0.1-0.1c-0.1,0-0.1,0-0.2,0H45.5z M45.5,145.2h0.6    c0.2,0,0.4,0,0.5-0.1s0.3-0.1,0.4-0.2c0.1-0.1,0.2-0.2,0.2-0.3c0-0.1,0.1-0.2,0.1-0.4c0-0.3-0.1-0.5-0.3-0.7    c-0.2-0.2-0.5-0.2-0.9-0.2h-0.7V145.2z"/>
	<path class="st12" d="M53.7,145C53.7,145,53.7,145.1,53.7,145c-0.1,0.1-0.1,0.1-0.2,0.1c0,0-0.1,0-0.1,0c0,0-0.1-0.1-0.2-0.1    s-0.1-0.1-0.2-0.1c-0.1,0-0.2,0-0.3,0c-0.2,0-0.3,0-0.4,0.1s-0.2,0.1-0.3,0.3s-0.1,0.2-0.2,0.4c0,0.2-0.1,0.3-0.1,0.5    c0,0.2,0,0.4,0.1,0.6c0,0.2,0.1,0.3,0.2,0.4c0.1,0.1,0.2,0.2,0.3,0.3s0.3,0.1,0.4,0.1s0.3,0,0.4-0.1s0.2-0.1,0.2-0.1    c0.1,0,0.1-0.1,0.2-0.1s0.1-0.1,0.2-0.1c0.1,0,0.1,0,0.2,0.1l0.3,0.3c-0.1,0.1-0.2,0.2-0.3,0.3c-0.1,0.1-0.3,0.2-0.4,0.2    c-0.1,0-0.3,0.1-0.4,0.1c-0.1,0-0.3,0-0.4,0c-0.2,0-0.5,0-0.7-0.1c-0.2-0.1-0.4-0.2-0.6-0.4c-0.2-0.2-0.3-0.4-0.4-0.6    c-0.1-0.3-0.1-0.5-0.1-0.9c0-0.3,0-0.6,0.1-0.8c0.1-0.2,0.2-0.5,0.4-0.6c0.2-0.2,0.4-0.3,0.6-0.4c0.2-0.1,0.5-0.2,0.8-0.2    c0.3,0,0.6,0,0.8,0.1c0.2,0.1,0.4,0.2,0.6,0.4L53.7,145z"/>
	<path class="st12" d="M56.3,144.1c0.3,0,0.6,0,0.8,0.1c0.2,0.1,0.4,0.2,0.6,0.4c0.2,0.2,0.3,0.4,0.4,0.6c0.1,0.3,0.1,0.5,0.1,0.8    c0,0.3,0,0.6-0.1,0.9s-0.2,0.5-0.4,0.6s-0.4,0.3-0.6,0.4s-0.5,0.1-0.8,0.1c-0.3,0-0.6,0-0.8-0.1c-0.2-0.1-0.4-0.2-0.6-0.4    c-0.2-0.2-0.3-0.4-0.4-0.6c-0.1-0.3-0.1-0.5-0.1-0.9c0-0.3,0-0.6,0.1-0.8c0.1-0.3,0.2-0.5,0.4-0.6c0.2-0.2,0.4-0.3,0.6-0.4    C55.8,144.1,56,144.1,56.3,144.1z M56.3,147.5c0.3,0,0.6-0.1,0.7-0.3c0.2-0.2,0.2-0.5,0.2-1s-0.1-0.8-0.2-1s-0.4-0.3-0.7-0.3    c-0.3,0-0.6,0.1-0.7,0.3c-0.2,0.2-0.2,0.6-0.2,1s0.1,0.8,0.2,1C55.8,147.3,56,147.5,56.3,147.5z"/>
	<path class="st12" d="M61.8,148.1c-0.1,0-0.2-0.1-0.2-0.2l-0.1-0.4c-0.1,0.1-0.2,0.2-0.3,0.3c-0.1,0.1-0.2,0.1-0.3,0.2    s-0.2,0.1-0.3,0.1c-0.1,0-0.2,0-0.4,0c-0.2,0-0.4,0-0.6-0.1c-0.2-0.1-0.3-0.2-0.5-0.4c-0.1-0.2-0.2-0.4-0.3-0.6    c-0.1-0.3-0.1-0.5-0.1-0.9c0-0.3,0-0.6,0.1-0.8c0.1-0.3,0.2-0.5,0.3-0.7c0.1-0.2,0.3-0.3,0.5-0.4c0.2-0.1,0.4-0.2,0.7-0.2    c0.2,0,0.4,0,0.6,0.1s0.3,0.2,0.4,0.3v-2.1h1v5.7H61.8z M60.6,147.4c0.2,0,0.4,0,0.5-0.1c0.1-0.1,0.3-0.2,0.4-0.4v-1.8    c-0.1-0.1-0.2-0.2-0.4-0.3c-0.1-0.1-0.3-0.1-0.4-0.1c-0.1,0-0.3,0-0.4,0.1c-0.1,0.1-0.2,0.1-0.3,0.2c-0.1,0.1-0.1,0.2-0.2,0.4    c0,0.2-0.1,0.4-0.1,0.6c0,0.2,0,0.4,0.1,0.6c0,0.2,0.1,0.3,0.2,0.4s0.2,0.2,0.3,0.2S60.4,147.4,60.6,147.4z"/>
	<path class="st12" d="M65.1,144.1c0.2,0,0.5,0,0.7,0.1s0.4,0.2,0.5,0.3c0.2,0.2,0.3,0.3,0.4,0.6s0.1,0.5,0.1,0.8c0,0.1,0,0.1,0,0.2    c0,0,0,0.1,0,0.1s0,0-0.1,0.1s-0.1,0-0.1,0h-2.5c0,0.4,0.1,0.7,0.3,0.9s0.4,0.3,0.8,0.3c0.2,0,0.3,0,0.4-0.1c0.1,0,0.2-0.1,0.3-0.1    c0.1,0,0.2-0.1,0.2-0.1c0.1,0,0.1-0.1,0.2-0.1c0,0,0.1,0,0.1,0c0,0,0.1,0,0.1,0.1l0.3,0.3c-0.1,0.1-0.2,0.2-0.4,0.3    c-0.1,0.1-0.3,0.2-0.4,0.2c-0.1,0-0.3,0.1-0.4,0.1c-0.1,0-0.3,0-0.4,0c-0.3,0-0.5,0-0.8-0.1s-0.4-0.2-0.6-0.4    c-0.2-0.2-0.3-0.4-0.4-0.7s-0.2-0.6-0.2-0.9c0-0.3,0-0.5,0.1-0.8c0.1-0.2,0.2-0.4,0.4-0.6c0.2-0.2,0.4-0.3,0.6-0.4    C64.5,144.1,64.8,144.1,65.1,144.1z M65.1,144.8c-0.3,0-0.5,0.1-0.7,0.2c-0.2,0.2-0.3,0.4-0.3,0.7H66c0-0.1,0-0.2,0-0.3    c0-0.1-0.1-0.2-0.2-0.3c-0.1-0.1-0.2-0.1-0.3-0.2C65.4,144.8,65.3,144.8,65.1,144.8z"/>
</g>
<g class="st3">
	<path class="st12" d="M146.1,59.8C146.1,59.8,146.1,59.9,146.1,59.8c-0.1,0.1-0.1,0.1-0.1,0.1c0,0-0.1,0-0.1,0c0,0-0.1-0.1-0.1-0.1    s-0.1-0.1-0.2-0.1c-0.1,0-0.2,0-0.3,0c-0.1,0-0.2,0-0.3,0c-0.1,0-0.1,0.1-0.2,0.1c-0.1,0-0.1,0.1-0.1,0.2c0,0.1,0,0.1,0,0.2    c0,0.1,0,0.2,0.1,0.2s0.1,0.1,0.2,0.2c0.1,0,0.2,0.1,0.3,0.1s0.2,0.1,0.3,0.1c0.1,0,0.2,0.1,0.3,0.1s0.2,0.1,0.3,0.2    c0.1,0.1,0.1,0.1,0.2,0.2s0.1,0.2,0.1,0.3c0,0.1,0,0.3-0.1,0.4c0,0.1-0.1,0.2-0.2,0.3s-0.2,0.2-0.3,0.2c-0.1,0.1-0.3,0.1-0.5,0.1    c-0.2,0-0.4,0-0.6-0.1c-0.2-0.1-0.3-0.2-0.4-0.3l0.1-0.2c0,0,0,0,0,0c0,0,0,0,0.1,0c0,0,0.1,0,0.1,0.1s0.1,0.1,0.2,0.1    s0.1,0.1,0.2,0.1c0.1,0,0.2,0.1,0.3,0.1c0.1,0,0.2,0,0.3,0c0.1,0,0.2-0.1,0.2-0.1c0.1-0.1,0.1-0.1,0.1-0.2s0-0.2,0-0.2    c0-0.1,0-0.2-0.1-0.2c0-0.1-0.1-0.1-0.2-0.2c-0.1,0-0.2-0.1-0.2-0.1c-0.1,0-0.2-0.1-0.3-0.1c-0.1,0-0.2-0.1-0.3-0.1    s-0.2-0.1-0.2-0.2s-0.1-0.1-0.2-0.2c0-0.1-0.1-0.2-0.1-0.4c0-0.1,0-0.2,0.1-0.3c0-0.1,0.1-0.2,0.2-0.3s0.2-0.2,0.3-0.2    c0.1,0,0.3-0.1,0.4-0.1c0.2,0,0.3,0,0.5,0.1s0.3,0.1,0.4,0.3L146.1,59.8z"/>
	<path class="st12" d="M146.8,62.6v-3.4h0.4v1.4c0.1-0.1,0.2-0.2,0.3-0.3c0.1-0.1,0.3-0.1,0.4-0.1c0.1,0,0.2,0,0.3,0.1    s0.2,0.1,0.2,0.2c0.1,0.1,0.1,0.2,0.1,0.3c0,0.1,0.1,0.2,0.1,0.4v1.5h-0.4v-1.5c0-0.2,0-0.3-0.1-0.4s-0.2-0.1-0.4-0.1    c-0.1,0-0.2,0-0.3,0.1c-0.1,0.1-0.2,0.1-0.3,0.2v1.7H146.8z"/>
	<path class="st12" d="M150.2,60.2c0.2,0,0.3,0,0.5,0.1c0.1,0.1,0.3,0.1,0.3,0.2c0.1,0.1,0.2,0.2,0.2,0.4c0.1,0.1,0.1,0.3,0.1,0.5    c0,0.2,0,0.3-0.1,0.5c-0.1,0.1-0.1,0.3-0.2,0.4c-0.1,0.1-0.2,0.2-0.3,0.2c-0.1,0.1-0.3,0.1-0.5,0.1s-0.3,0-0.5-0.1    c-0.1-0.1-0.3-0.1-0.3-0.2s-0.2-0.2-0.2-0.4c-0.1-0.1-0.1-0.3-0.1-0.5c0-0.2,0-0.3,0.1-0.5c0.1-0.1,0.1-0.3,0.2-0.4    c0.1-0.1,0.2-0.2,0.3-0.2C149.9,60.3,150.1,60.2,150.2,60.2z M150.2,62.3c0.2,0,0.4-0.1,0.5-0.2c0.1-0.2,0.2-0.4,0.2-0.6    c0-0.3-0.1-0.5-0.2-0.6c-0.1-0.2-0.3-0.2-0.5-0.2c-0.1,0-0.2,0-0.3,0.1c-0.1,0-0.2,0.1-0.2,0.2c-0.1,0.1-0.1,0.2-0.1,0.3    c0,0.1,0,0.2,0,0.4c0,0.1,0,0.3,0,0.4c0,0.1,0.1,0.2,0.1,0.3c0.1,0.1,0.1,0.1,0.2,0.2C150,62.3,150.1,62.3,150.2,62.3z"/>
	<path class="st12" d="M151.5,60.3h0.3c0,0,0.1,0,0.1,0s0,0,0,0.1l0.4,1.5c0,0.1,0,0.1,0,0.2c0,0.1,0,0.1,0,0.2c0-0.1,0-0.1,0-0.2    c0-0.1,0-0.1,0-0.2l0.5-1.5c0,0,0,0,0-0.1c0,0,0,0,0.1,0h0.2c0,0,0.1,0,0.1,0c0,0,0,0,0,0.1l0.5,1.5c0,0.1,0,0.1,0,0.2    c0,0.1,0,0.1,0,0.2c0-0.1,0-0.1,0-0.2c0-0.1,0-0.1,0-0.2l0.5-1.5c0,0,0,0,0-0.1c0,0,0,0,0.1,0h0.3l-0.7,2.3h-0.3c0,0-0.1,0-0.1-0.1    l-0.5-1.6c0,0,0-0.1,0-0.1c0,0,0-0.1,0-0.1c0,0,0,0.1,0,0.1c0,0,0,0.1,0,0.1l-0.5,1.6c0,0.1,0,0.1-0.1,0.1h-0.3L151.5,60.3z"/>
	<path class="st12" d="M159.3,60.9c0,0.2,0,0.5-0.1,0.7c-0.1,0.2-0.2,0.4-0.3,0.5s-0.3,0.3-0.5,0.3c-0.2,0.1-0.4,0.1-0.7,0.1    s-0.5,0-0.7-0.1c-0.2-0.1-0.4-0.2-0.5-0.3s-0.3-0.3-0.3-0.5c-0.1-0.2-0.1-0.4-0.1-0.7s0-0.5,0.1-0.7c0.1-0.2,0.2-0.4,0.3-0.5    c0.1-0.1,0.3-0.3,0.5-0.3c0.2-0.1,0.4-0.1,0.7-0.1s0.5,0,0.7,0.1c0.2,0.1,0.4,0.2,0.5,0.3c0.1,0.1,0.3,0.3,0.3,0.5    C159.3,60.5,159.3,60.7,159.3,60.9z M158.9,60.9c0-0.2,0-0.4-0.1-0.5c-0.1-0.2-0.1-0.3-0.2-0.4c-0.1-0.1-0.2-0.2-0.4-0.3    s-0.3-0.1-0.5-0.1c-0.2,0-0.3,0-0.5,0.1s-0.3,0.1-0.4,0.3c-0.1,0.1-0.2,0.2-0.2,0.4c-0.1,0.2-0.1,0.3-0.1,0.5s0,0.4,0.1,0.5    c0.1,0.2,0.1,0.3,0.2,0.4s0.2,0.2,0.4,0.3s0.3,0.1,0.5,0.1c0.2,0,0.3,0,0.5-0.1s0.3-0.1,0.4-0.3s0.2-0.2,0.2-0.4    C158.8,61.3,158.9,61.1,158.9,60.9z"/>
	<path class="st12" d="M159.9,62.6v-2.3h0.2c0,0,0.1,0,0.1,0s0,0,0,0.1l0,0.4c0.1-0.2,0.2-0.3,0.3-0.4s0.3-0.1,0.4-0.1    c0.1,0,0.1,0,0.2,0s0.1,0,0.1,0.1l-0.1,0.3c0,0,0,0.1-0.1,0.1c0,0-0.1,0-0.1,0c0,0-0.1,0-0.2,0c-0.1,0-0.3,0-0.4,0.1    s-0.2,0.2-0.2,0.4v1.5H159.9z"/>
	<path class="st12" d="M163.3,62.6c-0.1,0-0.1,0-0.1-0.1l0-0.3c-0.1,0.1-0.2,0.2-0.3,0.3s-0.3,0.1-0.4,0.1c-0.1,0-0.3,0-0.4-0.1    c-0.1-0.1-0.2-0.1-0.3-0.2c-0.1-0.1-0.1-0.2-0.2-0.4s-0.1-0.3-0.1-0.5c0-0.2,0-0.3,0.1-0.5c0-0.1,0.1-0.3,0.2-0.4    c0.1-0.1,0.2-0.2,0.3-0.3c0.1-0.1,0.3-0.1,0.4-0.1c0.1,0,0.3,0,0.4,0.1c0.1,0,0.2,0.1,0.3,0.2v-1.3h0.4v3.4H163.3z M162.5,62.3    c0.1,0,0.2,0,0.3-0.1c0.1-0.1,0.2-0.1,0.3-0.3v-1.1c-0.1-0.1-0.2-0.2-0.2-0.2c-0.1,0-0.2-0.1-0.3-0.1c-0.2,0-0.4,0.1-0.5,0.2    c-0.1,0.2-0.2,0.4-0.2,0.7c0,0.2,0,0.3,0,0.4c0,0.1,0.1,0.2,0.1,0.3s0.1,0.1,0.2,0.2S162.4,62.3,162.5,62.3z"/>
	<path class="st12" d="M165.2,60.2c0.1,0,0.3,0,0.4,0.1c0.1,0,0.2,0.1,0.3,0.2c0.1,0.1,0.2,0.2,0.2,0.3c0,0.1,0.1,0.3,0.1,0.4    c0,0.1,0,0.1,0,0.1s0,0-0.1,0h-1.5c0,0.1,0,0.3,0.1,0.4c0,0.1,0.1,0.2,0.2,0.3c0.1,0.1,0.1,0.1,0.2,0.2c0.1,0,0.2,0.1,0.3,0.1    c0.1,0,0.2,0,0.3,0c0.1,0,0.1,0,0.2-0.1c0.1,0,0.1-0.1,0.1-0.1s0.1,0,0.1,0c0,0,0.1,0,0.1,0l0.1,0.1c-0.1,0.1-0.1,0.1-0.2,0.2    c-0.1,0-0.1,0.1-0.2,0.1s-0.2,0.1-0.2,0.1c-0.1,0-0.2,0-0.3,0c-0.2,0-0.3,0-0.4-0.1c-0.1-0.1-0.3-0.1-0.3-0.2    c-0.1-0.1-0.2-0.2-0.2-0.4c-0.1-0.2-0.1-0.3-0.1-0.5c0-0.2,0-0.3,0.1-0.5c0-0.1,0.1-0.3,0.2-0.4s0.2-0.2,0.3-0.2    S165,60.2,165.2,60.2z M165.2,60.5c-0.2,0-0.4,0.1-0.5,0.2s-0.2,0.3-0.2,0.5h1.3c0-0.1,0-0.2,0-0.3c0-0.1-0.1-0.1-0.1-0.2    c-0.1-0.1-0.1-0.1-0.2-0.1S165.3,60.5,165.2,60.5z"/>
	<path class="st12" d="M166.6,62.6v-2.3h0.2c0,0,0.1,0,0.1,0s0,0,0,0.1l0,0.4c0.1-0.2,0.2-0.3,0.3-0.4c0.1-0.1,0.3-0.1,0.4-0.1    c0.1,0,0.1,0,0.2,0c0.1,0,0.1,0,0.1,0.1l-0.1,0.3c0,0,0,0.1-0.1,0.1c0,0-0.1,0-0.1,0s-0.1,0-0.2,0c-0.1,0-0.3,0-0.4,0.1    c-0.1,0.1-0.2,0.2-0.2,0.4v1.5H166.6z"/>
	<path class="st12" d="M171.1,59.8C171.1,59.8,171.1,59.9,171.1,59.8c-0.1,0.1-0.1,0.1-0.1,0.1c0,0-0.1,0-0.1,0c0,0-0.1-0.1-0.1-0.1    c-0.1,0-0.1-0.1-0.2-0.1c-0.1,0-0.2,0-0.3,0c-0.1,0-0.2,0-0.3,0c-0.1,0-0.1,0.1-0.2,0.1c-0.1,0-0.1,0.1-0.1,0.2c0,0.1,0,0.1,0,0.2    c0,0.1,0,0.2,0.1,0.2s0.1,0.1,0.2,0.2c0.1,0,0.2,0.1,0.3,0.1c0.1,0,0.2,0.1,0.3,0.1c0.1,0,0.2,0.1,0.3,0.1s0.2,0.1,0.3,0.2    c0.1,0.1,0.1,0.1,0.2,0.2c0,0.1,0.1,0.2,0.1,0.3c0,0.1,0,0.3-0.1,0.4c0,0.1-0.1,0.2-0.2,0.3s-0.2,0.2-0.3,0.2    c-0.1,0.1-0.3,0.1-0.5,0.1c-0.2,0-0.4,0-0.6-0.1c-0.2-0.1-0.3-0.2-0.4-0.3l0.1-0.2c0,0,0,0,0,0c0,0,0,0,0.1,0c0,0,0.1,0,0.1,0.1    s0.1,0.1,0.2,0.1s0.1,0.1,0.2,0.1c0.1,0,0.2,0.1,0.3,0.1c0.1,0,0.2,0,0.3,0c0.1,0,0.2-0.1,0.2-0.1c0.1-0.1,0.1-0.1,0.1-0.2    c0-0.1,0-0.2,0-0.2c0-0.1,0-0.2-0.1-0.2c0-0.1-0.1-0.1-0.2-0.2c-0.1,0-0.2-0.1-0.2-0.1c-0.1,0-0.2-0.1-0.3-0.1    c-0.1,0-0.2-0.1-0.3-0.1c-0.1,0-0.2-0.1-0.2-0.2c-0.1-0.1-0.1-0.1-0.2-0.2c0-0.1-0.1-0.2-0.1-0.4c0-0.1,0-0.2,0.1-0.3    c0-0.1,0.1-0.2,0.2-0.3c0.1-0.1,0.2-0.2,0.3-0.2c0.1,0,0.3-0.1,0.4-0.1c0.2,0,0.3,0,0.5,0.1c0.2,0.1,0.3,0.1,0.4,0.3L171.1,59.8z"/>
	<path class="st12" d="M172.1,60.3v1.5c0,0.2,0,0.3,0.1,0.4c0.1,0.1,0.2,0.1,0.4,0.1c0.1,0,0.2,0,0.3-0.1c0.1-0.1,0.2-0.1,0.3-0.2    v-1.7h0.4v2.3h-0.2c-0.1,0-0.1,0-0.1-0.1l0-0.2c-0.1,0.1-0.2,0.2-0.3,0.3c-0.1,0.1-0.3,0.1-0.4,0.1c-0.1,0-0.2,0-0.3-0.1    s-0.2-0.1-0.2-0.2s-0.1-0.2-0.1-0.3c0-0.1,0-0.2,0-0.4v-1.5H172.1z"/>
	<path class="st12" d="M174.3,62.6v-2.3h0.2c0.1,0,0.1,0,0.1,0.1l0,0.2c0.1-0.1,0.2-0.2,0.3-0.3c0.1-0.1,0.2-0.1,0.4-0.1    c0.2,0,0.3,0,0.4,0.1s0.2,0.2,0.2,0.4c0-0.1,0.1-0.2,0.1-0.2c0.1-0.1,0.1-0.1,0.2-0.2c0.1,0,0.1-0.1,0.2-0.1c0.1,0,0.1,0,0.2,0    c0.1,0,0.2,0,0.3,0.1c0.1,0,0.2,0.1,0.2,0.2c0.1,0.1,0.1,0.2,0.2,0.3c0,0.1,0.1,0.2,0.1,0.4v1.5H177v-1.5c0-0.2,0-0.3-0.1-0.4    s-0.2-0.1-0.3-0.1c-0.1,0-0.1,0-0.2,0c-0.1,0-0.1,0.1-0.2,0.1c0,0-0.1,0.1-0.1,0.2c0,0.1,0,0.1,0,0.2v1.5h-0.4v-1.5    c0-0.2,0-0.3-0.1-0.4c-0.1-0.1-0.2-0.1-0.3-0.1c-0.1,0-0.2,0-0.3,0.1c-0.1,0.1-0.2,0.1-0.2,0.2v1.7H174.3z"/>
	<path class="st12" d="M178.1,62.6v-2.3h0.2c0.1,0,0.1,0,0.1,0.1l0,0.2c0.1-0.1,0.2-0.2,0.3-0.3c0.1-0.1,0.2-0.1,0.4-0.1    c0.2,0,0.3,0,0.4,0.1s0.2,0.2,0.2,0.4c0-0.1,0.1-0.2,0.1-0.2c0.1-0.1,0.1-0.1,0.2-0.2c0.1,0,0.1-0.1,0.2-0.1c0.1,0,0.1,0,0.2,0    c0.1,0,0.2,0,0.3,0.1c0.1,0,0.2,0.1,0.2,0.2c0.1,0.1,0.1,0.2,0.2,0.3c0,0.1,0.1,0.2,0.1,0.4v1.5h-0.4v-1.5c0-0.2,0-0.3-0.1-0.4    s-0.2-0.1-0.3-0.1c-0.1,0-0.1,0-0.2,0c-0.1,0-0.1,0.1-0.2,0.1s-0.1,0.1-0.1,0.2c0,0.1,0,0.1,0,0.2v1.5h-0.4v-1.5    c0-0.2,0-0.3-0.1-0.4c-0.1-0.1-0.2-0.1-0.3-0.1c-0.1,0-0.2,0-0.3,0.1c-0.1,0.1-0.2,0.1-0.2,0.2v1.7H178.1z"/>
	<path class="st12" d="M183.5,62.6h-0.2c0,0-0.1,0-0.1,0c0,0,0,0,0-0.1l0-0.2c-0.1,0.1-0.1,0.1-0.2,0.1c-0.1,0-0.1,0.1-0.2,0.1    c-0.1,0-0.1,0.1-0.2,0.1s-0.2,0-0.2,0c-0.1,0-0.2,0-0.3,0c-0.1,0-0.1-0.1-0.2-0.1c-0.1-0.1-0.1-0.1-0.1-0.2s-0.1-0.2-0.1-0.3    c0-0.1,0-0.2,0.1-0.3c0-0.1,0.1-0.2,0.2-0.2c0.1-0.1,0.3-0.1,0.4-0.2c0.2,0,0.4-0.1,0.7-0.1v-0.2c0-0.2,0-0.3-0.1-0.4    c-0.1-0.1-0.2-0.1-0.3-0.1c-0.1,0-0.2,0-0.2,0c-0.1,0-0.1,0.1-0.2,0.1c0,0-0.1,0.1-0.1,0.1c0,0-0.1,0-0.1,0c0,0-0.1,0-0.1,0    s0,0,0-0.1l-0.1-0.1c0.1-0.1,0.3-0.2,0.4-0.3c0.1-0.1,0.3-0.1,0.5-0.1c0.1,0,0.2,0,0.3,0.1c0.1,0,0.2,0.1,0.3,0.2s0.1,0.2,0.2,0.3    c0,0.1,0.1,0.2,0.1,0.4V62.6z M182.4,62.3c0.1,0,0.1,0,0.2,0s0.1,0,0.2-0.1c0.1,0,0.1-0.1,0.2-0.1s0.1-0.1,0.1-0.1v-0.5    c-0.2,0-0.3,0-0.5,0c-0.1,0-0.2,0.1-0.3,0.1s-0.1,0.1-0.2,0.1c0,0.1-0.1,0.1-0.1,0.2c0,0.1,0,0.1,0,0.2c0,0,0,0.1,0.1,0.1    c0,0,0.1,0,0.1,0.1C182.3,62.3,182.4,62.3,182.4,62.3z"/>
	<path class="st12" d="M184.1,62.6v-2.3h0.2c0,0,0.1,0,0.1,0s0,0,0,0.1l0,0.4c0.1-0.2,0.2-0.3,0.3-0.4c0.1-0.1,0.3-0.1,0.4-0.1    c0.1,0,0.1,0,0.2,0c0.1,0,0.1,0,0.1,0.1l-0.1,0.3c0,0,0,0.1-0.1,0.1c0,0-0.1,0-0.1,0s-0.1,0-0.2,0c-0.1,0-0.3,0-0.4,0.1    c-0.1,0.1-0.2,0.2-0.2,0.4v1.5H184.1z"/>
	<path class="st12" d="M186.6,63.3C186.6,63.3,186.6,63.3,186.6,63.3c-0.1,0.1-0.1,0.1-0.1,0.1h-0.3l0.4-0.9l-1-2.2h0.4    c0,0,0.1,0,0.1,0c0,0,0,0,0,0.1l0.6,1.5c0,0,0,0.1,0,0.1s0,0.1,0,0.1c0,0,0-0.1,0-0.1s0-0.1,0-0.1l0.6-1.5c0,0,0,0,0-0.1    c0,0,0,0,0.1,0h0.3L186.6,63.3z"/>
</g>
<g class="st3">
	<path class="st13" d="M164.3,67.3v1.3h-0.6v-3.3h1c0.2,0,0.4,0,0.6,0.1c0.2,0,0.3,0.1,0.4,0.2c0.1,0.1,0.2,0.2,0.2,0.3    c0,0.1,0.1,0.2,0.1,0.4c0,0.1,0,0.2,0,0.3c0,0.1-0.1,0.2-0.1,0.3c-0.1,0.1-0.1,0.2-0.2,0.2c-0.1,0.1-0.2,0.1-0.3,0.1    c0.1,0,0.1,0.1,0.2,0.2l0.8,1.2h-0.6c-0.1,0-0.1,0-0.1,0c0,0-0.1-0.1-0.1-0.1l-0.7-1.1c0,0-0.1-0.1-0.1-0.1c0,0-0.1,0-0.1,0H164.3z     M164.3,66.9h0.4c0.1,0,0.2,0,0.3,0c0.1,0,0.2-0.1,0.2-0.1s0.1-0.1,0.1-0.2s0-0.1,0-0.2c0-0.2-0.1-0.3-0.2-0.4s-0.3-0.1-0.5-0.1    h-0.4V66.9z"/>
	<path class="st13" d="M168,66.7C168,66.7,168,66.7,168,66.7c-0.1,0.1-0.1,0.1-0.1,0.1c0,0-0.1,0-0.1,0c0,0-0.1,0-0.1-0.1    c0,0-0.1,0-0.1-0.1c-0.1,0-0.1,0-0.2,0c-0.1,0-0.2,0-0.3,0.1c-0.1,0-0.1,0.1-0.1,0.2c0,0,0,0.1,0,0.1s0.1,0.1,0.1,0.1    c0.1,0,0.1,0,0.2,0.1s0.1,0,0.2,0.1c0.1,0,0.1,0.1,0.2,0.1s0.1,0.1,0.2,0.1c0.1,0,0.1,0.1,0.1,0.2c0,0.1,0,0.1,0,0.2    c0,0.1,0,0.2-0.1,0.3c0,0.1-0.1,0.2-0.2,0.2c-0.1,0.1-0.2,0.1-0.3,0.2s-0.2,0.1-0.4,0.1c-0.1,0-0.2,0-0.2,0c-0.1,0-0.2,0-0.2-0.1    c-0.1,0-0.1-0.1-0.2-0.1c-0.1,0-0.1-0.1-0.2-0.1l0.1-0.2c0,0,0,0,0.1-0.1s0.1,0,0.1,0c0,0,0.1,0,0.1,0s0.1,0,0.1,0.1    c0,0,0.1,0,0.1,0.1c0.1,0,0.1,0,0.2,0c0.1,0,0.1,0,0.2,0c0,0,0.1,0,0.1-0.1c0,0,0.1-0.1,0.1-0.1s0-0.1,0-0.1c0-0.1,0-0.1,0-0.1    c0,0-0.1-0.1-0.1-0.1c-0.1,0-0.1,0-0.2-0.1c-0.1,0-0.1,0-0.2-0.1s-0.1-0.1-0.2-0.1c-0.1,0-0.1-0.1-0.2-0.1c-0.1,0-0.1-0.1-0.1-0.2    c0-0.1,0-0.2,0-0.3c0-0.1,0-0.2,0.1-0.3c0-0.1,0.1-0.2,0.2-0.2c0.1-0.1,0.2-0.1,0.3-0.2s0.2-0.1,0.4-0.1c0.2,0,0.3,0,0.4,0.1    c0.1,0.1,0.2,0.1,0.3,0.2L168,66.7z"/>
	<path class="st13" d="M168.5,68.3c0,0,0-0.1,0-0.1c0,0,0-0.1,0.1-0.1s0.1-0.1,0.1-0.1c0,0,0.1,0,0.1,0c0,0,0.1,0,0.1,0    c0,0,0.1,0,0.1,0.1c0,0,0.1,0.1,0.1,0.1c0,0,0,0.1,0,0.1c0,0,0,0.1,0,0.1c0,0,0,0.1-0.1,0.1c0,0-0.1,0.1-0.1,0.1c0,0-0.1,0-0.1,0    c0,0-0.1,0-0.1,0c0,0-0.1,0-0.1-0.1s-0.1-0.1-0.1-0.1S168.5,68.3,168.5,68.3z"/>
	<path class="st13" d="M172.5,65.5c0,0.1,0,0.1-0.1,0.2c-0.1,0-0.1,0.1-0.3,0.1h-0.9l-0.1,0.7c0.1,0,0.3,0,0.4,0    c0.2,0,0.3,0,0.5,0.1s0.2,0.1,0.3,0.2c0.1,0.1,0.2,0.2,0.2,0.3s0.1,0.3,0.1,0.4c0,0.2,0,0.3-0.1,0.5c-0.1,0.1-0.1,0.3-0.3,0.4    c-0.1,0.1-0.2,0.2-0.4,0.2s-0.3,0.1-0.5,0.1c-0.1,0-0.2,0-0.3,0c-0.1,0-0.2,0-0.3-0.1s-0.2-0.1-0.2-0.1c-0.1,0-0.1-0.1-0.2-0.1    l0.2-0.2c0-0.1,0.1-0.1,0.1-0.1c0,0,0.1,0,0.1,0s0.1,0.1,0.1,0.1c0.1,0,0.1,0.1,0.2,0.1s0.2,0,0.2,0c0.1,0,0.2,0,0.3-0.1    c0.1,0,0.1-0.1,0.2-0.1c0.1-0.1,0.1-0.1,0.1-0.2c0-0.1,0-0.2,0-0.3c0-0.2-0.1-0.3-0.2-0.4c-0.1-0.1-0.3-0.2-0.5-0.2    c-0.2,0-0.3,0-0.5,0.1l-0.4-0.1l0.3-1.6h1.6V65.5z"/>
	<path class="st13" d="M173,68.2c0,0,0-0.1,0-0.1c0,0,0-0.1,0.1-0.1c0,0,0.1-0.1,0.1-0.1s0.1,0,0.1,0c0.1,0,0.1,0,0.2,0    s0.1,0,0.1,0.1c0,0,0,0.1,0.1,0.1c0,0,0,0.1,0,0.1c0,0.1,0,0.2,0,0.2c0,0.1-0.1,0.2-0.1,0.2s-0.1,0.2-0.2,0.2s-0.1,0.1-0.2,0.2    l-0.1-0.1c0,0,0-0.1,0-0.1c0,0,0,0,0,0c0,0,0,0,0,0c0,0,0,0,0.1-0.1s0-0.1,0.1-0.1c0,0,0-0.1,0.1-0.1s0-0.1,0-0.1c0,0-0.1,0-0.1,0    s-0.1,0-0.1-0.1c0,0,0-0.1-0.1-0.1C173,68.3,173,68.3,173,68.2z"/>
	<path class="st13" d="M176.1,65.5c0,0.1,0,0.1-0.1,0.2c-0.1,0-0.1,0.1-0.3,0.1h-0.9l-0.1,0.7c0.1,0,0.3,0,0.4,0    c0.2,0,0.3,0,0.5,0.1s0.2,0.1,0.3,0.2c0.1,0.1,0.2,0.2,0.2,0.3s0.1,0.3,0.1,0.4c0,0.2,0,0.3-0.1,0.5c-0.1,0.1-0.1,0.3-0.3,0.4    c-0.1,0.1-0.2,0.2-0.4,0.2s-0.3,0.1-0.5,0.1c-0.1,0-0.2,0-0.3,0c-0.1,0-0.2,0-0.3-0.1s-0.2-0.1-0.2-0.1c-0.1,0-0.1-0.1-0.2-0.1    l0.2-0.2c0-0.1,0.1-0.1,0.1-0.1c0,0,0.1,0,0.1,0s0.1,0.1,0.1,0.1c0.1,0,0.1,0.1,0.2,0.1s0.2,0,0.2,0c0.1,0,0.2,0,0.3-0.1    c0.1,0,0.1-0.1,0.2-0.1c0.1-0.1,0.1-0.1,0.1-0.2c0-0.1,0-0.2,0-0.3c0-0.2-0.1-0.3-0.2-0.4c-0.1-0.1-0.3-0.2-0.5-0.2    c-0.2,0-0.3,0-0.5,0.1l-0.4-0.1l0.3-1.6h1.6V65.5z"/>
	<path class="st13" d="M179.1,66.9c0,0.3,0,0.5-0.1,0.7c-0.1,0.2-0.1,0.4-0.3,0.5s-0.2,0.2-0.4,0.3c-0.1,0.1-0.3,0.1-0.5,0.1    s-0.3,0-0.5-0.1c-0.1-0.1-0.3-0.2-0.4-0.3s-0.2-0.3-0.3-0.5c-0.1-0.2-0.1-0.5-0.1-0.7c0-0.3,0-0.5,0.1-0.8c0.1-0.2,0.1-0.4,0.3-0.5    c0.1-0.1,0.2-0.2,0.4-0.3c0.1-0.1,0.3-0.1,0.5-0.1s0.3,0,0.5,0.1s0.3,0.2,0.4,0.3c0.1,0.1,0.2,0.3,0.3,0.5    C179,66.4,179.1,66.6,179.1,66.9z M178.5,66.9c0-0.2,0-0.4-0.1-0.6c0-0.2-0.1-0.3-0.1-0.4s-0.1-0.2-0.2-0.2s-0.2-0.1-0.2-0.1    c-0.1,0-0.2,0-0.2,0.1c-0.1,0-0.1,0.1-0.2,0.2c-0.1,0.1-0.1,0.2-0.1,0.4c0,0.2-0.1,0.4-0.1,0.6c0,0.2,0,0.4,0.1,0.6    c0,0.2,0.1,0.3,0.1,0.4c0.1,0.1,0.1,0.2,0.2,0.2c0.1,0,0.2,0.1,0.2,0.1c0.1,0,0.2,0,0.2-0.1s0.1-0.1,0.2-0.2s0.1-0.2,0.1-0.4    C178.5,67.4,178.5,67.2,178.5,66.9z"/>
	<path class="st13" d="M181.7,66.9c0,0.3,0,0.5-0.1,0.7c-0.1,0.2-0.1,0.4-0.3,0.5c-0.1,0.1-0.2,0.2-0.4,0.3    c-0.1,0.1-0.3,0.1-0.5,0.1s-0.3,0-0.5-0.1c-0.1-0.1-0.3-0.2-0.4-0.3c-0.1-0.1-0.2-0.3-0.3-0.5c-0.1-0.2-0.1-0.5-0.1-0.7    c0-0.3,0-0.5,0.1-0.8c0.1-0.2,0.1-0.4,0.3-0.5c0.1-0.1,0.2-0.2,0.4-0.3s0.3-0.1,0.5-0.1s0.3,0,0.5,0.1s0.3,0.2,0.4,0.3    c0.1,0.1,0.2,0.3,0.3,0.5C181.7,66.4,181.7,66.6,181.7,66.9z M181.1,66.9c0-0.2,0-0.4-0.1-0.6c0-0.2-0.1-0.3-0.1-0.4    s-0.1-0.2-0.2-0.2s-0.2-0.1-0.2-0.1c-0.1,0-0.2,0-0.2,0.1s-0.1,0.1-0.2,0.2c-0.1,0.1-0.1,0.2-0.1,0.4c0,0.2-0.1,0.4-0.1,0.6    c0,0.2,0,0.4,0.1,0.6c0,0.2,0.1,0.3,0.1,0.4c0.1,0.1,0.1,0.2,0.2,0.2s0.2,0.1,0.2,0.1c0.1,0,0.2,0,0.2-0.1s0.1-0.1,0.2-0.2    s0.1-0.2,0.1-0.4C181.1,67.4,181.1,67.2,181.1,66.9z"/>
	<path class="st13" d="M182,68.3c0,0,0-0.1,0-0.1c0,0,0-0.1,0.1-0.1c0,0,0.1-0.1,0.1-0.1c0,0,0.1,0,0.1,0c0,0,0.1,0,0.1,0    c0,0,0.1,0,0.1,0.1c0,0,0.1,0.1,0.1,0.1c0,0,0,0.1,0,0.1c0,0,0,0.1,0,0.1s0,0.1-0.1,0.1c0,0-0.1,0.1-0.1,0.1s-0.1,0-0.1,0    c0,0-0.1,0-0.1,0s-0.1,0-0.1-0.1c0,0-0.1-0.1-0.1-0.1S182,68.3,182,68.3z"/>
	<path class="st13" d="M185.4,66.9c0,0.3,0,0.5-0.1,0.7c-0.1,0.2-0.1,0.4-0.3,0.5c-0.1,0.1-0.2,0.2-0.4,0.3    c-0.1,0.1-0.3,0.1-0.5,0.1s-0.3,0-0.5-0.1c-0.1-0.1-0.3-0.2-0.4-0.3c-0.1-0.1-0.2-0.3-0.3-0.5c-0.1-0.2-0.1-0.5-0.1-0.7    c0-0.3,0-0.5,0.1-0.8c0.1-0.2,0.1-0.4,0.3-0.5c0.1-0.1,0.2-0.2,0.4-0.3s0.3-0.1,0.5-0.1s0.3,0,0.5,0.1s0.3,0.2,0.4,0.3    c0.1,0.1,0.2,0.3,0.3,0.5C185.3,66.4,185.4,66.6,185.4,66.9z M184.8,66.9c0-0.2,0-0.4-0.1-0.6c0-0.2-0.1-0.3-0.1-0.4    s-0.1-0.2-0.2-0.2s-0.2-0.1-0.2-0.1c-0.1,0-0.2,0-0.2,0.1s-0.1,0.1-0.2,0.2c-0.1,0.1-0.1,0.2-0.1,0.4c0,0.2-0.1,0.4-0.1,0.6    c0,0.2,0,0.4,0.1,0.6c0,0.2,0.1,0.3,0.1,0.4c0.1,0.1,0.1,0.2,0.2,0.2s0.2,0.1,0.2,0.1c0.1,0,0.2,0,0.2-0.1s0.1-0.1,0.2-0.2    s0.1-0.2,0.1-0.4C184.8,67.4,184.8,67.2,184.8,66.9z"/>
	<path class="st13" d="M188,66.9c0,0.3,0,0.5-0.1,0.7c-0.1,0.2-0.1,0.4-0.3,0.5c-0.1,0.1-0.2,0.2-0.4,0.3c-0.1,0.1-0.3,0.1-0.5,0.1    s-0.3,0-0.5-0.1c-0.1-0.1-0.3-0.2-0.4-0.3s-0.2-0.3-0.3-0.5c-0.1-0.2-0.1-0.5-0.1-0.7c0-0.3,0-0.5,0.1-0.8c0.1-0.2,0.1-0.4,0.3-0.5    c0.1-0.1,0.2-0.2,0.4-0.3c0.1-0.1,0.3-0.1,0.5-0.1s0.3,0,0.5,0.1s0.3,0.2,0.4,0.3c0.1,0.1,0.2,0.3,0.3,0.5    C188,66.4,188,66.6,188,66.9z M187.4,66.9c0-0.2,0-0.4-0.1-0.6c0-0.2-0.1-0.3-0.1-0.4s-0.1-0.2-0.2-0.2s-0.2-0.1-0.2-0.1    c-0.1,0-0.2,0-0.2,0.1c-0.1,0-0.1,0.1-0.2,0.2s-0.1,0.2-0.1,0.4c0,0.2-0.1,0.4-0.1,0.6c0,0.2,0,0.4,0.1,0.6c0,0.2,0.1,0.3,0.1,0.4    s0.1,0.2,0.2,0.2c0.1,0,0.2,0.1,0.2,0.1c0.1,0,0.2,0,0.2-0.1s0.1-0.1,0.2-0.2s0.1-0.2,0.1-0.4C187.4,67.4,187.4,67.2,187.4,66.9z"/>
</g>
<g class="st3">
	<path class="st12" d="M31,163.7v1.2h-0.4v-3.2h0.9c0.2,0,0.4,0,0.5,0.1s0.3,0.1,0.4,0.2c0.1,0.1,0.2,0.2,0.2,0.3    c0,0.1,0.1,0.3,0.1,0.4c0,0.1,0,0.3-0.1,0.4s-0.1,0.2-0.2,0.3c-0.1,0.1-0.2,0.2-0.4,0.2c-0.1,0-0.3,0.1-0.5,0.1H31z M31,163.4h0.5    c0.1,0,0.2,0,0.3,0c0.1,0,0.2-0.1,0.2-0.1c0.1-0.1,0.1-0.1,0.1-0.2c0-0.1,0-0.2,0-0.3c0-0.2-0.1-0.4-0.2-0.5    c-0.1-0.1-0.3-0.2-0.6-0.2H31V163.4z"/>
	<path class="st12" d="M34,162.6c0.2,0,0.3,0,0.4,0.1s0.2,0.1,0.3,0.2c0.1,0.1,0.2,0.2,0.2,0.4c0,0.1,0.1,0.3,0.1,0.5    c0,0.2,0,0.3-0.1,0.5c0,0.1-0.1,0.3-0.2,0.4c-0.1,0.1-0.2,0.2-0.3,0.2s-0.3,0.1-0.4,0.1s-0.3,0-0.4-0.1c-0.1-0.1-0.2-0.1-0.3-0.2    c-0.1-0.1-0.2-0.2-0.2-0.4c0-0.1-0.1-0.3-0.1-0.5c0-0.2,0-0.3,0.1-0.5c0.1-0.1,0.1-0.3,0.2-0.4c0.1-0.1,0.2-0.2,0.3-0.2    C33.7,162.6,33.8,162.6,34,162.6z M34,164.6c0.2,0,0.4-0.1,0.5-0.2c0.1-0.1,0.2-0.4,0.2-0.6c0-0.3-0.1-0.5-0.2-0.6    c-0.1-0.1-0.3-0.2-0.5-0.2c-0.1,0-0.2,0-0.3,0.1c-0.1,0-0.2,0.1-0.2,0.2c-0.1,0.1-0.1,0.2-0.1,0.3c0,0.1,0,0.2,0,0.4    c0,0.1,0,0.3,0,0.4c0,0.1,0.1,0.2,0.1,0.3c0.1,0.1,0.1,0.1,0.2,0.2C33.8,164.6,33.9,164.6,34,164.6z"/>
	<path class="st12" d="M35.3,162.6h0.3c0,0,0.1,0,0.1,0c0,0,0,0,0,0.1l0.4,1.4c0,0.1,0,0.1,0,0.2c0,0,0,0.1,0,0.2c0-0.1,0-0.1,0-0.2    c0,0,0-0.1,0-0.2l0.5-1.5c0,0,0,0,0-0.1c0,0,0,0,0.1,0H37c0,0,0.1,0,0.1,0c0,0,0,0,0,0.1l0.5,1.5c0,0.1,0,0.1,0,0.2    c0,0.1,0,0.1,0,0.1c0,0,0-0.1,0-0.2c0-0.1,0-0.1,0-0.1l0.4-1.4c0,0,0,0,0-0.1c0,0,0,0,0.1,0h0.3l-0.7,2.2h-0.3c0,0-0.1,0-0.1-0.1    l-0.5-1.5c0,0,0-0.1,0-0.1c0,0,0-0.1,0-0.1c0,0,0,0.1,0,0.1c0,0,0,0.1,0,0.1l-0.5,1.5c0,0,0,0.1-0.1,0.1H36L35.3,162.6z"/>
	<path class="st12" d="M39.9,162.6c0.1,0,0.3,0,0.4,0.1s0.2,0.1,0.3,0.2c0.1,0.1,0.1,0.2,0.2,0.3c0,0.1,0.1,0.3,0.1,0.4    c0,0.1,0,0.1,0,0.1c0,0,0,0-0.1,0h-1.5c0,0.1,0,0.3,0.1,0.4c0,0.1,0.1,0.2,0.1,0.3c0.1,0.1,0.1,0.1,0.2,0.2c0.1,0,0.2,0.1,0.3,0.1    c0.1,0,0.2,0,0.3,0c0.1,0,0.1,0,0.2-0.1s0.1-0.1,0.1-0.1c0,0,0.1,0,0.1,0c0,0,0.1,0,0.1,0l0.1,0.1c0,0.1-0.1,0.1-0.2,0.2    c-0.1,0-0.1,0.1-0.2,0.1c-0.1,0-0.2,0-0.2,0.1c-0.1,0-0.2,0-0.2,0c-0.2,0-0.3,0-0.4-0.1s-0.2-0.1-0.3-0.2c-0.1-0.1-0.2-0.2-0.2-0.4    c-0.1-0.1-0.1-0.3-0.1-0.5c0-0.2,0-0.3,0.1-0.4c0-0.1,0.1-0.3,0.2-0.4c0.1-0.1,0.2-0.2,0.3-0.2C39.5,162.6,39.7,162.6,39.9,162.6z     M39.9,162.9c-0.2,0-0.3,0.1-0.5,0.2s-0.2,0.3-0.2,0.5h1.2c0-0.1,0-0.2,0-0.3c0-0.1-0.1-0.1-0.1-0.2s-0.1-0.1-0.2-0.1    S40,162.9,39.9,162.9z"/>
	<path class="st12" d="M41.3,164.9v-2.2h0.2c0,0,0.1,0,0.1,0c0,0,0,0,0,0.1l0,0.4c0.1-0.2,0.2-0.3,0.3-0.4c0.1-0.1,0.2-0.1,0.4-0.1    c0.1,0,0.1,0,0.2,0c0.1,0,0.1,0,0.1,0.1l-0.1,0.3c0,0,0,0.1-0.1,0.1c0,0-0.1,0-0.1,0c0,0-0.1,0-0.2,0c-0.1,0-0.3,0-0.3,0.1    c-0.1,0.1-0.2,0.2-0.2,0.3v1.4H41.3z"/>
	<path class="st12" d="M44,162.6c0.1,0,0.3,0,0.4,0.1s0.2,0.1,0.3,0.2c0.1,0.1,0.1,0.2,0.2,0.3c0,0.1,0.1,0.3,0.1,0.4    c0,0.1,0,0.1,0,0.1c0,0,0,0-0.1,0h-1.5c0,0.1,0,0.3,0.1,0.4c0,0.1,0.1,0.2,0.1,0.3c0.1,0.1,0.1,0.1,0.2,0.2c0.1,0,0.2,0.1,0.3,0.1    c0.1,0,0.2,0,0.3,0c0.1,0,0.1,0,0.2-0.1s0.1-0.1,0.1-0.1c0,0,0.1,0,0.1,0c0,0,0.1,0,0.1,0l0.1,0.1c0,0.1-0.1,0.1-0.2,0.2    c-0.1,0-0.1,0.1-0.2,0.1c-0.1,0-0.2,0-0.2,0.1c-0.1,0-0.2,0-0.2,0c-0.2,0-0.3,0-0.4-0.1s-0.2-0.1-0.3-0.2c-0.1-0.1-0.2-0.2-0.2-0.4    c-0.1-0.1-0.1-0.3-0.1-0.5c0-0.2,0-0.3,0.1-0.4c0-0.1,0.1-0.3,0.2-0.4c0.1-0.1,0.2-0.2,0.3-0.2C43.7,162.6,43.8,162.6,44,162.6z     M44,162.9c-0.2,0-0.3,0.1-0.5,0.2s-0.2,0.3-0.2,0.5h1.2c0-0.1,0-0.2,0-0.3c0-0.1-0.1-0.1-0.1-0.2s-0.1-0.1-0.2-0.1    S44.1,162.9,44,162.9z"/>
	<path class="st12" d="M47,164.9c-0.1,0-0.1,0-0.1-0.1l0-0.3c-0.1,0.1-0.2,0.2-0.3,0.3c-0.1,0.1-0.3,0.1-0.4,0.1    c-0.1,0-0.2,0-0.4-0.1c-0.1,0-0.2-0.1-0.3-0.2c-0.1-0.1-0.1-0.2-0.2-0.4s-0.1-0.3-0.1-0.5c0-0.2,0-0.3,0.1-0.5    c0-0.1,0.1-0.3,0.2-0.4c0.1-0.1,0.2-0.2,0.3-0.2c0.1-0.1,0.3-0.1,0.4-0.1c0.1,0,0.3,0,0.4,0.1s0.2,0.1,0.3,0.2v-1.2h0.4v3.3H47z     M46.2,164.6c0.1,0,0.2,0,0.3-0.1c0.1-0.1,0.2-0.1,0.3-0.3v-1.1c-0.1-0.1-0.2-0.2-0.2-0.2c-0.1,0-0.2-0.1-0.3-0.1    c-0.2,0-0.4,0.1-0.5,0.2c-0.1,0.1-0.2,0.4-0.2,0.6c0,0.1,0,0.3,0,0.4c0,0.1,0.1,0.2,0.1,0.3s0.1,0.1,0.2,0.1S46.1,164.6,46.2,164.6    z"/>
	<path class="st12" d="M48.8,164.9v-3.3h0.4v1.3c0.1-0.1,0.2-0.2,0.3-0.3c0.1-0.1,0.3-0.1,0.4-0.1c0.1,0,0.2,0,0.4,0.1    s0.2,0.1,0.3,0.2c0.1,0.1,0.1,0.2,0.2,0.4s0.1,0.3,0.1,0.5c0,0.2,0,0.3-0.1,0.5c0,0.1-0.1,0.3-0.2,0.4c-0.1,0.1-0.2,0.2-0.3,0.2    c-0.1,0.1-0.3,0.1-0.4,0.1c-0.1,0-0.3,0-0.4-0.1c-0.1-0.1-0.2-0.1-0.3-0.2l0,0.2c0,0.1,0,0.1-0.1,0.1H48.8z M49.8,162.9    c-0.1,0-0.2,0-0.3,0.1c-0.1,0.1-0.2,0.1-0.3,0.2v1.1c0.1,0.1,0.2,0.2,0.2,0.2c0.1,0,0.2,0.1,0.3,0.1c0.2,0,0.4-0.1,0.5-0.2    c0.1-0.2,0.2-0.4,0.2-0.6c0-0.1,0-0.3,0-0.4c0-0.1-0.1-0.2-0.1-0.3c0-0.1-0.1-0.1-0.2-0.1C49.9,162.9,49.9,162.9,49.8,162.9z"/>
	<path class="st12" d="M51.8,165.6C51.8,165.6,51.8,165.6,51.8,165.6c-0.1,0.1-0.1,0.1-0.1,0.1h-0.3l0.4-0.9l-0.9-2.1h0.3    c0,0,0.1,0,0.1,0c0,0,0,0,0,0.1l0.6,1.4c0,0,0,0.1,0,0.1c0,0,0,0.1,0,0.1c0,0,0-0.1,0-0.1c0,0,0-0.1,0-0.1l0.6-1.4c0,0,0,0,0-0.1    s0,0,0.1,0h0.3L51.8,165.6z"/>
</g>
<g>
	<g>
		
			<linearGradient id="SVGID_1_" gradientUnits="userSpaceOnUse" x1="56.554" y1="67.95" x2="59.6038" y2="67.95" gradientTransform="matrix(1 0 0 -1 0 230)">
			<stop  offset="0" style="stop-color:#F28920"/>
			<stop  offset="0.8588" style="stop-color:#ED463C"/>
		</linearGradient>
		<path class="st14" d="M59.6,161.4c-0.2-0.3-0.6-0.7-1.1-0.7c-1.6,0-2.7,1.3-2.7,2.6l0,0c0-0.5,0.4-0.9,0.7-1.1     c0.2-0.1,0.5-0.2,1-0.2c0.3,0,1.1,0.1,1.1,0.1c0.2,0,1.2,0.2,1.2,1.3C60,162.4,59.8,161.7,59.6,161.4z"/>
		
			<linearGradient id="SVGID_00000097500441871650136850000002690516124236445070_" gradientUnits="userSpaceOnUse" x1="59.5525" y1="68.52" x2="59.8874" y2="65.8679" gradientTransform="matrix(1 0 0 -1 0 230)">
			<stop  offset="0" style="stop-color:#F28920"/>
			<stop  offset="0.8588" style="stop-color:#ED463C"/>
		</linearGradient>
		<path style="fill:url(#SVGID_00000097500441871650136850000002690516124236445070_);" d="M58.5,160.7c0.5,0,0.9,0.4,1.1,0.7     c0.2,0.3,0.4,0.9,0.2,2l0,0c0,0.5-0.3,0.8-0.5,0.9c0,0-0.3,0.2-0.8,0.2c1.1,0.2,1.7,0,2-0.2s0.7-0.5,0.7-1.1     C61.1,161.8,59.8,160.7,58.5,160.7z"/>
		
			<linearGradient id="SVGID_00000093883245477298608660000005586853067996277891_" gradientUnits="userSpaceOnUse" x1="57.0686" y1="65.0616" x2="57.4505" y2="66.9453" gradientTransform="matrix(1 0 0 -1 0 230)">
			<stop  offset="0" style="stop-color:#F28920"/>
			<stop  offset="0.8588" style="stop-color:#ED463C"/>
		</linearGradient>
		<path style="fill:url(#SVGID_00000093883245477298608660000005586853067996277891_);" d="M57.3,165.3c-0.1-0.1-0.1-0.2-0.1-0.3     c0,0,0,0,0-0.1c0-0.4,0-1.3,0-1.6v-0.1v-0.1c0-0.2,0.1-0.4,0.3-0.6l0,0l0,0c0.1-0.1,0.2-0.2,0.3-0.2l0,0c0,0,0.1,0,0.1-0.1     c0.1-0.1,0.4-0.2,0.7-0.2c-1.1-0.2-1.7,0-2,0.2s-0.7,0.5-0.7,1.1c0,1.5,1.2,2.6,2.5,2.6C57.9,165.9,57.5,165.5,57.3,165.3z"/>
		<g>
			
				<linearGradient id="SVGID_00000064351427508474259500000008135574377738029995_" gradientUnits="userSpaceOnUse" x1="57.2" y1="65.1" x2="57.2" y2="65.1" gradientTransform="matrix(1 0 0 -1 0 230)">
				<stop  offset="0" style="stop-color:#F28920"/>
				<stop  offset="0.8588" style="stop-color:#ED463C"/>
			</linearGradient>
			<path style="fill:url(#SVGID_00000064351427508474259500000008135574377738029995_);" d="M57.2,164.9L57.2,164.9L57.2,164.9z"/>
			
				<linearGradient id="SVGID_00000023962491466599087840000002345921260778303105_" gradientUnits="userSpaceOnUse" x1="59.3038" y1="65.7564" x2="59.4736" y2="64.4122" gradientTransform="matrix(1 0 0 -1 0 230)">
				<stop  offset="0" style="stop-color:#F28920"/>
				<stop  offset="0.8588" style="stop-color:#ED463C"/>
			</linearGradient>
			<path style="fill:url(#SVGID_00000023962491466599087840000002345921260778303105_);" d="M60.5,164.4c-0.3,0.2-0.9,0.3-2,0.2l0,0      h-0.1c-0.3,0-0.7-0.1-1.1,0.3c0,0,0,0.2,0.1,0.3c0.2,0.3,0.6,0.7,1.2,0.7c1.5,0,2.6-1.2,2.7-2.4C61.1,164,60.7,164.3,60.5,164.4z      "/>
		</g>
	</g>
	<path class="st19" d="M78.2,164.2H77l-0.2,0.5H76l1.2-2.8H78l1.2,2.8h-0.8L78.2,164.2z M78,163.7l-0.4-1l-0.4,1H78z"/>
	<path class="st19" d="M80.7,163.8v0.9H80v-0.9l-1-1.9h0.7l0.7,1.2l0.7-1.2h0.7L80.7,163.8z"/>
	<path class="st20" d="M63.3,161.9l1.3,1.7v-1.7h0.7v2.8h-0.6l-1.3-1.7v1.7h-0.7v-2.8H63.3z"/>
	<path class="st20" d="M67.8,164.2h-1.2l-0.2,0.5h-0.8l1.2-2.8h0.8l1.2,2.8H68L67.8,164.2z M67.6,163.7l-0.4-1l-0.4,1H67.6z"/>
	<path class="st20" d="M70.2,163.8v0.9h-0.7v-0.9l-1-1.9h0.7l0.7,1.2l0.7-1.2h0.7L70.2,163.8z"/>
	<path class="st20" d="M73.1,164.2h-1.2l-0.2,0.5h-0.8l1.2-2.8h0.8l1.2,2.8h-0.8L73.1,164.2z M72.9,163.7l-0.4-1l-0.4,1H72.9z"/>
	<path class="st19" d="M75.2,161.9H74v1.5l0.6,1.3h0.2V164h0.5c0.7,0,1.1-0.4,1.1-1C76.3,162.3,75.9,161.9,75.2,161.9z M75.1,163.4    h-0.5v-0.9h0.5c0.3,0,0.5,0.1,0.5,0.4C75.6,163.2,75.4,163.4,75.1,163.4z"/>
</g>
</svg>
