<svg xmlns="http://www.w3.org/2000/svg" viewBox="0 0 216.69236 227.9281"><defs><style>.a{fill:#23cf7c;}.b{fill:#fff;}.c,.e,.g,.h,.i,.j{fill:none;}.c{stroke:#e2e3e4;}.c,.e{stroke-miterlimit:10;}.c,.j{stroke-width:0.5px;}.d{fill:#f5f5f5;}.e{stroke:#23cf7c;opacity:0.3;}.f{fill:#4a4947;}.g,.h,.i{stroke:#58595b;stroke-width:0.25px;}.g,.h,.i,.j{stroke-linecap:round;stroke-linejoin:round;}.h{stroke-dasharray:2.02271 2.02271;}.i{stroke-dasharray:2.04207 2.04207;}.j{stroke:#4a4947;}</style></defs><title>Asset 111500pp</title><rect class="a" x="0.25" y="147.11512" width="215.79616" height="80.81298" rx="10.01303"/><rect class="b" x="0.25" y="25.25456" width="216.19236" height="153.70777" rx="10.98918"/><rect class="c" x="0.25" y="25.25456" width="216.19236" height="153.70777" rx="10.98918"/><rect class="d" x="46.26103" y="34.08781" width="152.4572" height="9.09946"/><circle class="d" cx="27.76413" cy="38.63754" r="2.78369"/><circle class="d" cx="18.88631" cy="38.63754" r="2.78369"/><path class="a" d="M109.15783,9.27079a4.375,4.375,0,0,1,1.50488.24365,3.37189,3.37189,0,0,1,1.14063.67725,2.92622,2.92622,0,0,1,.72363,1.03271,3.37233,3.37233,0,0,1,.25195,1.31934,3.62008,3.62008,0,0,1-.1748,1.145,4.513,4.513,0,0,1-.47559,1.00195,7.011,7.011,0,0,1-.70019.9209q-.39844.44458-.84766.90137l-2.20508,2.25928a8.00426,8.00426,0,0,1,.83985-.19727,4.4328,4.4328,0,0,1,.77734-.07373h2.10449a.85325.85325,0,0,1,.61133.21289.73809.73809,0,0,1,.22461.561v1.39257h-7.92285v-.77392a1.41652,1.41652,0,0,1,.09277-.47949,1.14726,1.14726,0,0,1,.3252-.46436l3.249-3.27295a10.47954,10.47954,0,0,0,.72754-.79687,4.91685,4.91685,0,0,0,.51074-.74659,3.4234,3.4234,0,0,0,.30176-.73486,2.9225,2.9225,0,0,0,.10059-.77783,1.502,1.502,0,0,0-.32129-1.03272,1.24516,1.24516,0,0,0-.97852-.35986,1.50452,1.50452,0,0,0-.49512.07764,1.4816,1.4816,0,0,0-.40234.20849,1.382,1.382,0,0,0-.30566.30957,1.6414,1.6414,0,0,0-.20508.38721,1.12807,1.12807,0,0,1-.31348.50293.78992.78992,0,0,1-.51465.1543c-.05175,0-.10644-.00244-.166-.00733q-.08936-.00805-.18164-.02343l-1.26953-.22412a4.226,4.226,0,0,1,.47656-1.47022,3.46562,3.46562,0,0,1,2.06933-1.66748A4.94216,4.94216,0,0,1,109.15783,9.27079Z"/><path class="b" d="M50.5172,193.241v.99365H47.54162V196.096h2.34473v.96093H47.54162v1.89893H50.5172v.99805H46.28381V193.241Z"/><path class="b" d="M51.58068,199.9539v-4.76319h.70117a.28107.28107,0,0,1,.292.209l.0791.376a2.61514,2.61514,0,0,1,.30371-.269,2.1302,2.1302,0,0,1,.33887-.209,1.75909,1.75909,0,0,1,.38281-.13477,2.02994,2.02994,0,0,1,.44629-.04639,1.71209,1.71209,0,0,1,.6914.13233,1.368,1.368,0,0,1,.50391.37158,1.63989,1.63989,0,0,1,.30664.5708,2.43758,2.43758,0,0,1,.10449.73145v3.03125H54.58361v-3.03125a1.02294,1.02294,0,0,0-.20117-.67578.75018.75018,0,0,0-.60645-.23877,1.19493,1.19493,0,0,0-.55664.13427,1.99274,1.99274,0,0,0-.49218.3667v3.44483Z"/><path class="b" d="M58.46935,200.02812a1.25127,1.25127,0,0,1-.95117-.35059,1.34555,1.34555,0,0,1-.335-.96777V196.0496H56.7008a.21955.21955,0,0,1-.22754-.24121v-.45508l.7666-.12549.24121-1.2998a.22594.22594,0,0,1,.08594-.14356.26967.26967,0,0,1,.16894-.05127h.59473v1.49952h1.25391v.81689H58.33068v2.58105a.50537.50537,0,0,0,.11133.34815.37576.37576,0,0,0,.29687.12549.53714.53714,0,0,0,.17872-.02539.97042.97042,0,0,0,.125-.05323c.03613-.019.06738-.03662.0957-.05371a.15646.15646,0,0,1,.083-.02539.13137.13137,0,0,1,.084.02539.38079.38079,0,0,1,.06934.07666l.34472.55713a1.74942,1.74942,0,0,1-.57617.31543A2.14323,2.14323,0,0,1,58.46935,200.02812Z"/><path class="b" d="M62.5133,195.11649a2.32458,2.32458,0,0,1,.8291.144,1.823,1.823,0,0,1,.65234.41992,1.943,1.943,0,0,1,.42676.67773,2.57527,2.57527,0,0,1,.15332.917,1.63719,1.63719,0,0,1-.01172.21582.33991.33991,0,0,1-.042.13476.17028.17028,0,0,1-.081.06983.35166.35166,0,0,1-.12989.0205H61.36681a1.63817,1.63817,0,0,0,.39454,1.07715,1.22938,1.22938,0,0,0,.91015.34375,1.58847,1.58847,0,0,0,.48047-.06494,2.24476,2.24476,0,0,0,.35254-.144c.10059-.05274.18848-.10059.26465-.144a.44389.44389,0,0,1,.2207-.065.24794.24794,0,0,1,.12012.02784.27255.27255,0,0,1,.08887.0791l.334.41748a1.91643,1.91643,0,0,1-.42676.374,2.41533,2.41533,0,0,1-.49512.24121,2.70269,2.70269,0,0,1-.52441.12793,3.8081,3.8081,0,0,1-.51758.03711,2.54652,2.54652,0,0,1-.92383-.165,2.06907,2.06907,0,0,1-.74218-.4873,2.27661,2.27661,0,0,1-.49707-.79834,3.08354,3.08354,0,0,1-.18164-1.103,2.6295,2.6295,0,0,1,.1582-.9165,2.19914,2.19914,0,0,1,.45312-.74756,2.12994,2.12994,0,0,1,.71875-.50391A2.3779,2.3779,0,0,1,62.5133,195.11649Zm.02344.82178a1.06252,1.06252,0,0,0-.78516.28321,1.39978,1.39978,0,0,0-.36133.80322h2.15332a1.43913,1.43913,0,0,0-.05957-.42041.97809.97809,0,0,0-.18652-.34571.87011.87011,0,0,0-.31543-.23437A1.07656,1.07656,0,0,0,62.53674,195.93827Z"/><path class="b" d="M65.55334,199.9539v-4.76319h.67383a.36458.36458,0,0,1,.24609.06494.37863.37863,0,0,1,.09277.22315l.06934.57568a2.26249,2.26249,0,0,1,.59863-.69629,1.26081,1.26081,0,0,1,.77051-.25537.99768.99768,0,0,1,.585.16211l-.14844.85889a.179.179,0,0,1-.05957.11865.20833.20833,0,0,1-.126.03467.79657.79657,0,0,1-.19043-.03223,1.25772,1.25772,0,0,0-.32032-.03271.97159.97159,0,0,0-.6123.19726,1.50995,1.50995,0,0,0-.43164.57813v2.96631Z"/><path class="b" d="M72.62463,193.803a.656.656,0,0,1-.06055.27832.7555.7555,0,0,1-.39453.38281.71324.71324,0,0,1-.28809.05811.691.691,0,0,1-.28125-.05811.73689.73689,0,0,1-.38476-.38281.66937.66937,0,0,1-.0586-.27832.71341.71341,0,0,1,.0586-.28809.73256.73256,0,0,1,.15527-.23193.75988.75988,0,0,1,.22949-.15576.699.699,0,0,1,.28125-.05811.72138.72138,0,0,1,.28809.05811.77083.77083,0,0,1,.23437.15576.74527.74527,0,0,1,.16016.23193A.69894.69894,0,0,1,72.62463,193.803Zm-.17188,1.38769v4.76319H71.30627v-4.76319Z"/><path class="b" d="M75.359,200.02812a1.2521,1.2521,0,0,1-.95215-.35059,1.34511,1.34511,0,0,1-.334-.96777V196.0496h-.4834a.21955.21955,0,0,1-.22754-.24121v-.45508l.7666-.12549.24121-1.2998a.23012.23012,0,0,1,.08594-.14356.27161.27161,0,0,1,.16895-.05127h.59472v1.49952h1.25293v.81689H75.21935v2.58105a.50537.50537,0,0,0,.11133.34815.37577.37577,0,0,0,.29688.12549.537.537,0,0,0,.17871-.02539,1.05156,1.05156,0,0,0,.126-.05323c.03516-.019.06739-.03662.09473-.05371a.15964.15964,0,0,1,.084-.02539.13039.13039,0,0,1,.083.02539.38079.38079,0,0,1,.06934.07666l.34375.55713a1.72547,1.72547,0,0,1-.5752.31543A2.1416,2.1416,0,0,1,75.359,200.02812Z"/><path class="b" d="M79.402,195.11649a2.32454,2.32454,0,0,1,.8291.144,1.82309,1.82309,0,0,1,.65235.41992,1.943,1.943,0,0,1,.42675.67773,2.575,2.575,0,0,1,.15332.917,1.63915,1.63915,0,0,1-.01171.21582.34007.34007,0,0,1-.042.13476.17023.17023,0,0,1-.08105.06983.35164.35164,0,0,1-.12988.0205H78.25549a1.63822,1.63822,0,0,0,.39453,1.07715,1.22938,1.22938,0,0,0,.91015.34375,1.58842,1.58842,0,0,0,.48047-.06494,2.24436,2.24436,0,0,0,.35254-.144c.10059-.05274.18848-.10059.26465-.144a.44389.44389,0,0,1,.2207-.065.24794.24794,0,0,1,.12012.02784.27245.27245,0,0,1,.08887.0791l.334.41748a1.91643,1.91643,0,0,1-.42676.374,2.41551,2.41551,0,0,1-.49511.24121,2.703,2.703,0,0,1-.52442.12793,3.808,3.808,0,0,1-.51758.03711,2.54642,2.54642,0,0,1-.92382-.165,2.06911,2.06911,0,0,1-.74219-.4873,2.27676,2.27676,0,0,1-.49707-.79834,3.08354,3.08354,0,0,1-.18164-1.103,2.6295,2.6295,0,0,1,.1582-.9165,2.199,2.199,0,0,1,.45313-.74756,2.12984,2.12984,0,0,1,.71875-.50391A2.37782,2.37782,0,0,1,79.402,195.11649Zm.02344.82178a1.06252,1.06252,0,0,0-.78516.28321,1.39984,1.39984,0,0,0-.36133.80322h2.15332a1.43913,1.43913,0,0,0-.05957-.42041.97809.97809,0,0,0-.18652-.34571.87011.87011,0,0,0-.31543-.23437A1.07656,1.07656,0,0,0,79.42541,195.93827Z"/><path class="b" d="M82.442,199.9539v-4.76319h.70117a.28288.28288,0,0,1,.293.209l.07422.353a2.68123,2.68123,0,0,1,.26172-.25538,1.697,1.697,0,0,1,.293-.1997,1.59257,1.59257,0,0,1,.334-.13233,1.48031,1.48031,0,0,1,.39258-.04883,1.11376,1.11376,0,0,1,.74023.24366,1.47536,1.47536,0,0,1,.43457.648,1.446,1.446,0,0,1,.27832-.40625,1.51877,1.51877,0,0,1,.36621-.27637,1.70906,1.70906,0,0,1,.42481-.15772,2.0407,2.0407,0,0,1,.45312-.05127,1.91528,1.91528,0,0,1,.70118.12061,1.34,1.34,0,0,1,.51464.353,1.55955,1.55955,0,0,1,.31836.5664,2.47929,2.47929,0,0,1,.10938.76612v3.03125H87.985v-3.03125a1.02154,1.02154,0,0,0-.19922-.68506.73365.73365,0,0,0-.585-.22949.878.878,0,0,0-.32715.06.76831.76831,0,0,0-.44336.45948,1.12008,1.12008,0,0,0-.06543.395v3.03125H85.21349v-3.03125a1.03591,1.03591,0,0,0-.19238-.69678.718.718,0,0,0-.56836-.21777.91675.91675,0,0,0-.46191.123,1.544,1.544,0,0,0-.40137.33643v3.48633Z"/><path class="b" d="M95.87756,199.9539h-.51563a.55605.55605,0,0,1-.25586-.04883.311.311,0,0,1-.13867-.19727l-.10254-.33886a3.95611,3.95611,0,0,1-.35449.28564,2.15343,2.15343,0,0,1-.36035.20654,1.83321,1.83321,0,0,1-.39453.12549,2.37793,2.37793,0,0,1-.46387.04151,1.82968,1.82968,0,0,1-.55762-.08155,1.20123,1.20123,0,0,1-.43847-.24414,1.108,1.108,0,0,1-.28516-.40527,1.43874,1.43874,0,0,1-.10254-.564,1.10977,1.10977,0,0,1,.1416-.5332,1.33128,1.33128,0,0,1,.47168-.4751,3.01173,3.01173,0,0,1,.877-.35156,5.59915,5.59915,0,0,1,1.36036-.13965v-.28076a1.06353,1.06353,0,0,0-.20215-.71338.73692.73692,0,0,0-.58692-.23144,1.4232,1.4232,0,0,0-.46484.06494,1.8062,1.8062,0,0,0-.32227.146c-.09179.0542-.17578.103-.25293.14649a.51379.51379,0,0,1-.25586.06494.32908.32908,0,0,1-.19921-.06055.47742.47742,0,0,1-.13477-.14843l-.209-.3667a2.83263,2.83263,0,0,1,1.98242-.752,1.9145,1.9145,0,0,1,.74512.13672,1.58375,1.58375,0,0,1,.55468.38086,1.635,1.635,0,0,1,.34571.58252,2.235,2.235,0,0,1,.11914.74268Zm-2.22852-.71485a1.52678,1.52678,0,0,0,.32422-.03222,1.22463,1.22463,0,0,0,.28125-.09571,1.532,1.532,0,0,0,.25586-.15771,2.43357,2.43357,0,0,0,.24805-.22168v-.79736a4.6677,4.6677,0,0,0-.83789.063,2.22542,2.22542,0,0,0-.541.16163.68669.68669,0,0,0-.29.229.57566.57566,0,0,0,.09277.72021A.76948.76948,0,0,0,93.649,199.23905Z"/><path class="b" d="M97.05138,199.9539v-4.76319h.70118a.2829.2829,0,0,1,.293.209l.0791.376a2.61514,2.61514,0,0,1,.30371-.269,2.08755,2.08755,0,0,1,.33886-.209,1.75936,1.75936,0,0,1,.38282-.13477,2.02994,2.02994,0,0,1,.44629-.04639,1.71209,1.71209,0,0,1,.6914.13233,1.368,1.368,0,0,1,.50391.37158,1.638,1.638,0,0,1,.30566.5708,2.40683,2.40683,0,0,1,.1045.73145v3.03125h-1.14649v-3.03125a1.01775,1.01775,0,0,0-.20215-.67578.74675.74675,0,0,0-.60547-.23877,1.19493,1.19493,0,0,0-.55664.13427,1.99255,1.99255,0,0,0-.49218.3667v3.44483Z"/><path class="b" d="M105.72814,199.9539a.28289.28289,0,0,1-.293-.209l-.09277-.45947a2.81722,2.81722,0,0,1-.31055.30176,1.97378,1.97378,0,0,1-.35058.23193,1.83522,1.83522,0,0,1-.4043.15088,1.93188,1.93188,0,0,1-.4668.05371,1.57579,1.57579,0,0,1-.71484-.1626,1.59471,1.59471,0,0,1-.55957-.47119,2.25867,2.25867,0,0,1-.36133-.76367,3.86193,3.86193,0,0,1-.12793-1.04,3.25325,3.25325,0,0,1,.14356-.98389,2.42427,2.42427,0,0,1,.41308-.78955,1.92486,1.92486,0,0,1,.64551-.522,1.86152,1.86152,0,0,1,.84473-.188,1.65387,1.65387,0,0,1,.68261.12744,1.79248,1.79248,0,0,1,.50586.34131v-2.51611h1.14746v6.89844Zm-1.52734-.84033a1.16912,1.16912,0,0,0,.60742-.14844,1.79217,1.79217,0,0,0,.47363-.42237V196.407a1.12667,1.12667,0,0,0-.4248-.334,1.25159,1.25159,0,0,0-.49414-.09766,1.11071,1.11071,0,0,0-.47071.09766.91036.91036,0,0,0-.35742.29443,1.4471,1.4471,0,0,0-.22558.50147,2.87168,2.87168,0,0,0-.0791.71728,3.17934,3.17934,0,0,0,.06738.708,1.40607,1.40607,0,0,0,.19238.47363.74269.74269,0,0,0,.30664.26465A.9787.9787,0,0,0,104.2008,199.11357Z"/><path class="b" d="M109.55236,201.50907v-6.31836h.70117a.34251.34251,0,0,1,.19043.05127.239.239,0,0,1,.10254.15772l.09278.44092a2.39744,2.39744,0,0,1,.66113-.5337,1.796,1.796,0,0,1,.875-.2041,1.56484,1.56484,0,0,1,.71289.16211,1.61511,1.61511,0,0,1,.55762.47119,2.26161,2.26161,0,0,1,.36132.76172,3.83569,3.83569,0,0,1,.12793,1.0376,3.26976,3.26976,0,0,1-.14355.98877,2.437,2.437,0,0,1-.41113.78906,1.90382,1.90382,0,0,1-.64551.52246,1.87916,1.87916,0,0,1-.84668.188,1.70726,1.70726,0,0,1-.68555-.12305,1.6801,1.6801,0,0,1-.50293-.3413v1.9497Zm2.22852-5.501a1.17137,1.17137,0,0,0-.61035.15088,1.7602,1.7602,0,0,0-.47071.4248V198.719a1.08784,1.08784,0,0,0,.42481.33643,1.27645,1.27645,0,0,0,.49414.09521,1.11045,1.11045,0,0,0,.4707-.09716.90568.90568,0,0,0,.35742-.29737,1.46619,1.46619,0,0,0,.22559-.50341,2.875,2.875,0,0,0,.0791-.71729,3.17934,3.17934,0,0,0-.06738-.708,1.37924,1.37924,0,0,0-.19239-.47119.7623.7623,0,0,0-.30468-.26465A.94693.94693,0,0,0,111.78088,196.0081Z"/><path class="b" d="M114.84924,199.9539v-4.76319h.67382a.36459.36459,0,0,1,.2461.06494.37863.37863,0,0,1,.09277.22315l.06934.57568a2.26236,2.26236,0,0,1,.59863-.69629,1.26081,1.26081,0,0,1,.77051-.25537.99768.99768,0,0,1,.585.16211l-.14844.85889a.179.179,0,0,1-.05957.11865.20834.20834,0,0,1-.126.03467.79673.79673,0,0,1-.19043-.03223,1.25764,1.25764,0,0,0-.32031-.03271.97159.97159,0,0,0-.6123.19726,1.50985,1.50985,0,0,0-.43164.57813v2.96631Z"/><path class="b" d="M120.08263,193.803a.656.656,0,0,1-.06054.27832.7555.7555,0,0,1-.39453.38281.71324.71324,0,0,1-.28809.05811.691.691,0,0,1-.28125-.05811.737.737,0,0,1-.38477-.38281.66952.66952,0,0,1-.05859-.27832.71358.71358,0,0,1,.05859-.28809.73275.73275,0,0,1,.15528-.23193.75988.75988,0,0,1,.22949-.15576.699.699,0,0,1,.28125-.05811.72138.72138,0,0,1,.28809.05811.77083.77083,0,0,1,.23437.15576.74527.74527,0,0,1,.16016.23193A.69894.69894,0,0,1,120.08263,193.803Zm-.17187,1.38769v4.76319h-1.14648v-4.76319Z"/><path class="b" d="M124.59924,196.198a.5904.5904,0,0,1-.09961.10254.23515.23515,0,0,1-.1416.03711.316.316,0,0,1-.17188-.05371c-.05566-.03516-.12207-.07569-.2002-.12061a1.48673,1.48673,0,0,0-.27539-.12061,1.273,1.273,0,0,0-.39746-.05322,1.20979,1.20979,0,0,0-.52929.10889,1.00391,1.00391,0,0,0-.37793.31347,1.41742,1.41742,0,0,0-.22559.49415,2.6925,2.6925,0,0,0-.07422.65722,2.59741,2.59741,0,0,0,.08106.67774,1.4733,1.4733,0,0,0,.23437.499,1.00869,1.00869,0,0,0,.37207.30615,1.12329,1.12329,0,0,0,.49219.10449,1.22009,1.22009,0,0,0,.44336-.06738,1.3831,1.3831,0,0,0,.28516-.14844q.11571-.0813.20214-.14843a.302.302,0,0,1,.19239-.06739.2334.2334,0,0,1,.209.10694l.3291.41748a2.04186,2.04186,0,0,1-.41308.374,2.2191,2.2191,0,0,1-.46192.24121,2.34131,2.34131,0,0,1-.49414.12793,3.55682,3.55682,0,0,1-.50586.03711,2.11252,2.11252,0,0,1-.831-.165,1.93953,1.93953,0,0,1-.67969-.48047,2.32412,2.32412,0,0,1-.46-.773,2.97816,2.97816,0,0,1-.16992-1.042,3.029,3.029,0,0,1,.15136-.97265,2.198,2.198,0,0,1,.44336-.77539,2.03742,2.03742,0,0,1,.72461-.51319,2.49382,2.49382,0,0,1,.99317-.18555,2.36922,2.36922,0,0,1,.93554.17188,2.28869,2.28869,0,0,1,.72168.49219Z"/><path class="b" d="M127.69494,195.11649a2.32458,2.32458,0,0,1,.8291.144,1.823,1.823,0,0,1,.65234.41992,1.94285,1.94285,0,0,1,.42676.67773,2.57527,2.57527,0,0,1,.15332.917,1.63719,1.63719,0,0,1-.01172.21582.33991.33991,0,0,1-.042.13476.17028.17028,0,0,1-.08105.06983.35166.35166,0,0,1-.12989.0205h-2.94336a1.63817,1.63817,0,0,0,.39454,1.07715,1.22938,1.22938,0,0,0,.91015.34375,1.58842,1.58842,0,0,0,.48047-.06494,2.24476,2.24476,0,0,0,.35254-.144c.10059-.05274.18848-.10059.26465-.144a.44389.44389,0,0,1,.2207-.065.24794.24794,0,0,1,.12012.02784.27245.27245,0,0,1,.08887.0791l.334.41748a1.91643,1.91643,0,0,1-.42676.374,2.41551,2.41551,0,0,1-.49511.24121,2.703,2.703,0,0,1-.52442.12793,3.808,3.808,0,0,1-.51758.03711,2.54642,2.54642,0,0,1-.92382-.165,2.06911,2.06911,0,0,1-.74219-.4873,2.27661,2.27661,0,0,1-.49707-.79834,3.08354,3.08354,0,0,1-.18164-1.103,2.6295,2.6295,0,0,1,.1582-.9165,2.19914,2.19914,0,0,1,.45312-.74756,2.12994,2.12994,0,0,1,.71875-.50391A2.3779,2.3779,0,0,1,127.69494,195.11649Zm.02344.82178a1.06252,1.06252,0,0,0-.78516.28321,1.39978,1.39978,0,0,0-.36133.80322h2.15332a1.43913,1.43913,0,0,0-.05957-.42041.97809.97809,0,0,0-.18652-.34571.87011.87011,0,0,0-.31543-.23437A1.07656,1.07656,0,0,0,127.71838,195.93827Z"/><path class="b" d="M135.92638,199.9539a.28288.28288,0,0,1-.293-.209l-.09278-.45947a2.818,2.818,0,0,1-.31054.30176,1.97386,1.97386,0,0,1-.35059.23193,1.83522,1.83522,0,0,1-.4043.15088,1.93185,1.93185,0,0,1-.46679.05371,1.57581,1.57581,0,0,1-.71485-.1626,1.5948,1.5948,0,0,1-.55957-.47119,2.25867,2.25867,0,0,1-.36133-.76367,3.86193,3.86193,0,0,1-.12793-1.04,3.25356,3.25356,0,0,1,.14356-.98389,2.42427,2.42427,0,0,1,.41308-.78955,1.925,1.925,0,0,1,.64551-.522,1.86152,1.86152,0,0,1,.84473-.188,1.654,1.654,0,0,1,.68262.12744,1.79276,1.79276,0,0,1,.50586.34131v-2.51611h1.14746v6.89844Zm-1.52734-.84033a1.16912,1.16912,0,0,0,.60742-.14844,1.79236,1.79236,0,0,0,.47364-.42237V196.407a1.12677,1.12677,0,0,0-.42481-.334,1.25159,1.25159,0,0,0-.49414-.09766,1.11063,1.11063,0,0,0-.4707.09766.91029.91029,0,0,0-.35742.29443,1.44693,1.44693,0,0,0-.22559.50147,2.87168,2.87168,0,0,0-.0791.71728,3.17934,3.17934,0,0,0,.06738.708,1.40627,1.40627,0,0,0,.19238.47363.74275.74275,0,0,0,.30664.26465A.9787.9787,0,0,0,134.399,199.11357Z"/><path class="b" d="M139.88049,195.11649a2.32458,2.32458,0,0,1,.8291.144,1.823,1.823,0,0,1,.65234.41992,1.943,1.943,0,0,1,.42676.67773,2.57527,2.57527,0,0,1,.15332.917,1.63893,1.63893,0,0,1-.01172.21582.33991.33991,0,0,1-.042.13476.1703.1703,0,0,1-.08106.06983.3516.3516,0,0,1-.12988.0205H138.734a1.63822,1.63822,0,0,0,.39453,1.07715,1.22942,1.22942,0,0,0,.91016.34375,1.58847,1.58847,0,0,0,.48047-.06494,2.24516,2.24516,0,0,0,.35254-.144c.10058-.05274.18847-.10059.26465-.144a.44389.44389,0,0,1,.2207-.065.24794.24794,0,0,1,.12012.02784.27242.27242,0,0,1,.08886.0791l.334.41748a1.91665,1.91665,0,0,1-.42676.374,2.41533,2.41533,0,0,1-.49512.24121,2.70287,2.70287,0,0,1-.52441.12793,3.80821,3.80821,0,0,1-.51758.03711,2.54652,2.54652,0,0,1-.92383-.165,2.0692,2.0692,0,0,1-.74219-.4873,2.2769,2.2769,0,0,1-.49707-.79834,3.08376,3.08376,0,0,1-.18164-1.103,2.62951,2.62951,0,0,1,.15821-.9165,2.19914,2.19914,0,0,1,.45312-.74756,2.12994,2.12994,0,0,1,.71875-.50391A2.37787,2.37787,0,0,1,139.88049,195.11649Zm.02343.82178a1.06251,1.06251,0,0,0-.78515.28321,1.39971,1.39971,0,0,0-.36133.80322h2.15332a1.43913,1.43913,0,0,0-.05957-.42041.97825.97825,0,0,0-.18652-.34571.87011.87011,0,0,0-.31543-.23437A1.07661,1.07661,0,0,0,139.90392,195.93827Z"/><path class="b" d="M144.486,200.02812a1.25208,1.25208,0,0,1-.95214-.35059,1.34507,1.34507,0,0,1-.334-.96777V196.0496h-.4834a.21956.21956,0,0,1-.22754-.24121v-.45508l.76661-.12549.24121-1.2998a.23006.23006,0,0,1,.08593-.14356.27165.27165,0,0,1,.16895-.05127h.59473v1.49952h1.25293v.81689h-1.25293v2.58105a.50542.50542,0,0,0,.11132.34815.37578.37578,0,0,0,.29688.12549.537.537,0,0,0,.17871-.02539,1.05245,1.05245,0,0,0,.126-.05323c.03515-.019.06738-.03662.09472-.05371a.15967.15967,0,0,1,.084-.02539.13043.13043,0,0,1,.083.02539.38078.38078,0,0,1,.06933.07666l.34375.55713a1.72552,1.72552,0,0,1-.57519.31543A2.14171,2.14171,0,0,1,144.486,200.02812Z"/><path class="b" d="M150.29357,199.9539H149.778a.55605.55605,0,0,1-.25586-.04883.311.311,0,0,1-.13867-.19727l-.10254-.33886a3.95477,3.95477,0,0,1-.3545.28564,2.153,2.153,0,0,1-.36035.20654,1.83285,1.83285,0,0,1-.39453.12549,2.37786,2.37786,0,0,1-.46387.04151,1.82961,1.82961,0,0,1-.55761-.08155,1.20127,1.20127,0,0,1-.43848-.24414,1.1082,1.1082,0,0,1-.28516-.40527,1.43892,1.43892,0,0,1-.10253-.564,1.10977,1.10977,0,0,1,.1416-.5332,1.33111,1.33111,0,0,1,.47168-.4751,3.01161,3.01161,0,0,1,.87695-.35156,5.59906,5.59906,0,0,1,1.36035-.13965v-.28076a1.06347,1.06347,0,0,0-.20215-.71338.7369.7369,0,0,0-.58691-.23144,1.42316,1.42316,0,0,0-.46484.06494,1.8062,1.8062,0,0,0-.32227.146c-.0918.0542-.17578.103-.25293.14649a.51384.51384,0,0,1-.25586.06494.32911.32911,0,0,1-.19922-.06055.47751.47751,0,0,1-.13476-.14843l-.209-.3667a2.83265,2.83265,0,0,1,1.98242-.752,1.91447,1.91447,0,0,1,.74512.13672,1.58388,1.58388,0,0,1,.55469.38086,1.63488,1.63488,0,0,1,.3457.58252,2.235,2.235,0,0,1,.11914.74268Zm-2.22851-.71485a1.52692,1.52692,0,0,0,.32422-.03222,1.225,1.225,0,0,0,.28125-.09571,1.53187,1.53187,0,0,0,.25585-.15771,2.43145,2.43145,0,0,0,.24805-.22168v-.79736a4.66785,4.66785,0,0,0-.83789.063,2.22533,2.22533,0,0,0-.541.16163.68669.68669,0,0,0-.29.229.57566.57566,0,0,0,.09277.72021A.76946.76946,0,0,0,148.06506,199.23905Z"/><path class="b" d="M152.861,193.803a.656.656,0,0,1-.06054.27832.7555.7555,0,0,1-.39453.38281.71324.71324,0,0,1-.28809.05811.691.691,0,0,1-.28125-.05811.73689.73689,0,0,1-.38476-.38281.66937.66937,0,0,1-.0586-.27832.71341.71341,0,0,1,.0586-.28809.73256.73256,0,0,1,.15527-.23193.75988.75988,0,0,1,.22949-.15576.699.699,0,0,1,.28125-.05811.72138.72138,0,0,1,.28809.05811.77083.77083,0,0,1,.23437.15576.74527.74527,0,0,1,.16016.23193A.69894.69894,0,0,1,152.861,193.803Zm-.17187,1.38769v4.76319H151.5426v-4.76319Z"/><path class="b" d="M155.25158,193.05546v6.89844H154.1051v-6.89844Z"/><path class="b" d="M159.42053,196.11942a.309.309,0,0,1-.09766.1045.25561.25561,0,0,1-.12988.03027.40329.40329,0,0,1-.17871-.04687c-.06348-.03077-.1377-.06543-.22071-.104a1.95163,1.95163,0,0,0-.28613-.10449,1.35121,1.35121,0,0,0-.37793-.04639.88471.88471,0,0,0-.53418.14356.44687.44687,0,0,0-.19434.376.35911.35911,0,0,0,.09961.25782.88878.88878,0,0,0,.26465.18359,2.6539,2.6539,0,0,0,.373.1416c.13965.04151.28223.0874.42773.13672q.21827.0747.42676.16943a1.50241,1.50241,0,0,1,.374.24121,1.12847,1.12847,0,0,1,.26465.35059,1.11425,1.11425,0,0,1,.09961.49219,1.59052,1.59052,0,0,1-.125.63379,1.40016,1.40016,0,0,1-.36719.50146,1.722,1.722,0,0,1-.59668.32959,2.78169,2.78169,0,0,1-1.29492.07422,2.85216,2.85216,0,0,1-.45019-.12305,2.50476,2.50476,0,0,1-.39942-.18554,1.94917,1.94917,0,0,1-.32226-.23243l.26465-.43652a.37278.37278,0,0,1,.12011-.1206.34068.34068,0,0,1,.17676-.04151.37261.37261,0,0,1,.20215.06006c.06348.04053.13672.0835.21973.13037a2.05862,2.05862,0,0,0,.29492.12988,1.30784,1.30784,0,0,0,.42969.06006,1.11086,1.11086,0,0,0,.35058-.04882.73147.73147,0,0,0,.24121-.12745.47911.47911,0,0,0,.13965-.18359.54852.54852,0,0,0,.04395-.21582.386.386,0,0,0-.09961-.27393.887.887,0,0,0-.26465-.18554,2.59362,2.59362,0,0,0-.376-.1416c-.1416-.04151-.28515-.08741-.43164-.13672a4.02563,4.02563,0,0,1-.43262-.17432,1.48152,1.48152,0,0,1-.376-.25293,1.16519,1.16519,0,0,1-.26465-.376,1.31433,1.31433,0,0,1-.09961-.53857,1.37614,1.37614,0,0,1,.11621-.55713,1.306,1.306,0,0,1,.3418-.46191,1.68167,1.68167,0,0,1,.56152-.31543,2.33073,2.33073,0,0,1,.77734-.11866,2.37359,2.37359,0,0,1,.89551.1626,2.022,2.022,0,0,1,.67383.42725Z"/><path class="b" d="M164.10021,200.02812a1.2521,1.2521,0,0,1-.95215-.35059,1.34511,1.34511,0,0,1-.334-.96777V196.0496h-.4834a.21956.21956,0,0,1-.22754-.24121v-.45508l.7666-.12549.24121-1.2998a.23012.23012,0,0,1,.08594-.14356.27161.27161,0,0,1,.16895-.05127h.59472v1.49952h1.25293v.81689h-1.25293v2.58105a.50537.50537,0,0,0,.11133.34815.37577.37577,0,0,0,.29688.12549.537.537,0,0,0,.17871-.02539,1.05156,1.05156,0,0,0,.126-.05323c.03516-.019.06739-.03662.09473-.05371a.15967.15967,0,0,1,.084-.02539.13038.13038,0,0,1,.083.02539.38049.38049,0,0,1,.06934.07666l.34375.55713a1.72547,1.72547,0,0,1-.5752.31543A2.1416,2.1416,0,0,1,164.10021,200.02812Z"/><path class="b" d="M168.20861,195.11649a2.6186,2.6186,0,0,1,.96777.17188,2.09046,2.09046,0,0,1,.74024.4873,2.15712,2.15712,0,0,1,.47363.771,3.19131,3.19131,0,0,1,0,2.0376,2.20206,2.20206,0,0,1-.47363.77539,2.06291,2.06291,0,0,1-.74024.49219,2.81886,2.81886,0,0,1-1.93847,0,2.08246,2.08246,0,0,1-.74512-.49219,2.21215,2.21215,0,0,1-.47851-.77539,3.15624,3.15624,0,0,1,0-2.0376,2.167,2.167,0,0,1,.47851-.771,2.11052,2.11052,0,0,1,.74512-.4873A2.63439,2.63439,0,0,1,168.20861,195.11649Zm0,4.02491a1.00665,1.00665,0,0,0,.87891-.39893,2.00215,2.00215,0,0,0,.28613-1.16992,2.02557,2.02557,0,0,0-.28613-1.17481,1.00275,1.00275,0,0,0-.87891-.4038,1.01741,1.01741,0,0,0-.8916.40625,2.01087,2.01087,0,0,0-.28809,1.17236A1.98773,1.98773,0,0,0,167.317,198.74,1.0226,1.0226,0,0,0,168.20861,199.1414Z"/><path class="b" d="M63.69689,207.48661a2.529,2.529,0,0,1,.57617.063,1.94945,1.94945,0,0,1,.49122.18311h1.37011V208.16a.23628.23628,0,0,1-.05566.167.33.33,0,0,1-.19043.0835l-.42774.0791a1.41548,1.41548,0,0,1,.07227.25537,1.47248,1.47248,0,0,1,.02539.28321,1.40315,1.40315,0,0,1-.53125,1.123,1.81236,1.81236,0,0,1-.58984.30908,2.41521,2.41521,0,0,1-.74024.10889,2.69017,2.69017,0,0,1-.52441-.05078q-.22266.13549-.22266.30371a.22455.22455,0,0,0,.13184.21289,1.08225,1.08225,0,0,0,.34863.0957,3.84238,3.84238,0,0,0,.48926.02833c.18262,0,.37012.00732.56152.02294a4.4701,4.4701,0,0,1,.5625.08155,1.64139,1.64139,0,0,1,.48926.18408.98733.98733,0,0,1,.34863.34228,1.058,1.058,0,0,1,.13184.55665,1.31572,1.31572,0,0,1-.15527.61474,1.65044,1.65044,0,0,1-.4502.53076,2.35177,2.35177,0,0,1-.72168.375,3.0895,3.0895,0,0,1-.97559.14209,3.75121,3.75121,0,0,1-.94238-.10449,2.19131,2.19131,0,0,1-.66113-.27832,1.21215,1.21215,0,0,1-.39258-.40186.93663.93663,0,0,1-.12988-.47314.81242.81242,0,0,1,.2041-.562,1.40812,1.40812,0,0,1,.56641-.36182.79379.79379,0,0,1-.28321-.26025.75558.75558,0,0,1-.10644-.42236.72117.72117,0,0,1,.03711-.22071.878.878,0,0,1,.11328-.2251,1.10781,1.10781,0,0,1,.19336-.21093,1.3235,1.3235,0,0,1,.27343-.17871,1.501,1.501,0,0,1-.56835-.52,1.38873,1.38873,0,0,1-.207-.76123,1.42688,1.42688,0,0,1,.14161-.63868,1.4469,1.4469,0,0,1,.39453-.4873,1.79659,1.79659,0,0,1,.59961-.30859A2.53889,2.53889,0,0,1,63.69689,207.48661Zm1.25781,5.04688a.3275.3275,0,0,0-.083-.23242.5486.5486,0,0,0-.22754-.13965,1.66381,1.66381,0,0,0-.33692-.07373,3.37788,3.37788,0,0,0-.4082-.02344h-.44531a1.88729,1.88729,0,0,1-.44336-.05127,1.01634,1.01634,0,0,0-.31348.25293.51922.51922,0,0,0-.11914.33642.4621.4621,0,0,0,.06348.23487.517.517,0,0,0,.19922.188,1.20391,1.20391,0,0,0,.35547.123,2.75163,2.75163,0,0,0,.5332.04395,2.6637,2.6637,0,0,0,.55273-.04981,1.31154,1.31154,0,0,0,.38282-.13769.58561.58561,0,0,0,.2207-.2085A.512.512,0,0,0,64.9547,212.53349Zm-1.25781-2.69776a1.073,1.073,0,0,0,.3711-.0581.72061.72061,0,0,0,.26269-.16016.6676.6676,0,0,0,.1582-.24609.90972.90972,0,0,0,.05274-.31543.74726.74726,0,0,0-.21094-.55957,1.07565,1.07565,0,0,0-1.26758,0,.74729.74729,0,0,0-.21093.55957.87636.87636,0,0,0,.05371.311.67678.67678,0,0,0,.15722.248.70624.70624,0,0,0,.26465.1626A1.081,1.081,0,0,0,63.69689,209.83573Z"/><path class="b" d="M68.86877,207.49589a2.32479,2.32479,0,0,1,.8291.144,1.82318,1.82318,0,0,1,.65234.41992,1.94294,1.94294,0,0,1,.42676.67774,2.57521,2.57521,0,0,1,.15332.917,1.63893,1.63893,0,0,1-.01172.21582.34.34,0,0,1-.042.13477.17036.17036,0,0,1-.08105.06982.35164.35164,0,0,1-.12989.02051H67.72228a1.63824,1.63824,0,0,0,.39453,1.07715,1.22946,1.22946,0,0,0,.91016.34375,1.58878,1.58878,0,0,0,.48047-.06494,2.24417,2.24417,0,0,0,.35254-.144c.10058-.05273.18847-.10058.26465-.144a.44387.44387,0,0,1,.2207-.06494.248.248,0,0,1,.12012.02783.27253.27253,0,0,1,.08886.0791l.334.41748a1.91648,1.91648,0,0,1-.42676.374,2.41636,2.41636,0,0,1-.49512.24121,2.70432,2.70432,0,0,1-.52441.12793,3.8097,3.8097,0,0,1-.51758.03711,2.54673,2.54673,0,0,1-.92383-.165,2.0691,2.0691,0,0,1-.74218-.48731,2.27652,2.27652,0,0,1-.49707-.79834,3.0835,3.0835,0,0,1-.18165-1.103,2.62955,2.62955,0,0,1,.15821-.9165,2.19933,2.19933,0,0,1,.45312-.74756,2.12991,2.12991,0,0,1,.71875-.5039A2.37773,2.37773,0,0,1,68.86877,207.49589Zm.02343.82178a1.06251,1.06251,0,0,0-.78515.2832,1.39971,1.39971,0,0,0-.36133.80322H69.899a1.43918,1.43918,0,0,0-.05957-.42041.97812.97812,0,0,0-.18652-.3457.87013.87013,0,0,0-.31543-.23438A1.07677,1.07677,0,0,0,68.8922,208.31767Z"/><path class="b" d="M71.90881,212.33329v-4.76318H72.61a.28288.28288,0,0,1,.293.209l.0791.376a2.61421,2.61421,0,0,1,.30371-.269,2.0877,2.0877,0,0,1,.33887-.209,1.7596,1.7596,0,0,1,.38281-.13476,2.0294,2.0294,0,0,1,.44629-.04639,1.71209,1.71209,0,0,1,.6914.13232,1.36784,1.36784,0,0,1,.50391.37159,1.63791,1.63791,0,0,1,.30566.5708,2.40681,2.40681,0,0,1,.1045.73144v3.03125H74.91271V209.302a1.01779,1.01779,0,0,0-.20215-.67578.74671.74671,0,0,0-.60546-.23877,1.19486,1.19486,0,0,0-.55665.13428,1.99224,1.99224,0,0,0-.49218.3667v3.44482Z"/><path class="b" d="M79.20178,207.49589a2.32479,2.32479,0,0,1,.8291.144,1.82318,1.82318,0,0,1,.65234.41992,1.94294,1.94294,0,0,1,.42676.67774,2.57521,2.57521,0,0,1,.15332.917,1.63893,1.63893,0,0,1-.01172.21582.34.34,0,0,1-.042.13477.17033.17033,0,0,1-.08106.06982.35162.35162,0,0,1-.12988.02051H78.05529a1.63824,1.63824,0,0,0,.39453,1.07715,1.22946,1.22946,0,0,0,.91016.34375,1.58878,1.58878,0,0,0,.48047-.06494,2.24417,2.24417,0,0,0,.35254-.144c.10058-.05273.18847-.10058.26464-.144a.44393.44393,0,0,1,.22071-.06494.248.248,0,0,1,.12011.02783.27256.27256,0,0,1,.08887.0791l.334.41748a1.9167,1.9167,0,0,1-.42676.374,2.41636,2.41636,0,0,1-.49512.24121,2.70432,2.70432,0,0,1-.52441.12793,3.80982,3.80982,0,0,1-.51758.03711,2.54669,2.54669,0,0,1-.92383-.165,2.06913,2.06913,0,0,1-.74219-.48731,2.27681,2.27681,0,0,1-.49707-.79834,3.08372,3.08372,0,0,1-.18164-1.103,2.62955,2.62955,0,0,1,.15821-.9165,2.19918,2.19918,0,0,1,.45312-.74756,2.12991,2.12991,0,0,1,.71875-.5039A2.3777,2.3777,0,0,1,79.20178,207.49589Zm.02343.82178a1.06251,1.06251,0,0,0-.78515.2832,1.39971,1.39971,0,0,0-.36133.80322h2.15332a1.43918,1.43918,0,0,0-.05957-.42041.978.978,0,0,0-.18653-.3457.87.87,0,0,0-.31542-.23438A1.07681,1.07681,0,0,0,79.22521,208.31767Z"/><path class="b" d="M82.24181,212.33329v-4.76318h.67383a.36454.36454,0,0,1,.2461.06494.37875.37875,0,0,1,.09277.22314l.06934.57569a2.26212,2.26212,0,0,1,.59863-.69629,1.26081,1.26081,0,0,1,.77051-.25537.99768.99768,0,0,1,.585.16211l-.14844.85888a.179.179,0,0,1-.05957.11866.20834.20834,0,0,1-.126.03466.797.797,0,0,1-.19043-.03222,1.25717,1.25717,0,0,0-.32031-.03272.97154.97154,0,0,0-.6123.19727,1.50981,1.50981,0,0,0-.43164.57812v2.96631Z"/><path class="b" d="M89.68029,212.33329h-.51562a.55592.55592,0,0,1-.25586-.04883.311.311,0,0,1-.13868-.19726l-.10253-.33887a3.955,3.955,0,0,1-.3545.28565,2.15373,2.15373,0,0,1-.36035.20654,1.834,1.834,0,0,1-.39453.12549,2.3779,2.3779,0,0,1-.46387.0415,1.82962,1.82962,0,0,1-.55761-.08154,1.20119,1.20119,0,0,1-.43848-.24414,1.10824,1.10824,0,0,1-.28516-.40528,1.43872,1.43872,0,0,1-.10254-.564,1.10975,1.10975,0,0,1,.14161-.5332,1.331,1.331,0,0,1,.47168-.4751,3.01122,3.01122,0,0,1,.877-.35156,5.59856,5.59856,0,0,1,1.36035-.13965v-.28076a1.06346,1.06346,0,0,0-.20215-.71338.73691.73691,0,0,0-.58691-.23145,1.42354,1.42354,0,0,0-.46485.06494,1.80711,1.80711,0,0,0-.32226.146c-.0918.0542-.17578.103-.25293.14648a.51384.51384,0,0,1-.25586.06494.32915.32915,0,0,1-.19922-.06054.47757.47757,0,0,1-.13477-.14844l-.209-.3667a2.83267,2.83267,0,0,1,1.98242-.75195,1.91447,1.91447,0,0,1,.74512.13672,1.58375,1.58375,0,0,1,.55469.38086,1.63485,1.63485,0,0,1,.3457.58252,2.235,2.235,0,0,1,.11914.74267Zm-2.22851-.71484a1.52608,1.52608,0,0,0,.32421-.03223,1.22413,1.22413,0,0,0,.28125-.0957,1.532,1.532,0,0,0,.25586-.15772,2.43145,2.43145,0,0,0,.248-.22168v-.79736a4.66774,4.66774,0,0,0-.83789.063,2.2256,2.2256,0,0,0-.541.16162.68689.68689,0,0,0-.29.229.5757.5757,0,0,0,.09278.72022A.76953.76953,0,0,0,87.45178,211.61845Z"/><path class="b" d="M92.41857,212.40751a1.2521,1.2521,0,0,1-.95215-.35059,1.3451,1.3451,0,0,1-.334-.96777V208.429H90.649a.21954.21954,0,0,1-.22754-.24121v-.45507l.7666-.12549.24121-1.29981a.23012.23012,0,0,1,.08594-.14355.27161.27161,0,0,1,.169-.05127h.59472v1.49951h1.25293v.81689H92.27892v2.58106a.50533.50533,0,0,0,.11133.34814.37573.37573,0,0,0,.29688.12549.537.537,0,0,0,.17871-.02539,1.05326,1.05326,0,0,0,.126-.05322c.03516-.019.06739-.03662.09473-.05371a.15965.15965,0,0,1,.084-.02539.13038.13038,0,0,1,.083.02539.38079.38079,0,0,1,.06934.07666l.34375.55713a1.72547,1.72547,0,0,1-.5752.31543A2.14159,2.14159,0,0,1,92.41857,212.40751Z"/><path class="b" d="M96.46154,207.49589a2.32476,2.32476,0,0,1,.8291.144,1.82322,1.82322,0,0,1,.65235.41992,1.94292,1.94292,0,0,1,.42675.67774,2.575,2.575,0,0,1,.15332.917,1.63915,1.63915,0,0,1-.01171.21582.34012.34012,0,0,1-.042.13477.17026.17026,0,0,1-.08105.06982.35162.35162,0,0,1-.12988.02051H95.31506a1.63824,1.63824,0,0,0,.39453,1.07715,1.22942,1.22942,0,0,0,.91015.34375,1.58874,1.58874,0,0,0,.48047-.06494,2.24338,2.24338,0,0,0,.35254-.144c.10059-.05273.18848-.10058.26465-.144a.44387.44387,0,0,1,.2207-.06494.248.248,0,0,1,.12012.02783.27256.27256,0,0,1,.08887.0791l.334.41748a1.91648,1.91648,0,0,1-.42676.374,2.41653,2.41653,0,0,1-.49511.24121,2.70442,2.70442,0,0,1-.52442.12793,3.80959,3.80959,0,0,1-.51758.03711,2.54664,2.54664,0,0,1-.92382-.165,2.06913,2.06913,0,0,1-.74219-.48731,2.27667,2.27667,0,0,1-.49707-.79834,3.08372,3.08372,0,0,1-.18164-1.103,2.62954,2.62954,0,0,1,.1582-.9165,2.1992,2.1992,0,0,1,.45313-.74756,2.12981,2.12981,0,0,1,.71875-.5039A2.37765,2.37765,0,0,1,96.46154,207.49589Zm.02344.82178a1.06253,1.06253,0,0,0-.78516.2832,1.39984,1.39984,0,0,0-.36133.80322h2.15332a1.43918,1.43918,0,0,0-.05957-.42041.978.978,0,0,0-.18652-.3457.87013.87013,0,0,0-.31543-.23438A1.07672,1.07672,0,0,0,96.485,208.31767Z"/><path class="b" d="M101.34045,213.88847v-6.31836h.70117a.34253.34253,0,0,1,.19043.05127.239.239,0,0,1,.10254.15771l.09277.44092a2.39769,2.39769,0,0,1,.66113-.53369,1.796,1.796,0,0,1,.875-.2041,1.56478,1.56478,0,0,1,.71289.16211,1.61482,1.61482,0,0,1,.55762.47119,2.26152,2.26152,0,0,1,.36133.76172,3.83561,3.83561,0,0,1,.12793,1.03759,3.26944,3.26944,0,0,1-.14356.98877,2.4367,2.4367,0,0,1-.41113.78907,1.90375,1.90375,0,0,1-.64551.52246,1.87916,1.87916,0,0,1-.84668.188,1.70738,1.70738,0,0,1-.68554-.12305,1.67982,1.67982,0,0,1-.50293-.34131v1.94971Zm2.22851-5.501a1.17139,1.17139,0,0,0-.61035.15088,1.76066,1.76066,0,0,0-.4707.4248v2.13526a1.08778,1.08778,0,0,0,.4248.33642,1.2765,1.2765,0,0,0,.49414.09522,1.11054,1.11054,0,0,0,.47071-.09717.90565.90565,0,0,0,.35742-.29736,1.46616,1.46616,0,0,0,.22558-.50342,2.87447,2.87447,0,0,0,.07911-.71729,3.17925,3.17925,0,0,0-.06739-.708,1.37915,1.37915,0,0,0-.19238-.47119.76217.76217,0,0,0-.30469-.26465A.94675.94675,0,0,0,103.569,208.38749Z"/><path class="b" d="M110.37072,212.33329h-.51562a.55592.55592,0,0,1-.25586-.04883.311.311,0,0,1-.13868-.19726l-.10253-.33887a3.955,3.955,0,0,1-.3545.28565,2.15413,2.15413,0,0,1-.36035.20654,1.834,1.834,0,0,1-.39453.12549,2.378,2.378,0,0,1-.46387.0415,1.82962,1.82962,0,0,1-.55761-.08154,1.20119,1.20119,0,0,1-.43848-.24414,1.10824,1.10824,0,0,1-.28516-.40528,1.43872,1.43872,0,0,1-.10254-.564,1.10975,1.10975,0,0,1,.14161-.5332,1.331,1.331,0,0,1,.47168-.4751,3.01122,3.01122,0,0,1,.87695-.35156,5.59856,5.59856,0,0,1,1.36035-.13965v-.28076a1.06346,1.06346,0,0,0-.20215-.71338.73691.73691,0,0,0-.58691-.23145,1.42354,1.42354,0,0,0-.46485.06494,1.80711,1.80711,0,0,0-.32226.146c-.0918.0542-.17578.103-.25293.14648a.51384.51384,0,0,1-.25586.06494.32915.32915,0,0,1-.19922-.06054.47757.47757,0,0,1-.13477-.14844l-.209-.3667a2.83267,2.83267,0,0,1,1.98242-.75195,1.91447,1.91447,0,0,1,.74512.13672,1.58375,1.58375,0,0,1,.55469.38086,1.63485,1.63485,0,0,1,.3457.58252,2.235,2.235,0,0,1,.11914.74267Zm-2.22852-.71484a1.52611,1.52611,0,0,0,.32422-.03223,1.22413,1.22413,0,0,0,.28125-.0957,1.532,1.532,0,0,0,.25586-.15772,2.43145,2.43145,0,0,0,.24805-.22168v-.79736a4.66774,4.66774,0,0,0-.83789.063,2.2256,2.2256,0,0,0-.541.16162.68682.68682,0,0,0-.29.229.5757.5757,0,0,0,.09278.72022A.76951.76951,0,0,0,108.1422,211.61845Z"/><path class="b" d="M113.068,213.64237a.442.442,0,0,1-.13282.1836.40485.40485,0,0,1-.248.0625h-.8545l.89161-1.90821-1.92676-4.41015h1.00293a.31806.31806,0,0,1,.21387.06494.44669.44669,0,0,1,.11132.14893l1.0166,2.46972a2.10882,2.10882,0,0,1,.0879.25049c.02539.08691.04687.17334.06543.25977.02441-.08936.05175-.17627.08105-.25977s.06152-.16846.09473-.25537l.957-2.46484a.33229.33229,0,0,1,.123-.15333.32643.32643,0,0,1,.19239-.06054h.91894Z"/><path class="b" d="M116.37658,212.33329v-4.76318h.70117a.28288.28288,0,0,1,.293.209l.07422.353a2.68226,2.68226,0,0,1,.26172-.25537,1.697,1.697,0,0,1,.293-.19971,1.59255,1.59255,0,0,1,.334-.13232,1.4799,1.4799,0,0,1,.39258-.04883,1.11375,1.11375,0,0,1,.74023.24365,1.47542,1.47542,0,0,1,.43457.648,1.44616,1.44616,0,0,1,.27832-.40625,1.51862,1.51862,0,0,1,.36622-.27637,1.70882,1.70882,0,0,1,.4248-.15771,2.0407,2.0407,0,0,1,.45312-.05127,1.9155,1.9155,0,0,1,.70118.1206,1.34023,1.34023,0,0,1,.51465.353,1.55973,1.55973,0,0,1,.31835.56641,2.47922,2.47922,0,0,1,.10938.76611v3.03125h-1.14746V209.302a1.02156,1.02156,0,0,0-.19922-.68506.73365.73365,0,0,0-.585-.22949.87778.87778,0,0,0-.32715.06006.76833.76833,0,0,0-.44336.45947,1.12016,1.12016,0,0,0-.06543.395v3.03125h-1.15137V209.302a1.03591,1.03591,0,0,0-.19238-.69678.718.718,0,0,0-.56836-.21777.91676.91676,0,0,0-.46191.123,1.5442,1.5442,0,0,0-.40137.33642v3.48633Z"/><path class="b" d="M126.20959,207.49589a2.32479,2.32479,0,0,1,.8291.144,1.82318,1.82318,0,0,1,.65234.41992,1.94294,1.94294,0,0,1,.42676.67774,2.57521,2.57521,0,0,1,.15332.917,1.63893,1.63893,0,0,1-.01172.21582.34.34,0,0,1-.042.13477.17031.17031,0,0,1-.08105.06982.35164.35164,0,0,1-.12989.02051H125.0631a1.63824,1.63824,0,0,0,.39453,1.07715,1.22946,1.22946,0,0,0,.91016.34375,1.58878,1.58878,0,0,0,.48047-.06494,2.24378,2.24378,0,0,0,.35254-.144c.10058-.05273.18848-.10058.26465-.144a.44387.44387,0,0,1,.2207-.06494.248.248,0,0,1,.12012.02783.27253.27253,0,0,1,.08886.0791l.334.41748a1.91648,1.91648,0,0,1-.42676.374,2.41636,2.41636,0,0,1-.49512.24121,2.70432,2.70432,0,0,1-.52441.12793,3.8097,3.8097,0,0,1-.51758.03711,2.54673,2.54673,0,0,1-.92383-.165,2.0691,2.0691,0,0,1-.74218-.48731,2.27652,2.27652,0,0,1-.49707-.79834,3.0835,3.0835,0,0,1-.18164-1.103,2.62954,2.62954,0,0,1,.1582-.9165,2.19933,2.19933,0,0,1,.45312-.74756,2.12991,2.12991,0,0,1,.71875-.5039A2.37773,2.37773,0,0,1,126.20959,207.49589Zm.02344.82178a1.06252,1.06252,0,0,0-.78516.2832,1.39978,1.39978,0,0,0-.36133.80322h2.15332a1.43918,1.43918,0,0,0-.05957-.42041.978.978,0,0,0-.18652-.3457.87013.87013,0,0,0-.31543-.23438A1.07676,1.07676,0,0,0,126.233,208.31767Z"/><path class="b" d="M129.24963,212.33329v-4.76318h.70117a.28288.28288,0,0,1,.293.209l.0791.376a2.61421,2.61421,0,0,1,.30371-.269,2.08813,2.08813,0,0,1,.33887-.209,1.7596,1.7596,0,0,1,.38281-.13476,2.0294,2.0294,0,0,1,.44629-.04639,1.71209,1.71209,0,0,1,.6914.13232,1.36784,1.36784,0,0,1,.50391.37159,1.63809,1.63809,0,0,1,.30567.5708,2.40712,2.40712,0,0,1,.10449.73144v3.03125h-1.14649V209.302a1.01779,1.01779,0,0,0-.20215-.67578.74671.74671,0,0,0-.60546-.23877,1.19479,1.19479,0,0,0-.55664.13428,1.9921,1.9921,0,0,0-.49219.3667v3.44482Z"/><path class="b" d="M136.14025,212.40751a1.2521,1.2521,0,0,1-.95215-.35059,1.3451,1.3451,0,0,1-.334-.96777V208.429h-.4834a.21954.21954,0,0,1-.22754-.24121v-.45507l.7666-.12549.24121-1.29981a.23012.23012,0,0,1,.08594-.14355.27161.27161,0,0,1,.16895-.05127h.59472v1.49951h1.25293v.81689H136.0006v2.58106a.50533.50533,0,0,0,.11133.34814.37573.37573,0,0,0,.29688.12549.537.537,0,0,0,.17871-.02539,1.05326,1.05326,0,0,0,.126-.05322c.03516-.019.06739-.03662.09473-.05371a.15964.15964,0,0,1,.084-.02539.13039.13039,0,0,1,.083.02539.38079.38079,0,0,1,.06934.07666l.34375.55713a1.72547,1.72547,0,0,1-.5752.31543A2.14159,2.14159,0,0,1,136.14025,212.40751Z"/><path class="b" d="M141.274,205.43485v6.89844h-1.14648v-6.89844Z"/><path class="b" d="M144.00842,206.18241a.65593.65593,0,0,1-.06055.27832.75557.75557,0,0,1-.39453.38282.71324.71324,0,0,1-.28809.0581.691.691,0,0,1-.28125-.0581.737.737,0,0,1-.38476-.38282.66931.66931,0,0,1-.0586-.27832.71333.71333,0,0,1,.0586-.28808.73249.73249,0,0,1,.15527-.23194.75988.75988,0,0,1,.22949-.15576.69912.69912,0,0,1,.28125-.0581.72155.72155,0,0,1,.28809.0581.77083.77083,0,0,1,.23437.15576.74519.74519,0,0,1,.16016.23194A.69886.69886,0,0,1,144.00842,206.18241Zm-.17188,1.3877v4.76318h-1.14648v-4.76318Z"/><path class="b" d="M145.17736,212.33329v-4.76318h.70117a.28288.28288,0,0,1,.293.209l.0791.376a2.61585,2.61585,0,0,1,.30371-.269,2.08813,2.08813,0,0,1,.33887-.209,1.7596,1.7596,0,0,1,.38281-.13476,2.0294,2.0294,0,0,1,.44629-.04639,1.7121,1.7121,0,0,1,.69141.13232,1.368,1.368,0,0,1,.50391.37159,1.63823,1.63823,0,0,1,.30566.5708,2.40712,2.40712,0,0,1,.10449.73144v3.03125h-1.14648V209.302a1.01784,1.01784,0,0,0-.20215-.67578.74675.74675,0,0,0-.60547-.23877,1.19482,1.19482,0,0,0-.55664.13428,1.99228,1.99228,0,0,0-.49219.3667v3.44482Z"/><path class="b" d="M151.66271,205.43485v3.95069h.21387a.4047.4047,0,0,0,.18066-.03272.47811.47811,0,0,0,.13965-.1206l1.1836-1.4624a.69446.69446,0,0,1,.167-.146.44254.44254,0,0,1,.23242-.05371h1.04883l-1.48047,1.769a2.07429,2.07429,0,0,1-.16309.17871,1.08785,1.08785,0,0,1-.18066.1416.8875.8875,0,0,1,.17187.16211c.04883.062.09864.12891.14844.19971l1.58789,2.312h-1.03613a.50483.50483,0,0,1-.22656-.04639.444.444,0,0,1-.168-.15771l-1.21094-1.80615a.37105.37105,0,0,0-.13965-.13916.51708.51708,0,0,0-.209-.03272h-.25977v2.18213h-1.14648v-6.89844Z"/><path class="e" d="M86.4011,22.83585a22.33585,22.33585,0,0,1,44.6717,0"/><rect class="d" x="46.26103" y="68.95895" width="47.04075" height="14.79808" rx="1.82475"/><rect class="d" x="103.26103" y="68.95895" width="33.47892" height="14.79808" rx="1.82475"/><rect class="d" x="144.26103" y="68.95895" width="27.38534" height="14.79808" rx="1.82475"/><rect class="d" x="121.44826" y="109.95895" width="50.19811" height="14.79808" rx="1.82475"/><rect class="d" x="87.22506" y="128.95895" width="84.42131" height="27.28163" rx="1.82475"/><path d="M47.49572,65.4661h-.74219V61.48954h.74219Z"/><path d="M49.27795,65.51005a.74161.74161,0,0,1-.56348-.20752.79808.79808,0,0,1-.19824-.57324V63.15312H48.2301a.13028.13028,0,0,1-.13477-.14258V62.741l.4541-.07422.14258-.77a.1392.1392,0,0,1,.05078-.08545.16308.16308,0,0,1,.10059-.03027h.35156v.88818h.74316v.48389h-.74316v1.52929a.29945.29945,0,0,0,.06641.20606.22244.22244,0,0,0,.17578.07422.31916.31916,0,0,0,.10644-.01514.608.608,0,0,0,.07422-.03125c.02051-.01123.04-.02148.05566-.03174a.09382.09382,0,0,1,.04981-.01514.07672.07672,0,0,1,.0498.01514.22843.22843,0,0,1,.041.04541l.20312.33008a1.02337,1.02337,0,0,1-.34082.187A1.2694,1.2694,0,0,1,49.27795,65.51005Z"/><path d="M51.64513,62.60038a1.3727,1.3727,0,0,1,.49122.08545,1.07214,1.07214,0,0,1,.38671.249,1.14454,1.14454,0,0,1,.25293.40137,1.51608,1.51608,0,0,1,.09082.543,1.12154,1.12154,0,0,1-.00683.12793.19829.19829,0,0,1-.02539.08008.09805.09805,0,0,1-.04785.041.20615.20615,0,0,1-.07715.01221H50.96642a.97284.97284,0,0,0,.2334.63818.72866.72866,0,0,0,.53906.20362.93034.93034,0,0,0,.28516-.03858,1.37347,1.37347,0,0,0,.209-.08545c.05957-.03076.11132-.05957.15625-.085a.26224.26224,0,0,1,.13085-.03857.14507.14507,0,0,1,.07129.0166.15371.15371,0,0,1,.05274.04639l.19726.24756a1.11873,1.11873,0,0,1-.25293.22168,1.40264,1.40264,0,0,1-.293.14306,1.59964,1.59964,0,0,1-.31055.0752,2.22157,2.22157,0,0,1-.30664.022,1.50871,1.50871,0,0,1-.54688-.09717,1.23226,1.23226,0,0,1-.44043-.28906,1.36073,1.36073,0,0,1-.29394-.47315,1.83146,1.83146,0,0,1-.10742-.65283,1.55714,1.55714,0,0,1,.09375-.543,1.307,1.307,0,0,1,.26757-.44287,1.26994,1.26994,0,0,1,.42676-.29834A1.40693,1.40693,0,0,1,51.64513,62.60038Zm.01465.48682a.62733.62733,0,0,0-.46484.168.82539.82539,0,0,0-.21484.47558h1.27636a.85642.85642,0,0,0-.03613-.24853.5627.5627,0,0,0-.11035-.20508.51069.51069,0,0,0-.18653-.13867A.63189.63189,0,0,0,51.65978,63.0872Z"/><path d="M53.41857,65.4661V62.64482h.416a.1662.1662,0,0,1,.17285.12353l.04394.209a1.676,1.676,0,0,1,.15528-.15136,1.02964,1.02964,0,0,1,.17383-.11817.94384.94384,0,0,1,.19726-.07812.87559.87559,0,0,1,.23242-.0293.66269.66269,0,0,1,.43946.14453.86923.86923,0,0,1,.25683.38379.84829.84829,0,0,1,.165-.24072.87982.87982,0,0,1,.2168-.16358,1.02778,1.02778,0,0,1,.252-.09375,1.21279,1.21279,0,0,1,.26758-.03027,1.1257,1.1257,0,0,1,.416.07178.79084.79084,0,0,1,.30468.209.91469.91469,0,0,1,.18848.33545,1.46378,1.46378,0,0,1,.06445.45362V65.4661h-.67871V63.67021a.60556.60556,0,0,0-.11816-.40528.43449.43449,0,0,0-.34668-.13623.51531.51531,0,0,0-.19434.03565.46094.46094,0,0,0-.15625.103.48268.48268,0,0,0-.10644.16944.66283.66283,0,0,0-.03809.2334V65.4661h-.68164V63.67021a.613.613,0,0,0-.11426-.41211.42518.42518,0,0,0-.33691-.1294.54334.54334,0,0,0-.27344.07276.92125.92125,0,0,0-.23828.19921V65.4661Z"/><path d="M59.61974,61.49394a.18411.18411,0,0,1,.05957.01611.19929.19929,0,0,1,.05079.03613.52318.52318,0,0,1,.05468.06153l2.08789,2.65918c-.00781-.064-.01269-.127-.01562-.188-.00293-.06153-.00391-.11866-.00391-.17188V61.48954h.65137V65.4661h-.38184a.34071.34071,0,0,1-.1455-.02734.32548.32548,0,0,1-.11329-.09912l-2.0791-2.64844c.00586.05908.00977.11719.0127.17481s.0039.11035.0039.1582V65.4661H59.15V61.48954h.38769A.62655.62655,0,0,1,59.61974,61.49394Z"/><path d="M65.48107,65.4661h-.30664a.32813.32813,0,0,1-.15039-.0288.18175.18175,0,0,1-.082-.1167l-.06055-.20118a2.5047,2.5047,0,0,1-.21093.16944,1.25893,1.25893,0,0,1-.2129.12207,1.059,1.059,0,0,1-.23339.07422,1.40771,1.40771,0,0,1-.27539.0249,1.07823,1.07823,0,0,1-.33008-.04834.71725.71725,0,0,1-.25977-.14453.65659.65659,0,0,1-.16894-.24024.84242.84242,0,0,1-.06055-.334.65324.65324,0,0,1,.084-.31592.78121.78121,0,0,1,.2793-.28125,1.76311,1.76311,0,0,1,.51953-.20849,3.31218,3.31218,0,0,1,.80469-.08252v-.16651a.62855.62855,0,0,0-.11914-.42236.434.434,0,0,0-.34766-.13721.8344.8344,0,0,0-.27441.03858,1.00209,1.00209,0,0,0-.19141.08642c-.05469.03223-.10449.061-.15039.08643a.301.301,0,0,1-.15137.03857.198.198,0,0,1-.11816-.03564.28356.28356,0,0,1-.0791-.08789l-.124-.21729a1.67719,1.67719,0,0,1,1.17382-.44531,1.13125,1.13125,0,0,1,.44141.081.9243.9243,0,0,1,.3291.22559.96529.96529,0,0,1,.20508.34473,1.32393,1.32393,0,0,1,.07031.43994Zm-1.32031-.42334a.91086.91086,0,0,0,.19238-.019.72447.72447,0,0,0,.166-.05713.84912.84912,0,0,0,.15137-.09326A1.269,1.269,0,0,0,64.817,64.742v-.47216a2.74752,2.74752,0,0,0-.49512.03759,1.30076,1.30076,0,0,0-.32031.09522.407.407,0,0,0-.17188.13574.33846.33846,0,0,0,.05469.42676A.45434.45434,0,0,0,64.16076,65.04276Z"/><path d="M66.149,65.4661V62.64482h.415a.1662.1662,0,0,1,.17285.12353l.04395.209a1.67465,1.67465,0,0,1,.15527-.15136A1.02964,1.02964,0,0,1,67.11,62.7078a.93132.93132,0,0,1,.19824-.07812.86518.86518,0,0,1,.23242-.0293.66.66,0,0,1,.43848.14453.86915.86915,0,0,1,.25683.38379.84829.84829,0,0,1,.165-.24072.91783.91783,0,0,1,.2168-.16358,1.02794,1.02794,0,0,1,.25195-.09375,1.22145,1.22145,0,0,1,.26856-.03027,1.124,1.124,0,0,1,.415.07178.791.791,0,0,1,.30469.209.91481.91481,0,0,1,.18847.33545,1.46265,1.46265,0,0,1,.06543.45362V65.4661h-.67969V63.67021a.60033.60033,0,0,0-.11816-.40528.43449.43449,0,0,0-.34668-.13623.51379.51379,0,0,0-.19336.03565.45.45,0,0,0-.26269.27246.64083.64083,0,0,0-.03907.2334V65.4661h-.68164V63.67021a.61289.61289,0,0,0-.11426-.41211.42518.42518,0,0,0-.33691-.1294.546.546,0,0,0-.27344.07276.9377.9377,0,0,0-.23828.19921V65.4661Z"/><path d="M71.94592,62.60038a1.37107,1.37107,0,0,1,.49023.08545,1.07227,1.07227,0,0,1,.38672.249,1.131,1.131,0,0,1,.25293.40137,1.51608,1.51608,0,0,1,.09082.543.93125.93125,0,0,1-.00684.12793.2156.2156,0,0,1-.02441.08008.10479.10479,0,0,1-.04883.041.20271.20271,0,0,1-.07715.01221H71.26623a.973.973,0,0,0,.23437.63818.72486.72486,0,0,0,.53809.20362.93038.93038,0,0,0,.28516-.03858,1.333,1.333,0,0,0,.209-.08545c.05957-.03076.11133-.05957.15625-.085a.26227.26227,0,0,1,.13086-.03857.14255.14255,0,0,1,.07129.0166.15368.15368,0,0,1,.05273.04639l.19824.24756a1.14013,1.14013,0,0,1-.25292.22168,1.45133,1.45133,0,0,1-.293.14306,1.62635,1.62635,0,0,1-.31153.0752,2.22157,2.22157,0,0,1-.30664.022,1.51241,1.51241,0,0,1-.54687-.09717,1.22,1.22,0,0,1-.43946-.28906,1.3484,1.3484,0,0,1-.29492-.47315,1.83146,1.83146,0,0,1-.10742-.65283,1.55714,1.55714,0,0,1,.09375-.543,1.2939,1.2939,0,0,1,.26856-.44287,1.2562,1.2562,0,0,1,.42578-.29834A1.40838,1.40838,0,0,1,71.94592,62.60038Zm.01367.48682a.62736.62736,0,0,0-.46485.168.82545.82545,0,0,0-.21484.47558h1.27637a.8244.8244,0,0,0-.03614-.24853.57547.57547,0,0,0-.10937-.20508.52274.52274,0,0,0-.1875-.13867A.632.632,0,0,0,71.95959,63.0872Z"/><path d="M90.42834,114.69608v.6084H89.23205v3.36817h-.73926v-3.36817H87.29064v-.6084Z"/><path d="M92.401,118.67265h-.30566a.33987.33987,0,0,1-.15137-.02832.18288.18288,0,0,1-.082-.11719l-.06055-.20117a2.36758,2.36758,0,0,1-.21093.16992,1.329,1.329,0,0,1-.21289.12207,1.08531,1.08531,0,0,1-.2334.07422,1.40944,1.40944,0,0,1-.27539.02441,1.07847,1.07847,0,0,1-.33008-.04785.7244.7244,0,0,1-.25977-.14453A.65664.65664,0,0,1,90.11,118.284a.8425.8425,0,0,1-.06055-.334.6565.6565,0,0,1,.084-.31641.78872.78872,0,0,1,.27929-.28125,1.75049,1.75049,0,0,1,.51953-.208,3.28851,3.28851,0,0,1,.80567-.083v-.166a.62991.62991,0,0,0-.12012-.42285.43371.43371,0,0,0-.34766-.13672.84874.84874,0,0,0-.27441.03809,1.002,1.002,0,0,0-.19141.08691c-.05468.03223-.10449.06055-.15039.08594a.29635.29635,0,0,1-.15136.03906.195.195,0,0,1-.11817-.03613.27306.27306,0,0,1-.0791-.08789l-.124-.2168a1.67721,1.67721,0,0,1,1.17383-.44531,1.12253,1.12253,0,0,1,.4414.08105.92443.92443,0,0,1,.3291.22559.96092.96092,0,0,1,.20508.34473,1.32074,1.32074,0,0,1,.07031.43945Zm-1.32031-.42285a.90974.90974,0,0,0,.19238-.01954.72347.72347,0,0,0,.166-.05664.88147.88147,0,0,0,.15137-.09375,1.35213,1.35213,0,0,0,.14746-.13086v-.47265a2.70251,2.70251,0,0,0-.4961.03808,1.30282,1.30282,0,0,0-.32031.09473.40692.40692,0,0,0-.17187.13574.33844.33844,0,0,0,.05468.42676A.45447.45447,0,0,0,91.08068,118.2498Z"/><path d="M93.73693,117.21855l-.92676-1.36719h.6543a.23043.23043,0,0,1,.11035.02051.1754.1754,0,0,1,.0625.06738l.5918.94336a.72469.72469,0,0,1,.03418-.09375.57775.57775,0,0,1,.05078-.09278l.47559-.74316a.27221.27221,0,0,1,.06933-.07715.14815.14815,0,0,1,.08789-.02441h.624l-.92969,1.33691.96777,1.48438h-.6543a.17984.17984,0,0,1-.11914-.03809.36332.36332,0,0,1-.07617-.08789l-.59961-.98242a.50294.50294,0,0,1-.06836.165l-.52832.81738a.408.408,0,0,1-.07422.08594.15289.15289,0,0,1-.10937.04h-.6084Z"/><path d="M97.50549,134.98124v.60791H96.3092v3.36865H95.569v-3.36865H94.36779v-.60791Z"/><path d="M98.58068,136.09208a1.54606,1.54606,0,0,1,.57324.102,1.23447,1.23447,0,0,1,.43848.28858,1.27142,1.27142,0,0,1,.28027.45654,1.87956,1.87956,0,0,1,0,1.20752,1.29466,1.29466,0,0,1-.28027.459,1.21564,1.21564,0,0,1-.43848.29151,1.67407,1.67407,0,0,1-1.14843,0,1.2358,1.2358,0,0,1-.44141-.29151,1.31479,1.31479,0,0,1-.2832-.459,1.87956,1.87956,0,0,1,0-1.20752,1.291,1.291,0,0,1,.2832-.45654,1.25524,1.25524,0,0,1,.44141-.28858A1.5602,1.5602,0,0,1,98.58068,136.09208Zm0,2.38428a.59888.59888,0,0,0,.52149-.23633,1.18923,1.18923,0,0,0,.16894-.69287,1.20375,1.20375,0,0,0-.16894-.6958.596.596,0,0,0-.52149-.23926.60387.60387,0,0,0-.52832.24072,1.19494,1.19494,0,0,0-.16992.69434,1.18163,1.18163,0,0,0,.16992.69141A.60674.60674,0,0,0,98.58068,138.47636Z"/><path d="M101.42931,139.00175a.743.743,0,0,1-.56347-.20752.79808.79808,0,0,1-.19824-.57324v-1.57617h-.28516a.1394.1394,0,0,1-.0957-.03565.13626.13626,0,0,1-.03907-.10693v-.26953l.45313-.07422.14355-.77a.135.135,0,0,1,.05078-.08545.16111.16111,0,0,1,.10059-.03028h.35156v.88819h.74219v.48389h-.74219v1.52929a.29945.29945,0,0,0,.06641.20606.22245.22245,0,0,0,.17578.07422.3131.3131,0,0,0,.10547-.01514.54932.54932,0,0,0,.07422-.03125c.02148-.01123.04-.02149.05664-.03174a.09376.09376,0,0,1,.0498-.01514.07576.07576,0,0,1,.04883.01514.22852.22852,0,0,1,.042.04541l.20313.33008a1.033,1.033,0,0,1-.34082.187A1.28,1.28,0,0,1,101.42931,139.00175Z"/><path d="M104.8424,138.9578h-.30566a.328.328,0,0,1-.15039-.02881.18605.18605,0,0,1-.083-.11669l-.06055-.20118a2.34976,2.34976,0,0,1-.21.16944,1.26741,1.26741,0,0,1-.21387.12207,1.0428,1.0428,0,0,1-.2334.07422,1.39024,1.39024,0,0,1-.27441.0249,1.07382,1.07382,0,0,1-.33008-.04834.72156.72156,0,0,1-.26074-.14453.66833.66833,0,0,1-.169-.24024.86026.86026,0,0,1-.06054-.334.66424.66424,0,0,1,.084-.31592.78918.78918,0,0,1,.2793-.28125,1.77447,1.77447,0,0,1,.51953-.2085,3.32685,3.32685,0,0,1,.80566-.08251V137.18a.62855.62855,0,0,0-.11914-.42236.43667.43667,0,0,0-.34765-.13721.83664.83664,0,0,0-.27539.03858,1.05981,1.05981,0,0,0-.19141.08642q-.08057.04835-.14941.08643a.30357.30357,0,0,1-.15137.03857.1959.1959,0,0,1-.11816-.03564.28663.28663,0,0,1-.08008-.08789l-.12305-.21729a1.67721,1.67721,0,0,1,1.17383-.44531,1.13116,1.13116,0,0,1,.4414.08105.92909.92909,0,0,1,.32813.22559.96543.96543,0,0,1,.20508.34473,1.32389,1.32389,0,0,1,.07031.43994Zm-1.32031-.42334a.90433.90433,0,0,0,.19238-.019.73225.73225,0,0,0,.167-.05713.885.885,0,0,0,.15137-.09326,1.35384,1.35384,0,0,0,.14648-.13135v-.47217a2.75912,2.75912,0,0,0-.49609.0376,1.32721,1.32721,0,0,0-.32031.09522.4132.4132,0,0,0-.17188.13574.342.342,0,0,0,.05469.42676A.45844.45844,0,0,0,103.52209,138.53446Z"/><path d="M106.234,134.87138v4.08642h-.67969v-4.08642Z"/><path d="M95.4215,148.61015v2.82519H94.07678v-7.23h2.20507a4.61054,4.61054,0,0,1,1.26758.15235,2.41131,2.41131,0,0,1,.86426.42773,1.63912,1.63912,0,0,1,.49512.65723,2.2992,2.2992,0,0,1,.05078,1.53271,2.01658,2.01658,0,0,1-.31055.58985,2.08536,2.08536,0,0,1-.5.46533,2.61572,2.61572,0,0,1-.67773.31982,1.33027,1.33027,0,0,1,.44043.415l1.80957,2.66992h-1.21a.59089.59089,0,0,1-.29688-.06982.60641.60641,0,0,1-.208-.2002l-1.51953-2.31494a.53073.53073,0,0,0-.1875-.18506.65988.65988,0,0,0-.30273-.05517Zm0-.96485h.83985a2.0938,2.0938,0,0,0,.66308-.09472,1.29074,1.29074,0,0,0,.46485-.2627,1.06824,1.06824,0,0,0,.27246-.39746,1.38348,1.38348,0,0,0,.08984-.50488,1.02853,1.02853,0,0,0-.3623-.84522,1.73519,1.73519,0,0,0-1.10743-.29492H95.4215Z"/><path d="M103.55627,147.30546a.3311.3311,0,0,1-.10449.1123.27246.27246,0,0,1-.14063.03272.4379.4379,0,0,1-.19238-.05029q-.10254-.04981-.23731-.11231a2.164,2.164,0,0,0-.30761-.1123,1.45987,1.45987,0,0,0-.40723-.0503.94857.94857,0,0,0-.5752.15528.48111.48111,0,0,0-.21.40478.3872.3872,0,0,0,.10742.27735.96124.96124,0,0,0,.28516.19775,2.75607,2.75607,0,0,0,.40234.15234q.2256.0674.46.14746a4.92622,4.92622,0,0,1,.46.18262,1.59346,1.59346,0,0,1,.40234.25977,1.14551,1.14551,0,0,1,.39258.90771,1.70654,1.70654,0,0,1-.13477.68262,1.49859,1.49859,0,0,1-.39551.54,1.84743,1.84743,0,0,1-.6416.355,2.7794,2.7794,0,0,1-.87793.12744,2.82652,2.82652,0,0,1-.51757-.04736,3.08808,3.08808,0,0,1-.48536-.13282,2.71355,2.71355,0,0,1-.42968-.1997,2.11509,2.11509,0,0,1-.34766-.25l.28516-.47022a.40672.40672,0,0,1,.12988-.12988.36178.36178,0,0,1,.19043-.04492.40042.40042,0,0,1,.21777.06494c.06739.04346.14746.08984.23731.13965a2.03128,2.03128,0,0,0,.31738.14013,1.38835,1.38835,0,0,0,.46191.065,1.21142,1.21142,0,0,0,.37793-.05225.79649.79649,0,0,0,.25977-.1377.524.524,0,0,0,.15039-.19726.60074.60074,0,0,0,.04687-.23242.41369.41369,0,0,0-.10742-.29541.93305.93305,0,0,0-.28418-.19971,2.85626,2.85626,0,0,0-.40527-.15283c-.15234-.04492-.30664-.09375-.46484-.14746a4.2435,4.2435,0,0,1-.46485-.1875,1.55348,1.55348,0,0,1-.40527-.27246,1.22662,1.22662,0,0,1-.28516-.40479,1.42079,1.42079,0,0,1-.10742-.58008,1.48344,1.48344,0,0,1,.125-.60009,1.41347,1.41347,0,0,1,.36719-.49756,1.82692,1.82692,0,0,1,.60547-.33985,2.51688,2.51688,0,0,1,.83691-.12744,2.55813,2.55813,0,0,1,.96484.17481,2.18361,2.18361,0,0,1,.72559.46Z"/><path d="M104.58654,150.75517a.77416.77416,0,0,1,.05762-.29493.69837.69837,0,0,1,.16015-.23974.77847.77847,0,0,1,.24219-.16016.75411.75411,0,0,1,.29981-.06006.7375.7375,0,0,1,.29492.06006.74733.74733,0,0,1,.24023.16016.75859.75859,0,0,1,.16016.23974.76711.76711,0,0,1,0,.59278.76984.76984,0,0,1-.16016.2373.71863.71863,0,0,1-.24023.15772.77031.77031,0,0,1-.29492.05713.78779.78779,0,0,1-.29981-.05713.74767.74767,0,0,1-.24219-.15772.70716.70716,0,0,1-.16015-.2373A.76909.76909,0,0,1,104.58654,150.75517Z"/><path d="M109.7467,150.51054h1.46484v-4.21533c0-.16309.00488-.335.01465-.51465l-1.04.86963a.35962.35962,0,0,1-.13281.07519.46715.46715,0,0,1-.13184.02.39022.39022,0,0,1-.18262-.04248.35228.35228,0,0,1-.123-.09766l-.38965-.53515,2.20508-1.875h1.01465v6.31543h1.30078v.9248h-4Z"/><path d="M114.60217,150.67558a.65652.65652,0,0,1,.42968-.62256.80374.80374,0,0,1,.29493-.05274.75418.75418,0,0,1,.33007.06739.68977.68977,0,0,1,.23535.18506.79356.79356,0,0,1,.13965.27,1.128,1.128,0,0,1,.04493.32276,1.9353,1.9353,0,0,1-.07227.50488,2.61368,2.61368,0,0,1-.21289.52979,3.03964,3.03964,0,0,1-.34473.51513,3.12822,3.12822,0,0,1-.46972.46l-.21582-.19482a.23361.23361,0,0,1-.08985-.18506.19768.19768,0,0,1,.02735-.08984.38614.38614,0,0,1,.06835-.09033c.03614-.04.08106-.08887.13477-.14747a2.26859,2.26859,0,0,0,.16016-.1997,2.02426,2.02426,0,0,0,.14746-.24512,1.11333,1.11333,0,0,0,.09765-.28271.69836.69836,0,0,1-.28515-.05713.66369.66369,0,0,1-.22266-.15772.74392.74392,0,0,1-.14551-.23486A.82623.82623,0,0,1,114.60217,150.67558Z"/><path d="M122.00158,147.82011a5.93177,5.93177,0,0,1-.20215,1.64258,3.35941,3.35941,0,0,1-.56055,1.15283,2.263,2.263,0,0,1-.84472.67724,2.50377,2.50377,0,0,1-1.05274.22266,2.46756,2.46756,0,0,1-1.04687-.22266,2.25014,2.25014,0,0,1-.83789-.67724,3.3545,3.3545,0,0,1-.55469-1.15283,6.84687,6.84687,0,0,1,0-3.28711,3.36327,3.36327,0,0,1,.55469-1.15039,2.25017,2.25017,0,0,1,.83789-.67725,2.46756,2.46756,0,0,1,1.04687-.22266,2.50377,2.50377,0,0,1,1.05274.22266,2.26308,2.26308,0,0,1,.84472.67725,3.36837,3.36837,0,0,1,.56055,1.15039A5.92442,5.92442,0,0,1,122.00158,147.82011Zm-1.27441,0a6.14387,6.14387,0,0,0-.11524-1.29981,2.63452,2.63452,0,0,0-.30762-.81982,1.12461,1.12461,0,0,0-.44238-.42774,1.17069,1.17069,0,0,0-.52051-.12255,1.14042,1.14042,0,0,0-.51172.12255,1.10875,1.10875,0,0,0-.4375.42774,2.61578,2.61578,0,0,0-.30273.81982,7.58122,7.58122,0,0,0,0,2.6001,2.61594,2.61594,0,0,0,.30273.81983,1.10533,1.10533,0,0,0,.4375.42773,1.14043,1.14043,0,0,0,.51172.12256,1.1707,1.1707,0,0,0,.52051-.12256,1.12111,1.12111,0,0,0,.44238-.42773,2.63468,2.63468,0,0,0,.30762-.81983A6.14549,6.14549,0,0,0,120.72717,147.82011Z"/><path d="M127.80138,147.82011a5.93218,5.93218,0,0,1-.20214,1.64258,3.35977,3.35977,0,0,1-.56055,1.15283,2.263,2.263,0,0,1-.84473.67724,2.50373,2.50373,0,0,1-1.05273.22266,2.46758,2.46758,0,0,1-1.04688-.22266,2.25022,2.25022,0,0,1-.83789-.67724,3.35449,3.35449,0,0,1-.55468-1.15283,6.84653,6.84653,0,0,1,0-3.28711,3.36326,3.36326,0,0,1,.55468-1.15039,2.25025,2.25025,0,0,1,.83789-.67725,2.46758,2.46758,0,0,1,1.04688-.22266,2.50373,2.50373,0,0,1,1.05273.22266,2.263,2.263,0,0,1,.84473.67725,3.36873,3.36873,0,0,1,.56055,1.15039A5.92482,5.92482,0,0,1,127.80138,147.82011Zm-1.27441,0a6.144,6.144,0,0,0-.11523-1.29981,2.63452,2.63452,0,0,0-.30762-.81982,1.12467,1.12467,0,0,0-.44238-.42774,1.17075,1.17075,0,0,0-.52051-.12255,1.14039,1.14039,0,0,0-.51172.12255,1.10869,1.10869,0,0,0-.4375.42774,2.61553,2.61553,0,0,0-.30273.81982,7.58055,7.58055,0,0,0,0,2.6001,2.61569,2.61569,0,0,0,.30273.81983,1.10527,1.10527,0,0,0,.4375.42773,1.1404,1.1404,0,0,0,.51172.12256,1.17076,1.17076,0,0,0,.52051-.12256,1.12118,1.12118,0,0,0,.44238-.42773,2.63468,2.63468,0,0,0,.30762-.81983A6.14557,6.14557,0,0,0,126.527,147.82011Z"/><path d="M133.60119,147.82011a5.93177,5.93177,0,0,1-.20215,1.64258,3.35941,3.35941,0,0,1-.56055,1.15283,2.263,2.263,0,0,1-.84472.67724,2.50377,2.50377,0,0,1-1.05274.22266,2.46756,2.46756,0,0,1-1.04687-.22266,2.25014,2.25014,0,0,1-.83789-.67724,3.3545,3.3545,0,0,1-.55469-1.15283,6.84653,6.84653,0,0,1,0-3.28711,3.36327,3.36327,0,0,1,.55469-1.15039,2.25017,2.25017,0,0,1,.83789-.67725,2.46756,2.46756,0,0,1,1.04687-.22266,2.50377,2.50377,0,0,1,1.05274.22266,2.26308,2.26308,0,0,1,.84472.67725,3.36837,3.36837,0,0,1,.56055,1.15039A5.92442,5.92442,0,0,1,133.60119,147.82011Zm-1.27441,0a6.14387,6.14387,0,0,0-.11524-1.29981,2.63452,2.63452,0,0,0-.30762-.81982,1.12461,1.12461,0,0,0-.44238-.42774,1.17069,1.17069,0,0,0-.52051-.12255,1.14042,1.14042,0,0,0-.51172.12255,1.10875,1.10875,0,0,0-.4375.42774,2.61578,2.61578,0,0,0-.30273.81982,7.58122,7.58122,0,0,0,0,2.6001,2.61594,2.61594,0,0,0,.30273.81983,1.10533,1.10533,0,0,0,.4375.42773,1.14043,1.14043,0,0,0,.51172.12256,1.1707,1.1707,0,0,0,.52051-.12256,1.12111,1.12111,0,0,0,.44238-.42773,2.63468,2.63468,0,0,0,.30762-.81983A6.14549,6.14549,0,0,0,132.32678,147.82011Z"/><path d="M134.21642,150.75517a.75618.75618,0,0,1,.05762-.29493.69619.69619,0,0,1,.15918-.23974.783.783,0,0,1,.24316-.16016.75071.75071,0,0,1,.29981-.06006.76648.76648,0,0,1,.53516.22022.75874.75874,0,0,1,.16015.23974.76711.76711,0,0,1,0,.59278.77.77,0,0,1-.16015.2373.71877.71877,0,0,1-.24024.15772.77389.77389,0,0,1-.29492.05713.78423.78423,0,0,1-.29981-.05713.752.752,0,0,1-.24316-.15772.70484.70484,0,0,1-.15918-.2373A.75169.75169,0,0,1,134.21642,150.75517Z"/><path d="M141.651,147.82011a5.93218,5.93218,0,0,1-.20214,1.64258,3.35977,3.35977,0,0,1-.56055,1.15283,2.263,2.263,0,0,1-.84473.67724,2.50373,2.50373,0,0,1-1.05273.22266,2.46758,2.46758,0,0,1-1.04688-.22266,2.25022,2.25022,0,0,1-.83789-.67724,3.35468,3.35468,0,0,1-.55469-1.15283,6.84687,6.84687,0,0,1,0-3.28711,3.36345,3.36345,0,0,1,.55469-1.15039,2.25025,2.25025,0,0,1,.83789-.67725,2.46758,2.46758,0,0,1,1.04688-.22266,2.50373,2.50373,0,0,1,1.05273.22266,2.263,2.263,0,0,1,.84473.67725,3.36873,3.36873,0,0,1,.56055,1.15039A5.92482,5.92482,0,0,1,141.651,147.82011Zm-1.27441,0a6.144,6.144,0,0,0-.11523-1.29981,2.63452,2.63452,0,0,0-.30762-.81982,1.12467,1.12467,0,0,0-.44238-.42774,1.17075,1.17075,0,0,0-.52051-.12255,1.14039,1.14039,0,0,0-.51172.12255,1.10869,1.10869,0,0,0-.4375.42774,2.61577,2.61577,0,0,0-.30274.81982,7.58122,7.58122,0,0,0,0,2.6001,2.61593,2.61593,0,0,0,.30274.81983,1.10527,1.10527,0,0,0,.4375.42773,1.1404,1.1404,0,0,0,.51172.12256,1.17076,1.17076,0,0,0,.52051-.12256,1.12118,1.12118,0,0,0,.44238-.42773,2.63468,2.63468,0,0,0,.30762-.81983A6.14557,6.14557,0,0,0,140.37658,147.82011Z"/><path d="M147.4508,147.82011a5.93177,5.93177,0,0,1-.20215,1.64258,3.35977,3.35977,0,0,1-.56055,1.15283,2.263,2.263,0,0,1-.84472.67724,2.50377,2.50377,0,0,1-1.05274.22266,2.46756,2.46756,0,0,1-1.04687-.22266,2.25006,2.25006,0,0,1-.83789-.67724,3.3545,3.3545,0,0,1-.55469-1.15283,6.84653,6.84653,0,0,1,0-3.28711,3.36327,3.36327,0,0,1,.55469-1.15039,2.25009,2.25009,0,0,1,.83789-.67725,2.46756,2.46756,0,0,1,1.04687-.22266,2.50377,2.50377,0,0,1,1.05274.22266,2.26308,2.26308,0,0,1,.84472.67725,3.36873,3.36873,0,0,1,.56055,1.15039A5.92442,5.92442,0,0,1,147.4508,147.82011Zm-1.27442,0a6.144,6.144,0,0,0-.11523-1.29981,2.63452,2.63452,0,0,0-.30762-.81982,1.12461,1.12461,0,0,0-.44238-.42774,1.17069,1.17069,0,0,0-.52051-.12255,1.14039,1.14039,0,0,0-.51172.12255,1.10869,1.10869,0,0,0-.4375.42774,2.61553,2.61553,0,0,0-.30273.81982,7.58055,7.58055,0,0,0,0,2.6001,2.61569,2.61569,0,0,0,.30273.81983,1.10527,1.10527,0,0,0,.4375.42773,1.1404,1.1404,0,0,0,.51172.12256,1.1707,1.1707,0,0,0,.52051-.12256,1.12111,1.12111,0,0,0,.44238-.42773,2.63468,2.63468,0,0,0,.30762-.81983A6.14557,6.14557,0,0,0,146.17638,147.82011Z"/><path class="f" d="M56.80822,77.5662a.14109.14109,0,0,1,.10156.04541l.26563.29053a2.13611,2.13611,0,0,1-.74707.55664,2.55024,2.55024,0,0,1-1.0586.19971,2.48664,2.48664,0,0,1-.98339-.1875,2.15713,2.15713,0,0,1-.75293-.52491,2.36642,2.36642,0,0,1-.4834-.81,3.03087,3.03087,0,0,1-.1709-1.03955,2.85433,2.85433,0,0,1,.18359-1.03956,2.36763,2.36763,0,0,1,.5166-.812,2.30442,2.30442,0,0,1,.7959-.52685,2.708,2.708,0,0,1,1.02344-.187,2.28358,2.28358,0,0,1,1.666.63671l-.22071.31153a.216.216,0,0,1-.05566.05761.1484.1484,0,0,1-.09082.02295.18109.18109,0,0,1-.09668-.0332c-.0332-.022-.07324-.0498-.12012-.08252-.04687-.03223-.10156-.06738-.165-.105a1.45754,1.45754,0,0,0-.22363-.105,1.84268,1.84268,0,0,0-.30078-.082,2.11089,2.11089,0,0,0-.39551-.0332,1.90859,1.90859,0,0,0-.7373.13818,1.65687,1.65687,0,0,0-.5752.39355,1.79083,1.79083,0,0,0-.377.623,2.37772,2.37772,0,0,0-.13477.82276,2.42,2.42,0,0,0,.13477.83642,1.84245,1.84245,0,0,0,.36816.62109,1.54523,1.54523,0,0,0,.55078.38672,1.7629,1.7629,0,0,0,.68653.1333,2.77155,2.77155,0,0,0,.40234-.02636,1.642,1.642,0,0,0,.33105-.08252,1.42183,1.42183,0,0,0,.28321-.1416,2.21647,2.21647,0,0,0,.26367-.20459A.1783.1783,0,0,1,56.80822,77.5662Z"/><path class="f" d="M60.57385,78.60233h-.27637A.33639.33639,0,0,1,60.15,78.5745a.15655.15655,0,0,1-.07324-.11914l-.07032-.3291q-.13915.126-.27246.22559a1.58728,1.58728,0,0,1-.28027.16845,1.44816,1.44816,0,0,1-.31348.103,1.78148,1.78148,0,0,1-.36914.03516,1.2576,1.2576,0,0,1-.38672-.05811.88479.88479,0,0,1-.31347-.17383A.82235.82235,0,0,1,57.86,78.1331a1.02211,1.02211,0,0,1-.0791-.41944.78292.78292,0,0,1,.11523-.40576,1.01493,1.01493,0,0,1,.373-.3457,2.39446,2.39446,0,0,1,.67383-.24756,4.57873,4.57873,0,0,1,1.01855-.09668v-.27832a.96865.96865,0,0,0-.17676-.62891.64077.64077,0,0,0-.52343-.21289,1.10516,1.10516,0,0,0-.38282.05762,1.44564,1.44564,0,0,0-.26953.12939q-.11426.07179-.19629.12989a.28246.28246,0,0,1-.16308.05761.19.19,0,0,1-.11035-.0332.253.253,0,0,1-.0752-.08252l-.11133-.19922a2.0215,2.0215,0,0,1,.63281-.42334,1.95109,1.95109,0,0,1,.75293-.14013,1.35015,1.35015,0,0,1,.52832.09765,1.08784,1.08784,0,0,1,.38868.27344,1.16534,1.16534,0,0,1,.23828.42334,1.76182,1.76182,0,0,1,.08008.5459ZM58.95666,78.221a1.28053,1.28053,0,0,0,.30078-.03321,1.1945,1.1945,0,0,0,.25781-.09472,1.33211,1.33211,0,0,0,.23047-.14893,1.93738,1.93738,0,0,0,.21582-.19922v-.73144a4.14816,4.14816,0,0,0-.73144.05468,2.0324,2.0324,0,0,0-.49024.14209.67966.67966,0,0,0-.27441.208.44525.44525,0,0,0-.08594.26758.5933.5933,0,0,0,.04492.24268.45475.45475,0,0,0,.123.16748.475.475,0,0,0,.18164.09472A.82945.82945,0,0,0,58.95666,78.221Z"/><path class="f" d="M62.16662,73.44706v3.03418h.16016a.30437.30437,0,0,0,.11621-.019.32685.32685,0,0,0,.10156-.0791l1.12012-1.2002a.56855.56855,0,0,1,.10449-.09131.25273.25273,0,0,1,.13965-.03467h.56738l-1.30566,1.38965a1.216,1.216,0,0,1-.09571.105.56908.56908,0,0,1-.10742.08008.68049.68049,0,0,1,.11426.09668.92178.92178,0,0,1,.0957.124l1.38672,1.75h-.56055a.26717.26717,0,0,1-.13086-.02978.33532.33532,0,0,1-.10351-.09277l-1.165-1.45264a.2737.2737,0,0,0-.10547-.09619.4186.4186,0,0,0-.15723-.02246h-.1748v1.69384h-.627V73.44706Z"/><path class="f" d="M66.38049,75.00077a1.58133,1.58133,0,0,1,.58789.10694,1.31033,1.31033,0,0,1,.46484.3081,1.39686,1.39686,0,0,1,.30664.49658,1.92709,1.92709,0,0,1,.11035.67383.41437.41437,0,0,1-.03125.19629.13114.13114,0,0,1-.11914.04883H65.34045a1.97366,1.97366,0,0,0,.09082.58447,1.2077,1.2077,0,0,0,.23144.41455.92447.92447,0,0,0,.34961.24854,1.19747,1.19747,0,0,0,.45508.08252,1.33731,1.33731,0,0,0,.4043-.0542,1.94365,1.94365,0,0,0,.293-.11719,2.158,2.158,0,0,0,.2041-.11768.27256.27256,0,0,1,.1416-.0542.13636.13636,0,0,1,.11914.05958l.1748.22753a1.16592,1.16592,0,0,1-.27636.24317,1.71413,1.71413,0,0,1-.34473.16992,2.15055,2.15055,0,0,1-.37988.09961,2.2764,2.2764,0,0,1-.3877.0332,1.80934,1.80934,0,0,1-.67773-.124,1.4867,1.4867,0,0,1-.53516-.36426,1.68408,1.68408,0,0,1-.35254-.59326,2.40966,2.40966,0,0,1-.126-.812,2.05869,2.05869,0,0,1,.11425-.69287,1.63449,1.63449,0,0,1,.32715-.55811,1.50871,1.50871,0,0,1,.52149-.37109A1.71191,1.71191,0,0,1,66.38049,75.00077Zm.01367.4585a.95811.95811,0,0,0-.71094.26074,1.2324,1.2324,0,0,0-.32129.72266h1.92871a1.27779,1.27779,0,0,0-.05957-.397.88993.88993,0,0,0-.17578-.31152A.78012.78012,0,0,0,66.774,75.531.95128.95128,0,0,0,66.39416,75.45927Z"/><path class="f" d="M110.0172,76.50956v2.09277h-.67578V73.58671h1.418a3.10108,3.10108,0,0,1,.82227.09619,1.57385,1.57385,0,0,1,.57226.27832,1.11712,1.11712,0,0,1,.334.43945,1.46837,1.46837,0,0,1,.1084.57569,1.4303,1.4303,0,0,1-.084.49707,1.30274,1.30274,0,0,1-.24316.41455,1.43917,1.43917,0,0,1-.38867.31348,1.90772,1.90772,0,0,1-.51954.1958.72369.72369,0,0,1,.22461.21338l1.46289,1.99169h-.60253a.29587.29587,0,0,1-.27247-.14355l-1.30175-1.792a.37872.37872,0,0,0-.12989-.12061.47048.47048,0,0,0-.21-.03662Zm0-.49365h.71094a1.72376,1.72376,0,0,0,.52246-.07178,1.05938,1.05938,0,0,0,.37793-.20312.83632.83632,0,0,0,.2295-.313,1.01816,1.01816,0,0,0,.07714-.40283.79946.79946,0,0,0-.29589-.6753,1.42721,1.42721,0,0,0-.87989-.22754h-.74219Z"/><path class="f" d="M115.71154,75.6414a.13893.13893,0,0,1-.12988.07715.24549.24549,0,0,1-.11817-.03858c-.04492-.02588-.09863-.0542-.16308-.08594a1.56787,1.56787,0,0,0-.22949-.0874,1.0906,1.0906,0,0,0-.31446-.04053.93115.93115,0,0,0-.28418.04053.676.676,0,0,0-.21484.11035.47986.47986,0,0,0-.13672.1626.44022.44022,0,0,0-.04687.20117.33791.33791,0,0,0,.07812.22754.68768.68768,0,0,0,.209.15772,1.79831,1.79831,0,0,0,.29395.11718q.16407.05055.33691.1084c.11622.03858.22852.08106.33789.12793a1.20057,1.20057,0,0,1,.29395.17481.755.755,0,0,1,.28711.623,1.17084,1.17084,0,0,1-.08691.45313.9882.9882,0,0,1-.25977.36035,1.23976,1.23976,0,0,1-.41992.23975,1.71224,1.71224,0,0,1-.57324.08789,1.79289,1.79289,0,0,1-.67286-.1211,1.7065,1.7065,0,0,1-.51074-.30957l.14746-.23779a.21959.21959,0,0,1,.06641-.07031.18825.18825,0,0,1,.10156-.02442.23745.23745,0,0,1,.13281.04883c.04688.03272.10352.06885.16993.10889a1.30427,1.30427,0,0,0,.24121.1084,1.10121,1.10121,0,0,0,.35547.04882.96675.96675,0,0,0,.31836-.04736.66434.66434,0,0,0,.22753-.12744.51073.51073,0,0,0,.13477-.18555.57325.57325,0,0,0,.04395-.22412.36953.36953,0,0,0-.07911-.24316.67246.67246,0,0,0-.208-.16455,1.77,1.77,0,0,0-.2959-.11914c-.11133-.03369-.22364-.06934-.33985-.10645-.11523-.0376-.22851-.08008-.33886-.12793a1.18074,1.18074,0,0,1-.2959-.18017.79959.79959,0,0,1-.208-.26758.86417.86417,0,0,1-.0791-.38672.95251.95251,0,0,1,.3291-.71973,1.21542,1.21542,0,0,1,.39551-.22558,1.5783,1.5783,0,0,1,.53515-.084,1.69255,1.69255,0,0,1,.62891.11035,1.48141,1.48141,0,0,1,.48047.30274Z"/><path class="f" d="M116.51623,78.21757a.45853.45853,0,0,1,.0332-.17188.434.434,0,0,1,.0918-.13964.41729.41729,0,0,1,.13769-.09473.42613.42613,0,0,1,.17188-.03516.42149.42149,0,0,1,.1709.03516.45166.45166,0,0,1,.14062.09473.43667.43667,0,0,1,.09278.13964.45853.45853,0,0,1,.0332.17188.45064.45064,0,0,1-.0332.17285.44114.44114,0,0,1-.09278.13818.42278.42278,0,0,1-.14062.09278.43732.43732,0,0,1-.1709.03369.44216.44216,0,0,1-.17188-.03369.39191.39191,0,0,1-.13769-.09278.43829.43829,0,0,1-.0918-.13818A.45064.45064,0,0,1,116.51623,78.21757Z"/><path class="f" d="M122.46642,73.85966a.30057.30057,0,0,1-.084.21875.38378.38378,0,0,1-.2832.08594H120.524l-.23144,1.31591a3.46822,3.46822,0,0,1,.7246-.084,1.90689,1.90689,0,0,1,.69141.11572,1.4208,1.4208,0,0,1,.50293.31836,1.32574,1.32574,0,0,1,.30566.47949,1.69653,1.69653,0,0,1,.10352.60205,1.78051,1.78051,0,0,1-.14062.72071,1.64353,1.64353,0,0,1-.38282.55127,1.672,1.672,0,0,1-.57226.352,2.02336,2.02336,0,0,1-.71.12256,1.99246,1.99246,0,0,1-.42383-.04395,2.13885,2.13885,0,0,1-.37793-.11719,2.225,2.225,0,0,1-.32617-.168,1.90462,1.90462,0,0,1-.26563-.19971l.18945-.26563a.194.194,0,0,1,.168-.09131.31229.31229,0,0,1,.15528.0542c.05957.03614.13183.07666.21582.1211a1.84478,1.84478,0,0,0,.29492.1206,1.337,1.337,0,0,0,.4043.0542,1.2565,1.2565,0,0,0,.47265-.084,1.00571,1.00571,0,0,0,.35938-.23975,1.08123,1.08123,0,0,0,.22851-.37256,1.39265,1.39265,0,0,0,.08106-.48681,1.25384,1.25384,0,0,0-.06836-.42334.83312.83312,0,0,0-.207-.32227.94457.94457,0,0,0-.34473-.20605,1.43125,1.43125,0,0,0-.48242-.07373,2.56707,2.56707,0,0,0-.39258.03125,2.78046,2.78046,0,0,0-.41992.10156l-.3916-.11524.40625-2.34521h2.376Z"/><path class="f" d="M126.95275,76.09648a4.04905,4.04905,0,0,1-.1416,1.13916,2.38944,2.38944,0,0,1-.38672.79638,1.55141,1.55141,0,0,1-.5791.46875,1.73755,1.73755,0,0,1-1.43164,0,1.5553,1.5553,0,0,1-.5752-.46875,2.3519,2.3519,0,0,1-.38574-.79638,4.724,4.724,0,0,1,0-2.28028,2.37058,2.37058,0,0,1,.38574-.7998,1.55142,1.55142,0,0,1,.5752-.47071,1.74269,1.74269,0,0,1,1.43164,0,1.54753,1.54753,0,0,1,.5791.47071,2.40849,2.40849,0,0,1,.38672.7998A4.06591,4.06591,0,0,1,126.95275,76.09648Zm-.64746,0a4.14035,4.14035,0,0,0-.0957-.96436,1.94245,1.94245,0,0,0-.25879-.62842.98392.98392,0,0,0-.377-.34131,1.00976,1.00976,0,0,0-.88868,0,.9658.9658,0,0,0-.375.34131,1.98751,1.98751,0,0,0-.25683.62842,4.8482,4.8482,0,0,0,0,1.92676,1.98931,1.98931,0,0,0,.25683.62646.9658.9658,0,0,0,.375.34131,1.00967,1.00967,0,0,0,.88868,0,.98392.98392,0,0,0,.377-.34131,1.944,1.944,0,0,0,.25879-.62646A4.11958,4.11958,0,0,0,126.30529,76.09648Z"/><path class="f" d="M131.01232,76.09648a4.04905,4.04905,0,0,1-.1416,1.13916,2.38944,2.38944,0,0,1-.38672.79638,1.55141,1.55141,0,0,1-.5791.46875,1.73755,1.73755,0,0,1-1.43164,0,1.5553,1.5553,0,0,1-.5752-.46875,2.3519,2.3519,0,0,1-.38574-.79638,4.724,4.724,0,0,1,0-2.28028,2.37058,2.37058,0,0,1,.38574-.7998,1.55142,1.55142,0,0,1,.5752-.47071,1.74269,1.74269,0,0,1,1.43164,0,1.54753,1.54753,0,0,1,.5791.47071,2.40849,2.40849,0,0,1,.38672.7998A4.06591,4.06591,0,0,1,131.01232,76.09648Zm-.64746,0a4.14035,4.14035,0,0,0-.0957-.96436,1.94245,1.94245,0,0,0-.25879-.62842.98392.98392,0,0,0-.37695-.34131,1.00976,1.00976,0,0,0-.88868,0,.9658.9658,0,0,0-.375.34131,1.98751,1.98751,0,0,0-.25683.62842,4.8482,4.8482,0,0,0,0,1.92676,1.98931,1.98931,0,0,0,.25683.62646.9658.9658,0,0,0,.375.34131,1.00967,1.00967,0,0,0,.88868,0,.98392.98392,0,0,0,.37695-.34131,1.944,1.944,0,0,0,.25879-.62646A4.11958,4.11958,0,0,0,130.36486,76.09648Z"/><path class="f" d="M157.64318,73.531a1.82954,1.82954,0,0,1,.59473.09423,1.36563,1.36563,0,0,1,.47754.27491,1.27959,1.27959,0,0,1,.31738.439,1.4281,1.4281,0,0,1,.11523.58838,1.551,1.551,0,0,1-.084.51758,2.10122,2.10122,0,0,1-.22754.457,3.31312,3.31312,0,0,1-.33105.42334c-.124.13672-.25684.27588-.39649.41846L156.78869,78.095a2.58291,2.58291,0,0,1,.28418-.06152,1.76486,1.76486,0,0,1,.27637-.02246h1.67968a.21761.21761,0,0,1,.16114.05908.20826.20826,0,0,1,.05957.15429v.37793h-3.34571V78.389a.38743.38743,0,0,1,.02637-.13672.37168.37168,0,0,1,.085-.1294l1.60645-1.61328q.20068-.20361.36425-.39062a2.84964,2.84964,0,0,0,.28223-.376,1.75378,1.75378,0,0,0,.17969-.3833,1.33833,1.33833,0,0,0,.06348-.415.98659.98659,0,0,0-.07032-.38672.74406.74406,0,0,0-.19238-.27441.82477.82477,0,0,0-.28711-.16309,1.12188,1.12188,0,0,0-.35351-.0542,1.06252,1.06252,0,0,0-.34961.05615.9356.9356,0,0,0-.28516.15577.92565.92565,0,0,0-.21.23632.91419.91419,0,0,0-.1211.30079.27843.27843,0,0,1-.084.147.22549.22549,0,0,1-.14746.04541l-.03613-.00147c-.0127-.001-.02735-.00293-.04395-.00537l-.32519-.05615a1.84732,1.84732,0,0,1,.18847-.60693,1.45457,1.45457,0,0,1,.35547-.44287,1.50541,1.50541,0,0,1,.49317-.271A1.88334,1.88334,0,0,1,157.64318,73.531Z"/><path class="f" d="M109.49474,93.97489v2.26856h2.16211v.71679h-2.16211v2.28467h-.77539V96.96024H106.568v-.71679h2.15136V93.97489Z"/><path d="M106.2633,64.86991a.96945.96945,0,0,0,.38281-.07177.78185.78185,0,0,0,.28613-.20069.86613.86613,0,0,0,.17871-.31347,1.29567,1.29567,0,0,0,.0625-.4126V61.49h.73926v2.38135a1.83455,1.83455,0,0,1-.11426.65625,1.4585,1.4585,0,0,1-.84765.86035,1.98954,1.98954,0,0,1-1.375,0,1.4483,1.4483,0,0,1-.8457-.86035,1.83455,1.83455,0,0,1-.11426-.65625V61.49h.73926v2.37891a1.29774,1.29774,0,0,0,.0625.41259.88115.88115,0,0,0,.17773.31446.77115.77115,0,0,0,.2832.20215A.97933.97933,0,0,0,106.2633,64.86991Z"/><path d="M108.62756,65.46659V62.6453h.415a.1673.1673,0,0,1,.17382.12354l.04688.22265a1.56481,1.56481,0,0,1,.17969-.15917,1.25924,1.25924,0,0,1,.20117-.124,1.02042,1.02042,0,0,1,.22656-.07959,1.16858,1.16858,0,0,1,.26367-.02783,1.0126,1.0126,0,0,1,.41016.07861.81127.81127,0,0,1,.29883.22022.98917.98917,0,0,1,.18164.33789,1.44669,1.44669,0,0,1,.06054.4331v1.7959h-.67871v-1.7959a.59993.59993,0,0,0-.12011-.3999.44249.44249,0,0,0-.3584-.1416.70011.70011,0,0,0-.3291.07959,1.15247,1.15247,0,0,0-.292.21729v2.04052Z"/><path d="M112.5797,61.823a.39435.39435,0,0,1-.03515.165.46652.46652,0,0,1-.0957.13427.45313.45313,0,0,1-.13868.09229.42127.42127,0,0,1-.16992.03467.41082.41082,0,0,1-.167-.03467.43941.43941,0,0,1-.13574-.09229.42078.42078,0,0,1-.0918-.13427.39436.39436,0,0,1-.03516-.165.44176.44176,0,0,1,.127-.30811.43956.43956,0,0,1,.13574-.09228.41045.41045,0,0,1,.167-.03418.421.421,0,0,1,.16992.03418.45329.45329,0,0,1,.13868.09228.46758.46758,0,0,1,.0957.13721A.4198.4198,0,0,1,112.5797,61.823Zm-.10156.82226v2.82129h-.67969V62.6453Z"/><path d="M114.1715,65.51054a.74157.74157,0,0,1-.56347-.20752.79808.79808,0,0,1-.19825-.57324V63.1536h-.28515a.13944.13944,0,0,1-.09571-.03564.13629.13629,0,0,1-.03906-.10693v-.26954l.45313-.07421.14257-.77a.14382.14382,0,0,1,.05079-.08545.166.166,0,0,1,.10156-.03028h.35156v.88819h.74219v.48388h-.74219v1.5293a.29473.29473,0,0,0,.06641.20606.21973.21973,0,0,0,.17578.07421.31706.31706,0,0,0,.10547-.01513.60872.60872,0,0,0,.07422-.03125c.02148-.01123.04-.02149.05664-.03174a.09062.09062,0,0,1,.04882-.01514.07677.07677,0,0,1,.04981.01514.26224.26224,0,0,1,.042.04541l.20313.33008a1.03774,1.03774,0,0,1-.3418.187A1.26942,1.26942,0,0,1,114.1715,65.51054Z"/><path d="M117.23791,64.06669v1.3999h-.74024V61.49h1.2959a2.27035,2.27035,0,0,1,.69043.09375,1.324,1.324,0,0,1,.48047.26123,1.02085,1.02085,0,0,1,.28125.40137,1.507,1.507,0,0,1-.00586,1.041,1.095,1.095,0,0,1-.28906.41358,1.33991,1.33991,0,0,1-.48047.26953,2.139,2.139,0,0,1-.67676.09619Zm0-.57715h.55566a1.10347,1.10347,0,0,0,.35449-.05127.64815.64815,0,0,0,.25-.14551.596.596,0,0,0,.14844-.23095.87962.87962,0,0,0,.04981-.3042.799.799,0,0,0-.04981-.28858.56586.56586,0,0,0-.14844-.21972.65122.65122,0,0,0-.25-.13916,1.16609,1.16609,0,0,0-.35449-.04785h-.55566Z"/><path d="M119.87267,65.46659V62.6453h.39844a.218.218,0,0,1,.14649.03809.22734.22734,0,0,1,.05468.13232l.041.34082a1.337,1.337,0,0,1,.35449-.41259.748.748,0,0,1,.45606-.15088.5913.5913,0,0,1,.34765.09619l-.08789.50879a.10225.10225,0,0,1-.03711.06982.11972.11972,0,0,1-.07422.02051.46759.46759,0,0,1-.1123-.019.75912.75912,0,0,0-.18945-.01905.57418.57418,0,0,0-.36329.1167.88883.88883,0,0,0-.25488.34229v1.75732Z"/><path d="M122.944,61.823a.3945.3945,0,0,1-.03515.165.48563.48563,0,0,1-.09571.13427.4416.4416,0,0,1-.13867.09229.42941.42941,0,0,1-.1709.03467.40958.40958,0,0,1-.166-.03467.44391.44391,0,0,1-.13672-.09229.47426.47426,0,0,1-.0918-.13427.40937.40937,0,0,1-.03418-.165.4359.4359,0,0,1,.03418-.1709.47572.47572,0,0,1,.0918-.13721.44406.44406,0,0,1,.13672-.09228.40915.40915,0,0,1,.166-.03418.429.429,0,0,1,.1709.03418.44174.44174,0,0,1,.13867.09228.48633.48633,0,0,1,.09571.13721A.42.42,0,0,1,122.944,61.823Zm-.10156.82226v2.82129h-.67871V62.6453Z"/><path d="M125.5924,63.242a.3891.3891,0,0,1-.05859.06055.1387.1387,0,0,1-.084.022.18983.18983,0,0,1-.10254-.03174c-.03222-.021-.07226-.04492-.11816-.07177a.88137.88137,0,0,0-.16309-.07129.75539.75539,0,0,0-.23535-.03174.712.712,0,0,0-.31348.06494.5952.5952,0,0,0-.2246.18555.83367.83367,0,0,0-.13282.293,1.57217,1.57217,0,0,0-.04394.38916,1.52044,1.52044,0,0,0,.04785.40136.85872.85872,0,0,0,.13867.29541.59383.59383,0,0,0,.2207.18164.66643.66643,0,0,0,.291.062.72853.72853,0,0,0,.2627-.04.79992.79992,0,0,0,.16894-.08789q.06885-.04834.12012-.08789a.17632.17632,0,0,1,.11426-.04.137.137,0,0,1,.123.063l.19531.24755a1.21867,1.21867,0,0,1-.24414.22168,1.3374,1.3374,0,0,1-.27441.14307,1.3797,1.3797,0,0,1-.292.0752,2.09619,2.09619,0,0,1-.29981.022,1.24862,1.24862,0,0,1-.49218-.09717,1.15171,1.15171,0,0,1-.40332-.28467,1.38853,1.38853,0,0,1-.27247-.458,1.91878,1.91878,0,0,1-.01074-1.19336,1.30857,1.30857,0,0,1,.2627-.45947,1.20244,1.20244,0,0,1,.42871-.30371,1.48322,1.48322,0,0,1,.58887-.11035,1.39544,1.39544,0,0,1,.55371.102,1.34322,1.34322,0,0,1,.42773.2915Z"/><path d="M127.399,62.60087a1.37113,1.37113,0,0,1,.49024.08545,1.07214,1.07214,0,0,1,.38671.249,1.13089,1.13089,0,0,1,.25293.40137,1.516,1.516,0,0,1,.09082.543.933.933,0,0,1-.00683.12793.21565.21565,0,0,1-.02442.08008.10476.10476,0,0,1-.04882.041.20274.20274,0,0,1-.07715.01221h-1.74317a.973.973,0,0,0,.23438.63818.72486.72486,0,0,0,.53808.20362.93034.93034,0,0,0,.28516-.03858,1.33261,1.33261,0,0,0,.209-.08545c.05958-.03076.11133-.05957.15625-.085a.2623.2623,0,0,1,.13086-.03857.14252.14252,0,0,1,.07129.0166.15371.15371,0,0,1,.05274.04639l.19824.24755a1.14014,1.14014,0,0,1-.25293.22168,1.45138,1.45138,0,0,1-.293.14307,1.627,1.627,0,0,1-.31152.0752,2.22313,2.22313,0,0,1-.30664.022,1.51246,1.51246,0,0,1-.54688-.09717,1.22,1.22,0,0,1-.43945-.28906,1.3484,1.3484,0,0,1-.29492-.47315,1.83146,1.83146,0,0,1-.10742-.65283,1.55714,1.55714,0,0,1,.09375-.543,1.29388,1.29388,0,0,1,.26855-.44287,1.25606,1.25606,0,0,1,.42578-.29834A1.40838,1.40838,0,0,1,127.399,62.60087Zm.01367.48682a.62737.62737,0,0,0-.46484.168.82545.82545,0,0,0-.21484.47559h1.27636a.82472.82472,0,0,0-.03613-.24853.57564.57564,0,0,0-.10938-.20508.52245.52245,0,0,0-.1875-.13867A.63189.63189,0,0,0,127.41271,63.08769Z"/><path d="M149.47619,63.47782a2.34171,2.34171,0,0,1-.05469.51026,2.13121,2.13121,0,0,1-.1582.45507,1.85867,1.85867,0,0,1-.25195.38917,1.79937,1.79937,0,0,1-.3379.312l1.00879,1.10009h-.61035a.74765.74765,0,0,1-.2373-.03564.46038.46038,0,0,1-.19434-.13232l-.583-.64356a2.16714,2.16714,0,0,1-.28711.05811,2.39439,2.39439,0,0,1-.30664.019,2.1617,2.1617,0,0,1-.82421-.15234,1.87121,1.87121,0,0,1-.6377-.4253,1.9115,1.9115,0,0,1-.41113-.64453,2.32757,2.32757,0,0,1,0-1.62012,1.91652,1.91652,0,0,1,.41113-.64453,1.86285,1.86285,0,0,1,.6377-.4248,2.1525,2.1525,0,0,1,.82421-.15283,2.13027,2.13027,0,0,1,.82227.1538,1.86284,1.86284,0,0,1,1.04492,1.06836A2.21555,2.21555,0,0,1,149.47619,63.47782Zm-.75879,0a1.85184,1.85184,0,0,0-.08691-.58691,1.237,1.237,0,0,0-.249-.44141,1.0591,1.0591,0,0,0-.39453-.27783,1.34807,1.34807,0,0,0-.52344-.09619,1.365,1.365,0,0,0-.52539.09619,1.07779,1.07779,0,0,0-.39746.27783,1.24219,1.24219,0,0,0-.25195.44141,2.00361,2.00361,0,0,0,0,1.17383,1.2293,1.2293,0,0,0,.25195.44043,1.0916,1.0916,0,0,0,.39746.27636,1.37407,1.37407,0,0,0,.52539.0962,1.357,1.357,0,0,0,.52344-.0962,1.07246,1.07246,0,0,0,.39453-.27636,1.22415,1.22415,0,0,0,.249-.44043A1.85191,1.85191,0,0,0,148.7174,63.47782Z"/><path d="M150.6422,62.64482v1.793a.59989.59989,0,0,0,.12012.39991.44231.44231,0,0,0,.3584.1416.7175.7175,0,0,0,.33008-.07813,1.16854,1.16854,0,0,0,.292-.21582V62.64482h.67871V65.4661h-.415a.1662.1662,0,0,1-.17285-.12353l-.04687-.22559a1.91034,1.91034,0,0,1-.18164.16065,1.07733,1.07733,0,0,1-.42774.20361,1.1489,1.1489,0,0,1-.26269.02881.99969.99969,0,0,1-.40821-.07813.82555.82555,0,0,1-.29883-.22168.97416.97416,0,0,1-.18261-.33935,1.44585,1.44585,0,0,1-.06153-.43311v-1.793Z"/><path d="M155.359,65.4661h-.30566a.3326.3326,0,0,1-.15137-.0288.18175.18175,0,0,1-.082-.1167l-.06055-.20118a2.3554,2.3554,0,0,1-.21094.16944,1.25846,1.25846,0,0,1-.21289.12207,1.059,1.059,0,0,1-.23339.07422,1.40771,1.40771,0,0,1-.27539.0249,1.07823,1.07823,0,0,1-.33008-.04834.71725.71725,0,0,1-.25977-.14453.65659.65659,0,0,1-.16894-.24024.84242.84242,0,0,1-.06055-.334.65324.65324,0,0,1,.084-.31592.78121.78121,0,0,1,.2793-.28125,1.763,1.763,0,0,1,.51953-.20849,3.31525,3.31525,0,0,1,.80567-.08252v-.16651a.62847.62847,0,0,0-.12012-.42236.434.434,0,0,0-.34766-.13721.8344.8344,0,0,0-.27441.03858,1.00209,1.00209,0,0,0-.19141.08642c-.05469.03223-.10449.061-.15039.08643a.301.301,0,0,1-.15137.03857.198.198,0,0,1-.11816-.03564.28356.28356,0,0,1-.0791-.08789l-.124-.21729a1.67719,1.67719,0,0,1,1.17382-.44531,1.13125,1.13125,0,0,1,.44141.081.9243.9243,0,0,1,.3291.22559.96543.96543,0,0,1,.20508.34473,1.32393,1.32393,0,0,1,.07031.43994Zm-1.32031-.42334a.91086.91086,0,0,0,.19238-.019.72447.72447,0,0,0,.166-.05713.84869.84869,0,0,0,.15136-.09326,1.36029,1.36029,0,0,0,.14747-.13135v-.47216a2.75167,2.75167,0,0,0-.4961.03759,1.30076,1.30076,0,0,0-.32031.09522.407.407,0,0,0-.17188.13574.33846.33846,0,0,0,.05469.42676A.45434.45434,0,0,0,154.03869,65.04276Z"/><path d="M156.027,65.4661V62.64482h.415a.168.168,0,0,1,.17383.12353l.0459.22266a1.57155,1.57155,0,0,1,.18066-.15918,1.2514,1.2514,0,0,1,.2002-.124,1.029,1.029,0,0,1,.22753-.07959,1.16861,1.16861,0,0,1,.26368-.02783,1.01258,1.01258,0,0,1,.41015.07861.79981.79981,0,0,1,.29785.22022.9569.9569,0,0,1,.18164.33789,1.44585,1.44585,0,0,1,.06153.43311V65.4661h-.67871V63.67021a.59989.59989,0,0,0-.12012-.39991.44251.44251,0,0,0-.3584-.1416.70688.70688,0,0,0-.33008.07959,1.16551,1.16551,0,0,0-.291.21729V65.4661Z"/><path d="M160.0797,65.51005a.743.743,0,0,1-.56347-.20752.79808.79808,0,0,1-.19824-.57324V63.15312h-.28516a.1394.1394,0,0,1-.0957-.03565.13626.13626,0,0,1-.03907-.10693V62.741l.45313-.07422.14355-.77a.135.135,0,0,1,.05079-.08545.16108.16108,0,0,1,.10058-.03027h.35156v.88818h.74219v.48389h-.74219v1.52929a.29945.29945,0,0,0,.06641.20606.22247.22247,0,0,0,.17578.07422.3131.3131,0,0,0,.10547-.01514.54932.54932,0,0,0,.07422-.03125c.02148-.01123.04-.02148.05664-.03174a.09376.09376,0,0,1,.0498-.01514.07574.07574,0,0,1,.04883.01514.2288.2288,0,0,1,.042.04541l.20313.33008a1.033,1.033,0,0,1-.34082.187A1.28,1.28,0,0,1,160.0797,65.51005Z"/><path d="M162.107,61.82255a.38071.38071,0,0,1-.03613.165.44589.44589,0,0,1-.09473.13428.45324.45324,0,0,1-.13867.09228.42941.42941,0,0,1-.1709.03467.40627.40627,0,0,1-.166-.03467.4443.4443,0,0,1-.13672-.09228.45529.45529,0,0,1-.09179-.13428.40937.40937,0,0,1-.03418-.165.4359.4359,0,0,1,.03418-.1709.457.457,0,0,1,.09179-.13721.4443.4443,0,0,1,.13672-.09228.40589.40589,0,0,1,.166-.03418.429.429,0,0,1,.1709.03418.45324.45324,0,0,1,.13867.09228.44738.44738,0,0,1,.09473.13721A.40518.40518,0,0,1,162.107,61.82255Zm-.10156.82227V65.4661h-.67969V62.64482Z"/><path d="M163.69885,65.51005a.74305.74305,0,0,1-.56348-.20752.79808.79808,0,0,1-.19824-.57324V63.15312H162.652a.1394.1394,0,0,1-.0957-.03565.13626.13626,0,0,1-.03907-.10693V62.741l.45313-.07422.14355-.77a.135.135,0,0,1,.05079-.08545.16108.16108,0,0,1,.10058-.03027h.35156v.88818H164.36v.48389h-.74317v1.52929a.2995.2995,0,0,0,.06641.20606.22247.22247,0,0,0,.17578.07422.32321.32321,0,0,0,.10645-.01514.68231.68231,0,0,0,.07422-.03125c.0205-.01123.03906-.02148.05566-.03174a.09376.09376,0,0,1,.0498-.01514.074.074,0,0,1,.04883.01514.2033.2033,0,0,1,.042.04541l.20313.33008a1.02337,1.02337,0,0,1-.34082.187A1.28,1.28,0,0,1,163.69885,65.51005Z"/><path d="M165.902,66.24149a.266.266,0,0,1-.0791.10889.23931.23931,0,0,1-.14649.03711h-.50585l.52734-1.13037-1.14063-2.6123h.59375a.19133.19133,0,0,1,.127.03808.253.253,0,0,1,.06543.08838l.60254,1.46289a1.43527,1.43527,0,0,1,.05175.14844c.01465.05127.02735.10254.03907.15381.01464-.05274.03027-.1045.04785-.15381s.03613-.1001.05664-.15137l.5664-1.46a.2045.2045,0,0,1,.07227-.09082.19444.19444,0,0,1,.11426-.03564h.54492Z"/><polyline class="g" points="171.646 103.375 171.646 104.375 170.646 104.375"/><line class="h" x1="168.62367" y1="104.37462" x2="48.27238" y2="104.37462"/><polyline class="g" points="47.261 104.375 46.261 104.375 46.261 103.375"/><line class="i" x1="46.26102" y1="101.3325" x2="46.26102" y2="90.10106"/><polyline class="g" points="46.261 89.08 46.261 88.08 47.261 88.08"/><line class="h" x1="49.28373" y1="88.08006" x2="169.63502" y2="88.08006"/><polyline class="g" points="170.646 88.08 171.646 88.08 171.646 89.08"/><line class="i" x1="171.64637" y1="91.12218" x2="171.64637" y2="102.3535"/><polyline class="j" points="159.663 116.111 161.658 118.272 163.875 116.111"/></svg>