<svg xmlns="http://www.w3.org/2000/svg" viewBox="0 0 50.51 50.82"><defs><style>.a,.c{fill:#f48928;}.b{fill:#fff;}.b,.c{fill-rule:evenodd;}.d,.e{fill:none;stroke-miterlimit:10;}.d{stroke:#f48928;}.e{stroke:#e0e0e0;stroke-width:0.5px;opacity:0.51;}</style></defs><path class="a" d="M17.38,23.24h9.74a.31.31,0,0,0,0-.62H17.38a.31.31,0,0,0,0,.62Z"/><path class="a" d="M27.12,23.36H17.38a.43.43,0,0,1-.43-.43.44.44,0,0,1,.43-.44h9.74a.44.44,0,0,1,.44.44A.44.44,0,0,1,27.12,23.36Zm-9.74-.62a.19.19,0,0,0-.18.19.18.18,0,0,0,.18.18h9.74a.18.18,0,0,0,.19-.18.19.19,0,0,0-.19-.19Z"/><path class="a" d="M27.43,25.1a.31.31,0,0,0-.31-.31H17.38a.31.31,0,1,0,0,.62h9.74A.31.31,0,0,0,27.43,25.1Z"/><path class="a" d="M27.12,25.54H17.38A.44.44,0,0,1,17,25.1a.43.43,0,0,1,.43-.43h9.74a.44.44,0,0,1,.44.43A.44.44,0,0,1,27.12,25.54Zm-9.74-.62a.18.18,0,0,0-.18.18.19.19,0,0,0,.18.19h9.74a.19.19,0,0,0,.19-.19.18.18,0,0,0-.19-.18Z"/><path class="a" d="M31.28,13H16a1.38,1.38,0,0,0-1.38,1.38V35a.29.29,0,0,0,.09.22l3.23,3.23a.29.29,0,0,0,.22.09H31.28a1.38,1.38,0,0,0,1.39-1.38V14.36A1.38,1.38,0,0,0,31.28,13ZM17.83,37.48l-2.17-2.17h1.65a.53.53,0,0,1,.52.52Zm13.45.44H18.45V35.83a1.14,1.14,0,0,0-1.14-1.14H15.22V14.36A.76.76,0,0,1,16,13.6h15.3a.77.77,0,0,1,.77.76v22.8h0A.77.77,0,0,1,31.28,37.92Z"/><path class="a" d="M31.28,38.67H18.14a.44.44,0,0,1-.31-.13L14.6,35.31a.44.44,0,0,1-.13-.31V14.36A1.52,1.52,0,0,1,16,12.85h15.3a1.51,1.51,0,0,1,1.51,1.51v22.8A1.51,1.51,0,0,1,31.28,38.67ZM16,13.1a1.27,1.27,0,0,0-1.26,1.26V35a.16.16,0,0,0,.06.13L18,38.36a.16.16,0,0,0,.13.06H31.28a1.26,1.26,0,0,0,1.26-1.26V14.36a1.26,1.26,0,0,0-1.26-1.26Zm15.3,24.95h-13V35.83a1,1,0,0,0-1-1H15.09V14.36a.89.89,0,0,1,.89-.89h15.3a.89.89,0,0,1,.89.89v22.8A.89.89,0,0,1,31.28,38.05ZM18.57,37.8H31.28a.64.64,0,0,0,.64-.64V14.36a.64.64,0,0,0-.64-.64H16a.64.64,0,0,0-.64.64V34.57h2a1.25,1.25,0,0,1,1.26,1.26Zm-.62,0-2.6-2.59h2a.64.64,0,0,1,.64.64Zm-2-2.34,1.74,1.74V35.83a.38.38,0,0,0-.39-.39Z"/><path class="a" d="M17.38,21.07h9.74a.32.32,0,0,0,0-.63H17.38a.32.32,0,0,0,0,.63Z"/><path class="a" d="M27.12,21.19H17.38a.44.44,0,0,1,0-.87h9.74a.44.44,0,0,1,.44.44A.44.44,0,0,1,27.12,21.19Zm-9.74-.62a.18.18,0,0,0-.18.19.18.18,0,0,0,.18.18h9.74a.18.18,0,0,0,.19-.18.18.18,0,0,0-.19-.19Z"/><path class="a" d="M29.88,24.79H28.72a.31.31,0,0,0,0,.62h1.16a.31.31,0,0,0,0-.62Z"/><path class="a" d="M29.88,25.54H28.72a.44.44,0,0,1-.43-.44.43.43,0,0,1,.43-.43h1.16a.44.44,0,0,1,.44.43A.44.44,0,0,1,29.88,25.54Zm-1.16-.62a.18.18,0,0,0-.18.18.19.19,0,0,0,.18.19h1.16a.2.2,0,0,0,.19-.19.19.19,0,0,0-.19-.18Z"/><path class="a" d="M29.88,22.62H28.72a.31.31,0,0,0,0,.62h1.16a.31.31,0,0,0,0-.62Z"/><path class="a" d="M29.88,23.36H28.72a.43.43,0,0,1-.43-.43.44.44,0,0,1,.43-.44h1.16a.44.44,0,0,1,.44.44A.44.44,0,0,1,29.88,23.36Zm-1.16-.62a.19.19,0,0,0-.18.19.18.18,0,0,0,.18.18h1.16a.19.19,0,0,0,.19-.18.2.2,0,0,0-.19-.19Z"/><path class="a" d="M29.88,20.44H28.72a.32.32,0,0,0,0,.63h1.16a.32.32,0,0,0,0-.63Z"/><path class="a" d="M29.88,21.19H28.72a.44.44,0,0,1,0-.87h1.16a.44.44,0,0,1,.44.44A.44.44,0,0,1,29.88,21.19Zm-1.16-.62a.18.18,0,0,0-.18.19.18.18,0,0,0,.18.18h1.16a.19.19,0,1,0,0-.37Z"/><path class="a" d="M29.88,16.69H17.38a.31.31,0,0,0-.31.31v1.74a.31.31,0,0,0,.31.31h12.5a.31.31,0,0,0,.31-.31V17A.31.31,0,0,0,29.88,16.69ZM17.7,18.43V17.31H29.57v1.12Z"/><path class="a" d="M29.88,19.17H17.38a.43.43,0,0,1-.43-.43V17a.43.43,0,0,1,.43-.43h12.5a.44.44,0,0,1,.44.43v1.74A.44.44,0,0,1,29.88,19.17Zm-12.5-2.35a.18.18,0,0,0-.18.18v1.74a.18.18,0,0,0,.18.18h12.5a.19.19,0,0,0,.19-.18V17a.19.19,0,0,0-.19-.18Zm12.31,1.73H17.57V17.19H29.69ZM17.82,18.3H29.44v-.86H17.82Z"/><path class="a" d="M22.25,28.12H17.38a.31.31,0,0,0-.31.31v1.73a.31.31,0,0,0,.31.31h4.87a.31.31,0,0,0,.31-.31V28.43A.31.31,0,0,0,22.25,28.12Zm-.31,1.73H17.7V28.74h4.24Z"/><path class="a" d="M22.25,30.6H17.38a.44.44,0,0,1-.43-.44V28.43a.44.44,0,0,1,.43-.44h4.87a.44.44,0,0,1,.44.44v1.73A.44.44,0,0,1,22.25,30.6Zm-4.87-2.36a.18.18,0,0,0-.18.19v1.73a.19.19,0,0,0,.18.19h4.87a.19.19,0,0,0,.19-.19V28.43a.18.18,0,0,0-.19-.19ZM22.07,30h-4.5V28.61h4.5Zm-4.25-.25h4v-.86h-4Z"/><path class="b" d="M29.88,40.11a5.34,5.34,0,0,1-5.06-3.61,10.73,10.73,0,0,1-.28-1.34v-.89c0-.25.07-.5.1-.71A5.51,5.51,0,0,1,27.41,30l.6-.28a2.79,2.79,0,0,1,.6-.18,3.36,3.36,0,0,1,.85-.14,2.75,2.75,0,0,1,.81,0,5.39,5.39,0,0,1-.39,10.76Z"/><path class="a" d="M29.88,40.61a5.82,5.82,0,0,1-5.53-3.94l0-.13A7.25,7.25,0,0,1,24,35.16v-.89c0-.32.07-.57.11-.79a6,6,0,0,1,3.05-4l.58-.28a3,3,0,0,1,.75-.22,3.21,3.21,0,0,1,.93-.15,3.09,3.09,0,0,1,.86,0,5.89,5.89,0,0,1-.44,11.76Zm0-10.79-.36,0a2.72,2.72,0,0,0-.76.12,3.58,3.58,0,0,0-.56.16,4.66,4.66,0,0,1-.6.28,5,5,0,0,0-2.45,3.24c0,.2-.07.45-.11.69v.82a6.69,6.69,0,0,0,.24,1.13,4.88,4.88,0,0,0,8.07,1.89,4.79,4.79,0,0,0,1.38-3.48,4.84,4.84,0,0,0-4.5-4.85Z"/><path class="c" d="M27.22,34a.67.67,0,0,0-.13.81l1.6,1.87a.75.75,0,0,0,.79,0l3.12-2.64a.57.57,0,0,0,0-.82.66.66,0,0,0-.81-.13l-2.62,2.22-1.05-1.24A.67.67,0,0,0,27.22,34Z"/><path class="d" d="M25.41,50.32A24.91,24.91,0,0,1,25.41.5"/><path class="e" d="M25.35,50.32A24.91,24.91,0,0,0,25.35.5"/></svg>