<svg xmlns="http://www.w3.org/2000/svg" xmlns:xlink="http://www.w3.org/1999/xlink" viewBox="0 0 36.75048 24.66013"><defs><style>.a{fill:none;stroke:#e0e0e0;stroke-miterlimit:10;stroke-width:0.5px;}.b{fill:url(#a);}.c{fill:url(#b);}.d{fill:url(#c);}.e{fill:url(#d);}.f{fill:url(#e);}.g,.h{fill:#35353a;}.g{opacity:0.5;}</style><linearGradient id="a" x1="3.68215" y1="10.75398" x2="7.27247" y2="10.75398" gradientUnits="userSpaceOnUse"><stop offset="0" stop-color="#ef8620"/><stop offset="0.85878" stop-color="#ea463c"/></linearGradient><linearGradient id="b" x1="7.14477" y1="10.05217" x2="7.53894" y2="13.17421" xlink:href="#a"/><linearGradient id="c" x1="4.24696" y1="14.10663" x2="4.69662" y2="11.88911" xlink:href="#a"/><linearGradient id="d" x1="4.48518" y1="14.09269" x2="4.4852" y2="14.09283" xlink:href="#a"/><linearGradient id="e" x1="6.78255" y1="13.31439" x2="6.98233" y2="14.89675" xlink:href="#a"/></defs><title>Asset 4</title><rect class="a" x="0.25" y="0.25" width="36.25048" height="24.16013" rx="4.4419"/><path class="b" d="M7.27042,9.98875A1.5438,1.5438,0,0,0,6.00148,9.179a3.06235,3.06235,0,0,0-3.13371,3.07958l-.00138-.05335a1.56815,1.56815,0,0,1,.82536-1.24493,2.74727,2.74727,0,0,1,1.12841-.278,9.72915,9.72915,0,0,1,1.25964.07891A1.49652,1.49652,0,0,1,7.48736,12.329,3.51941,3.51941,0,0,0,7.27042,9.98875Z"/><path class="c" d="M6.00116,9.18329A1.54453,1.54453,0,0,1,7.26773,9.993a3.51133,3.51133,0,0,1,.21861,2.33021l-.00278.02559a1.47568,1.47568,0,0,1-.644,1.1002,1.56926,1.56926,0,0,1-.94155.25172,3.75348,3.75348,0,0,0,2.38637-.19618,1.513,1.513,0,0,0,.82537-1.24492A3.06854,3.06854,0,0,0,6.00116,9.18329Z"/><path class="d" d="M4.59089,14.48608a.72937.72937,0,0,1-.09424-.31469.38609.38609,0,0,1-.00945-.08022V12.22838c0-.02236.00256-.082.003-.08976.00086-.01359.00708-.07866.00758-.08278a1.44639,1.44639,0,0,1,.30478-.72876l.01871-.02336.008-.01a1.31494,1.31494,0,0,1,.306-.27538l.00218-.00122c.03207-.02162.06513-.04188.09893-.061a1.54476,1.54476,0,0,1,.83915-.19484,3.73706,3.73706,0,0,0-2.38508.20156,1.513,1.513,0,0,0-.82536,1.24492,3.08228,3.08228,0,0,0,2.933,3.0797A1.75637,1.75637,0,0,1,4.59089,14.48608Z"/><path class="e" d="M4.48518,14.09285h0Z"/><path class="f" d="M8.2839,13.50443a3.75359,3.75359,0,0,1-2.38638.19618l.00605.00011q-.06117-.00267-.12018-.00988a1.38227,1.38227,0,0,0-1.2982.402.84728.84728,0,0,0,.099.38974,1.71475,1.71475,0,0,0,1.36185.811,3.10055,3.10055,0,0,0,3.1358-2.783A1.61555,1.61555,0,0,1,8.2839,13.50443Z"/><path class="g" d="M29.21975,13.29742h-1.447l-.23409.581h-.8975l1.43724-3.28435h.89788l1.40418,3.28435h-.93133Zm-.25781-.6558-.45847-1.1714-.4678,1.1714Z"/><path class="g" d="M32.11625,12.82894v1.04951h-.87416V12.8524l-1.23191-2.2583H30.884l.79289,1.41022.77344-1.41022h.87416Z"/><path class="h" d="M11.61038,10.5941l1.51889,1.97713V10.5941h.81195v3.28435H13.1771l-1.51889-1.96779v1.96779H10.8416V10.5941Z"/><path class="h" d="M16.95205,13.29742h-1.447l-.23409.581h-.89749l1.43723-3.28435h.89788l1.40418,3.28435h-.93132Zm-.25782-.6558-.45846-1.1714-.46781,1.1714Z"/><path class="h" d="M19.7858,12.82894v1.04951h-.87416V12.8524l-1.23191-2.2583h.87377l.79289,1.41022.77345-1.41022H20.994Z"/><path class="h" d="M23.20182,13.29742h-1.447l-.2341.581h-.89749l1.43723-3.28435h.89788l1.40418,3.28435h-.93132Zm-.25782-.6558-.45846-1.1714-.4678,1.1714Z"/><path class="g" d="M25.60148,10.5941H24.13042v1.73982l.66034,1.54453h.21382v-.90893h.5969c.85472,0,1.34663-.44979,1.34663-1.2229C26.94811,11.01566,26.4562,10.5941,25.60148,10.5941Zm-.04316,1.69139h-.55374V11.27813h.55374c.35348,0,.55879.17339.55879.49653C26.11711,12.10733,25.9118,12.28549,25.55832,12.28549Z"/></svg>