<svg xmlns="http://www.w3.org/2000/svg" viewBox="0 0 56 56.06"><defs><style>.a{fill:#0280ff;}.b,.c{fill:none;stroke-miterlimit:10;}.b{stroke:#e0e0e0;}.c{stroke:#0280ff;}</style></defs><path class="a" d="M39,11.07l.78.19a4.61,4.61,0,0,1,2.73,6.82q-1.76,3-3.53,6c-.34.59-.73.59-1.08,0l-3.51-6a4.63,4.63,0,0,1,3.26-7l.23-.07ZM38.42,23c0-.06.07-.08.09-.12,1.08-1.83,2.16-3.66,3.22-5.5a3.22,3.22,0,0,0,.41-2,3.71,3.71,0,0,0-2.72-3.15,3.79,3.79,0,0,0-4,1.36,3.54,3.54,0,0,0-.17,4.08l3,5.1Z"/><path class="a" d="M31.52,15A13.36,13.36,0,0,0,27,14.6c0,.13,0,.23,0,.33a1.73,1.73,0,0,1-1.11,2c-.56.24-1.13.48-1.68.74-.1.05-.16.2-.24.3.11.08.21.23.32.23a2.9,2.9,0,0,0,1-.1,6.6,6.6,0,0,0,1.17-.63,3.8,3.8,0,0,1,1.5-.72.9.9,0,0,1,.4,0,.44.44,0,0,1,.32.48c0,.23-.13.43-.35.44a3,3,0,0,0-1.41.68,4.16,4.16,0,0,1-2.17.86,1.58,1.58,0,0,1-1.62-.71,1.15,1.15,0,0,1,.44-1.62c.62-.33,1.27-.59,1.92-.87s.66-.51.5-1.17a.25.25,0,0,0-.2-.14,13.11,13.11,0,0,0-4.14,1.37A10.55,10.55,0,0,1,22,17.44,3,3,0,0,1,21,20.36a7.33,7.33,0,0,1-2.28,1.24c-.85.33-1.69.68-2.51,1.08a2.57,2.57,0,0,0-1.44,2.2c1.87.88,2.42,2.52,2.46,4.42A1.62,1.62,0,0,0,18,30.8a2.67,2.67,0,0,1,1,3.54,6.12,6.12,0,0,0-.82,2.4,1.7,1.7,0,0,0,.59,1.66,15.17,15.17,0,0,0,3.47,2.3.64.64,0,0,0,.63,0,7.39,7.39,0,0,1,5.55-.61,6.52,6.52,0,0,1,2.4,1.33.49.49,0,0,0,.5.13A13.68,13.68,0,0,0,41.61,29.42a12.73,12.73,0,0,0-.3-4.11c-.19.31-.37.58-.53.87s-.27.58-.39.88a1.12,1.12,0,0,1-2,.41c-.26-.28-.49-.59-.74-.88a1,1,0,0,0-1.2-.29c.06.08.11.17.18.25a1,1,0,0,1,.06,1.32,5.79,5.79,0,0,1-1,1.08,1,1,0,0,1-1.23,0c.33.5.34,1.19,1.08,1.4a1.13,1.13,0,0,1,.2,1.9c-.38.33-.79.63-1.16,1a1,1,0,0,0-.28.55c-.07.45-.08.91-.12,1.36a2,2,0,0,1-.55,1.3c-.73.72-1.47,1.46-2.26,2.13A1.6,1.6,0,0,1,28.83,38a6.52,6.52,0,0,1-.59-1.22,3.79,3.79,0,0,1,0-1c0-.27,0-.54,0-.8a.39.39,0,0,1,0-.18l.48-1a2.21,2.21,0,0,1,.45,1.92c-.26.83.22,1.4.62,2a.54.54,0,0,0,.81.07c.78-.7,1.54-1.41,2.28-2.15a1.2,1.2,0,0,0,.24-.66c.06-.47.08-1,.12-1.43a1.54,1.54,0,0,1,.56-1.1c.36-.3.73-.59,1.08-.89a3.91,3.91,0,0,0,.29-.33c-1-.21-1.22-1-1.6-1.68a1.91,1.91,0,0,1-.16-.53,1,1,0,0,1,.35-1A1,1,0,0,1,34.92,28a.32.32,0,0,0,.49-.09,2.29,2.29,0,0,1,.23-.21c.32-.34.32-.37.07-.75a1,1,0,0,1,.76-1.7,2,2,0,0,1,2.06.81c.17.22.36.43.54.64a2,2,0,0,0,.29.23c.07-.17.13-.3.18-.43a6.23,6.23,0,0,1,1.37-2.2A.38.38,0,0,0,41,24a.51.51,0,0,0-.06-.21c-.44-.68,0-1.16.37-1.69a14.7,14.7,0,1,1-8.46-7.73c0,.28-.07.58-.13.87,0,.08-.18.12-.24.21a9.65,9.65,0,0,0-.69,1.1,1.68,1.68,0,0,0-.06.68,10,10,0,0,1,.06,1.08,1.16,1.16,0,0,1-1.27,1.09,9.42,9.42,0,0,0-1.6.14.6.6,0,0,0-.53.77,1.44,1.44,0,0,1-.88,1.7c-.55.24-1.12.43-1.68.64-.21.08-.43.14-.64.23a.25.25,0,0,0-.12.19s.1.12.15.12a5,5,0,0,0,.77,0c1.09-.11,2.16-.27,3.25-.34a5.35,5.35,0,0,1,2.54.52,2.47,2.47,0,0,1,.77.55,1.19,1.19,0,0,1-.1,1.75,3.12,3.12,0,0,1-3.13.68A9.44,9.44,0,0,0,25.18,26a2.8,2.8,0,0,0-2.48,2.45.36.36,0,0,1-.13.25c-.26.16-.53.3-.83.46a3.44,3.44,0,0,1,.7-2.67A4,4,0,0,1,25.27,25a10.55,10.55,0,0,1,4.39.51A2.11,2.11,0,0,0,31.72,25c.18-.14.19-.32,0-.45a2.48,2.48,0,0,0-.64-.35,6.56,6.56,0,0,0-3-.29c-.7.08-1.39.23-2.1.3a3.5,3.5,0,0,1-1.07,0,1.08,1.08,0,0,1-.9-.92,1,1,0,0,1,.58-1.17,11.83,11.83,0,0,1,1.13-.42c.46-.18.92-.38,1.38-.57a.44.44,0,0,0,.26-.5,1.78,1.78,0,0,1,1.85-2.13,10.28,10.28,0,0,1,1.24,0c.23,0,.33-.08.32-.3a1.87,1.87,0,0,0,0-.53,2.36,2.36,0,0,1,.38-2C31.25,15.42,31.38,15.24,31.52,15ZM17.15,36.68a8.83,8.83,0,0,1,1-2.83,1.62,1.62,0,0,0-.57-2.18,2.52,2.52,0,0,1-1.34-2.47,4,4,0,0,0-1-2.81,6.45,6.45,0,0,0-.73-.57A13.88,13.88,0,0,0,17.15,36.68ZM16.08,21.54l.12,0,2.28-.89a5.14,5.14,0,0,0,2.1-1.29,2.08,2.08,0,0,0,.11-2.63A12.93,12.93,0,0,0,16.08,21.54Zm7.86,19.78c1.06.54,4.83.86,5.68.48A5.75,5.75,0,0,0,23.94,41.32Z"/><path class="a" d="M24.22,29.25A3.49,3.49,0,0,1,28,32.74a3.28,3.28,0,0,1-.48,1.52Q26.22,36.32,25,38.37c-.3.48-.7.48-1,0-.81-1.32-1.6-2.64-2.42-3.95A3.16,3.16,0,0,1,21.4,31,3.31,3.31,0,0,1,24.22,29.25Zm.25,8a1.84,1.84,0,0,0,.12-.18c.68-1.1,1.36-2.21,2-3.32a2.18,2.18,0,0,0-.52-2.92,2.58,2.58,0,0,0-3.32.06A2.25,2.25,0,0,0,22.44,34c.64,1,1.22,2,1.82,3Z"/><path class="a" d="M38.78,33.91a3.52,3.52,0,0,1-2.22,2.9,1,1,0,0,1-1.32-1,3.58,3.58,0,0,1,2.15-2.92A1,1,0,0,1,38.78,33.91Zm-1-.06a2.35,2.35,0,0,0-1.5,2A2.42,2.42,0,0,0,37.76,33.85Z"/><path class="a" d="M38.41,13.31a2.25,2.25,0,1,1-2.23,2.28A2.23,2.23,0,0,1,38.41,13.31Zm0,1a1.25,1.25,0,0,0-1.24,1.25,1.25,1.25,0,1,0,1.24-1.25Z"/><path class="a" d="M24.48,34.32A1.5,1.5,0,1,1,26,32.83,1.51,1.51,0,0,1,24.48,34.32ZM24,32.84a.51.51,0,0,0,.51.48.5.5,0,1,0-.51-.48Z"/><path class="b" d="M28,55.56A27.53,27.53,0,0,0,28,.5"/><path class="c" d="M28,.5a27.53,27.53,0,0,0,0,55.06"/></svg>