<svg xmlns="http://www.w3.org/2000/svg" viewBox="0 0 56 56.06"><defs><style>.a,.b{fill:#23cf7c;}.b{fill-rule:evenodd;}.c,.d{fill:none;stroke-miterlimit:10;}.c{stroke:#e0e0e0;}.d{stroke:#23cf7c;}</style></defs><path class="a" d="M42.15,16.76H13.84a2.16,2.16,0,0,0-2.16,2.16V37.14a2.16,2.16,0,0,0,2.16,2.16H42.15a2.16,2.16,0,0,0,2.16-2.16V18.92A2.16,2.16,0,0,0,42.15,16.76Zm1.14,20.38a1.14,1.14,0,0,1-1.14,1.14H13.84a1.14,1.14,0,0,1-1.13-1.14V18.92a1.14,1.14,0,0,1,1.13-1.14H42.15a1.14,1.14,0,0,1,1.14,1.14Z"/><path class="a" d="M14.76,21.88h4.61a.51.51,0,0,0,.51-.51.51.51,0,0,0-.51-.51H14.76a.51.51,0,0,0-.52.51A.51.51,0,0,0,14.76,21.88Z"/><path class="a" d="M26,20.86H21.42a.51.51,0,0,0-.52.51.51.51,0,0,0,.52.51H26a.51.51,0,0,0,.51-.51A.51.51,0,0,0,26,20.86Z"/><path class="a" d="M14.76,24.44h.51a.51.51,0,0,0,0-1h-.51a.51.51,0,1,0,0,1Z"/><path class="a" d="M17.32,23.42a.51.51,0,1,0,0,1h1a.51.51,0,0,0,0-1Z"/><path class="a" d="M21.42,23.93a.51.51,0,0,0-.52-.51h-.51a.51.51,0,1,0,0,1h.51A.51.51,0,0,0,21.42,23.93Z"/><path class="a" d="M24,24.44a.51.51,0,0,0,0-1H23a.51.51,0,0,0,0,1Z"/><path class="a" d="M25.67,23.57a.48.48,0,0,0-.15.36.51.51,0,0,0,.14.36.51.51,0,0,0,.37.15.51.51,0,0,0,.36-.15.51.51,0,0,0,0-.72A.53.53,0,0,0,25.67,23.57Z"/><path class="a" d="M15.27,32.64h3.88v2H15.27Z"/><path class="a" d="M22.47,32.64h3.88v2H22.47Z"/><path class="a" d="M29.68,32.64h3.88v2H29.68Z"/><path class="a" d="M36.88,32.64h3.88v2H36.88Z"/><path class="b" d="M36.12,21.43c.44,0,.87.08,1.31.16l.22.06a.94.94,0,0,1,.15.06l.24.12a1.82,1.82,0,0,1,.84,1,1,1,0,0,0,0-.19v-.52a3.82,3.82,0,0,0-.09-.71,2.21,2.21,0,0,0-.61-1.15,2,2,0,0,0-.4-.29L37.7,20l-.08,0-.22-.06h0l-.18,0h-.27a4,4,0,0,0-1.12.21l-.3.11-.29.15A3.7,3.7,0,0,0,33.59,22a2.43,2.43,0,0,0-.13.38,2.61,2.61,0,0,1,2.23-1Zm-1.07,4.43a.34.34,0,0,0,0-.1l.06-2.4a2.1,2.1,0,0,1,.26-.84,2,2,0,0,1,1.06-.85l-.5,0s0,0-.23,0a2.34,2.34,0,0,0-.38,0l-.37,0-.21.05a.8.8,0,0,1-.2.07,2.12,2.12,0,0,0-1.09,1c0,.05,0,.09,0,.13a.16.16,0,0,0,0,.09l0,.13h0v.23h0v.13s0,.46.06.54,0,.22.07.33a2.53,2.53,0,0,0,.12.36l.15.35a2.2,2.2,0,0,0,.15.26,3.73,3.73,0,0,0,1.94,1.57A1.71,1.71,0,0,1,35.05,25.86ZM38.11,20a2,2,0,0,1,.55.58,3.08,3.08,0,0,1,.46,1.55l0,.7c0,.3-.07.62-.13.92a1.92,1.92,0,0,1-1,1.44,1.44,1.44,0,0,1-.3.12l.23,0h.55l.48-.05.27-.05a2.21,2.21,0,0,0,.48-.15L40,24.9a2.71,2.71,0,0,0,.41-.35h0l.09-.11a2.22,2.22,0,0,0,.15-.23h0s0,0,0-.05l.07-.15a.65.65,0,0,1,0-.13,1.55,1.55,0,0,0,0-.31A3.7,3.7,0,0,0,38.11,20Zm2.18,4.94a2.85,2.85,0,0,1-1.8.62l-.67,0-1.34-.17h-.31l-.19,0a1.15,1.15,0,0,0-.63.3c-.1.08-.1.06-.1.13,0,.45.52,1,1,1.18a1.9,1.9,0,0,0,.65.17h.2a3.57,3.57,0,0,0,.46,0c.15,0,.34-.07.51-.11l.33-.12.33-.14a3.63,3.63,0,0,0,1.09-.82,3.55,3.55,0,0,0,.62-.92c0-.12.1-.24.14-.35l-.07.08Z"/><path class="c" d="M28,.5a27.53,27.53,0,0,1,0,55.06"/><path class="d" d="M28,.5a27.53,27.53,0,0,0,0,55.06"/></svg>