<svg xmlns="http://www.w3.org/2000/svg" xmlns:xlink="http://www.w3.org/1999/xlink" viewBox="0 0 36.77014 24.66013"><defs><style>.a,.b,.c{fill:none;}.a{clip-rule:evenodd;}.c{stroke:#e0e0e0;stroke-miterlimit:10;stroke-width:0.5px;}.d{clip-path:url(#a);}.e{fill:#fff;}.f{clip-path:url(#b);}.g{fill:#219e8b;}.h{clip-path:url(#c);}.i{fill:#056341;}.j{clip-path:url(#d);}.k{fill:#f0ca75;}.l{clip-path:url(#e);}.m{fill:#c99146;}.n{clip-path:url(#f);}.o{clip-path:url(#g);}.p{clip-path:url(#h);}.q{clip-path:url(#i);}.r{clip-path:url(#j);}.s{clip-path:url(#k);}.t{clip-path:url(#l);}.u{clip-path:url(#m);}.v{clip-path:url(#n);}.w{clip-path:url(#o);}.x{clip-path:url(#p);}</style><clipPath id="a"><path class="a" d="M32.38915,5.315H5.0118A1.64742,1.64742,0,0,0,3.23445,6.78575V18.57236A1.64743,1.64743,0,0,0,5.0118,20.04828H32.38915c.98221,0,1.78254-.65481,1.78254-1.294V7.48734C34.17169,5.975,33.37656,5.315,32.38915,5.315Z"/></clipPath><clipPath id="b"><path class="a" d="M12.46937,14.37844c0,.28584-.35859.5197-.60284.5197a.62883.62883,0,0,1-.60284-.60285c0-.48331.48331-.8419,1.20568-1.08615Zm1.41356.686c-.08834,0-.1611-.15591-.20787-.20268V12.47118c0-.96143-1.08616-1.03939-1.55908-1.03939a2.42178,2.42178,0,0,0-1.60584.70159l.04677.21827c.36378-.11953.72237-.41056,1.08615-.41056.23906,0,.96143.06237.96143.72237s-2.40617.41056-2.40617,1.73577c0,.60285.47812.96663,1.20049.96663a2.07882,2.07882,0,0,0,1.08615-.48331,1.16416,1.16416,0,0,0,.96663.48331,2.42191,2.42191,0,0,0,.69639-.24426S14.23632,15.11121,13.88293,15.06444Zm3.34162-3.27925-1.13813,2.25546-1.21607-2.52051H13.66466c.48332,1.20569,1.93845,3.72619,1.93845,3.72619s-.72237,1.43955-1.08615,2.0216h.60284l2.59846-5.37361Zm-9.02184.24425H7.77656V9.95067h.69119c.60284,0,.62882.74836.62882.99261C9.09657,11.411,9.055,12.02944,8.20271,12.02944Zm2.33861-1.24206A1.40317,1.40317,0,0,0,9.09657,9.47256H6.56568v5.77377H7.77136V12.31527C8.77437,12.31527,10.54132,12.25291,10.54132,10.78738Z"/></clipPath><clipPath id="c"><path class="a" d="M30.18046,15.18916l-1.55908-2.19309s1.08616-1.00821,1.44475-1.372h-.72757A18.08981,18.08981,0,0,1,27.556,13.31827V9.58169h-1.107v5.66464H27.582l-.026-1.80853,1.30442,1.75136Zm-5.9037-.977c0,.23906-.35859.55607-.72237.55607a.42614.42614,0,0,1-.48331-.48331c0-.72237.46252-.90426,1.20568-1.08615Zm1.13293.45733V12.74142A1.48112,1.48112,0,0,0,23.809,11.515a2.23984,2.23984,0,0,0-1.5227.60284l.07276.23906a1.9384,1.9384,0,0,1,.96663-.35859c.48331,0,1.081,0,1.081.60284s-2.5257.35859-2.5257,1.80333c0,.54568.35858.96663,1.20048.96663a1.35122,1.35122,0,0,0,1.20569-.60285,1.17969,1.17969,0,0,0,.84709.5197,1.69947,1.69947,0,0,0,.8419-.1715.5197.5197,0,0,1-.35858-.11433A.64447.64447,0,0,1,25.40969,14.66947Zm-3.061-3.88209c0-.60284-.28064-1.31482-1.44475-1.31482H18.25354v1.29923h1.23167V9.826h.55607a.9926.9926,0,0,1,.98741,1.08615c0,1.36159-1.44474,1.15892-1.44474,1.15892v-.634s-.95623.265-1.32.38457v3.42477h1.32521V12.35165C20.42065,12.35165,22.34871,12.35165,22.34871,10.78738Z"/></clipPath><clipPath id="d"><path class="a" d="M20.97153,8.86452a2.26586,2.26586,0,1,1-3.087-2.46854,2.72838,2.72838,0,1,0,3.11815,2.7024A1.76365,1.76365,0,0,0,20.97153,8.86452Z"/></clipPath><clipPath id="e"><path class="a" d="M20.97153,8.86452c-.1715,1.07576-1.107,2.49971-2.23468,2.49971-2.0216,0-2.74917-1.12253-2.74917-2.86869,0-.951,1.06537-1.767,1.89688-2.07877a2.72838,2.72838,0,1,0,3.11815,2.7024A1.76411,1.76411,0,0,0,20.97153,8.86452Z"/></clipPath><clipPath id="f"><polygon class="a" points="20.171 7.331 20.545 6.755 19.891 6.973 19.454 6.443 19.464 7.129 18.82 7.383 19.48 7.586 19.522 8.277 19.917 7.711 20.587 7.887 20.171 7.331"/></clipPath><clipPath id="g"><path class="a" d="M23.50242,17.01328a.317.317,0,0,1,.11953-.265c.14032-.11953.88867-.25985.88867-.47812v-.77434l-.265.24426v.51969a7.69412,7.69412,0,0,0-.72237.35859,1.003,1.003,0,0,0-.36378.74835h6.652l.59764-.36378Z"/></clipPath><clipPath id="h"><path class="a" d="M22.57737,16.41564v.239s.24426.078.24426.23906v.11953H21.855V15.18916l-.23906.23906v1.79813c0,.15071.1663.12993.21827.12993H22.463s.48331.052.48331-.36379A.64439.64439,0,0,0,22.57737,16.41564Z"/></clipPath><clipPath id="i"><path class="a" d="M20.64931,15.56854l.96663-.23906V14.9657a4.36538,4.36538,0,0,0-.8419.24425c-.45213.1767-.70678.45213-.55607.60284s.51969.64442.6756.8419a.23905.23905,0,0,1,0,.35859H16.79321a1.08068,1.08068,0,0,1-.11434-.23906c-.07275-.24425-.12472-.55607-.12472-.35858,0,.29622-.13512.96142.36378.96142H20.774c.35859,0,.35859-.48331.35859-.48331a3.32075,3.32075,0,0,0-.634-1.18489S20.48821,15.61531,20.64931,15.56854Z"/></clipPath><clipPath id="j"><rect class="b" x="24.61687" y="18.39069" width="0.38457" height="0.38457" transform="translate(-5.87371 22.98557) rotate(-45.00004)"/></clipPath><clipPath id="k"><rect class="b" x="24.91823" y="17.78766" width="0.38457" height="0.38457" transform="translate(-5.35904 23.02205) rotate(-45.00005)"/></clipPath><clipPath id="l"><rect class="b" x="24.31526" y="17.78778" width="0.38457" height="0.38457" transform="translate(-5.53575 22.59561) rotate(-44.99984)"/></clipPath><clipPath id="m"><rect class="b" x="22.0841" y="18.39256" width="0.38457" height="0.38457" transform="translate(-6.61688 21.19507) rotate(-44.99983)"/></clipPath><clipPath id="n"><rect class="b" x="22.38545" y="17.78953" width="0.38457" height="0.38457" transform="translate(-6.10221 21.23155) rotate(-44.99984)"/></clipPath><clipPath id="o"><rect class="b" x="21.78248" y="17.78966" width="0.38457" height="0.38457" transform="translate(-6.27889 20.80531) rotate(-45.00003)"/></clipPath><clipPath id="p"><path class="a" d="M21.42366,9.62327c-.21827-.24426-1.1797-.15071-1.1797-.15071l-.12473.35339a1.17445,1.17445,0,0,1,.60284.265c.23906.20268.21827.31182.21827.31182S21.6887,9.86233,21.42366,9.62327Z"/></clipPath></defs><title>Asset 2</title><rect class="c" x="0.25" y="0.25" width="36.25048" height="24.16013" rx="4.4419"/><g class="d"><rect class="e" x="0.636" y="2.71062" width="36.13415" height="19.94202"/></g><g class="f"><rect class="g" x="3.96722" y="6.87339" width="16.34949" height="12.993"/></g><g class="h"><rect class="i" x="15.65508" y="6.8741" width="17.12383" height="11.09774"/></g><g class="j"><rect class="k" x="12.94732" y="3.79753" width="10.65384" height="10.62574"/></g><g class="l"><rect class="m" x="12.94732" y="3.81831" width="10.65384" height="10.62574"/></g><g class="n"><rect class="k" x="16.22154" y="3.8443" width="6.96387" height="7.03143"/></g><g class="o"><rect class="g" x="20.56097" y="12.89732" width="12.44661" height="7.0678"/></g><g class="p"><rect class="i" x="19.01749" y="12.59071" width="6.52732" height="7.36611"/></g><g class="q"><rect class="i" x="13.93901" y="12.36724" width="10.27539" height="7.60828"/></g><g class="r"><rect class="g" x="22.01841" y="15.79223" width="5.58149" height="5.58149" transform="translate(-5.87372 22.98554) rotate(-44.99998)"/></g><g class="s"><rect class="g" x="22.31977" y="15.1892" width="5.58149" height="5.58149" transform="translate(-5.35904 23.02201) rotate(-44.99999)"/></g><g class="t"><rect class="g" x="21.7168" y="15.18933" width="5.58149" height="5.58149" transform="translate(-5.53573 22.59571) rotate(-45.00004)"/></g><g class="u"><rect class="i" x="19.48564" y="15.79411" width="5.58149" height="5.58149" transform="translate(-6.61687 21.19514) rotate(-44.99997)"/></g><g class="v"><rect class="i" x="19.787" y="15.19108" width="5.58149" height="5.58149" transform="translate(-6.1022 21.23162) rotate(-44.99999)"/></g><g class="w"><rect class="i" x="19.18403" y="15.1912" width="5.58149" height="5.58149" transform="translate(-6.27889 20.80532) rotate(-45.00005)"/></g><g class="x"><rect class="i" x="17.52077" y="6.8565" width="6.55815" height="6.14476"/></g></svg>