<svg xmlns="http://www.w3.org/2000/svg" viewBox="0 0 50.51 50.82"><defs><style>.a{fill:#23cf7c;fill-rule:evenodd;}.b,.c{fill:none;stroke-miterlimit:10;}.b{stroke:#23cf7c;}.c{stroke:#e0e0e0;stroke-width:0.5px;}</style></defs><path class="a" d="M33.46,31.67a.5.5,0,0,0-.57.42v1.36H28.8V27.62h3.9v2H30.51c-.27,0-.42.42-.42.57s0,.38.42.6h2.91c.19,0,.42-.41.5-.53V26.94a.66.66,0,0,0-.57-.5H28.12a.64.64,0,0,0-.53.57v7.05c0,.19.3.46.45.57h5.54c.18,0,.41-.42.49-.49v-2C34.07,31.75,33.54,31.67,33.46,31.67Z"/><path class="a" d="M26.15,30.24H24a.55.55,0,0,0-.61.6c0,.31.12.46.5.61h2.42c.38,0,.53-.42.53-.61C26.79,30.47,26.56,30.31,26.15,30.24Z"/><path class="a" d="M24.23,26.07c-.34,0-.49.11-.6.49v2.5c0,.31.38.5.6.5a.68.68,0,0,0,.61-.61V26.6A.59.59,0,0,0,24.23,26.07Z"/><path class="a" d="M28,17.88a.65.65,0,0,0-.61.76v2c0,.3.12.76.61.76.23,0,.38-.08.6-.49V18.34C28.62,18,28.21,17.88,28,17.88Z"/><path class="a" d="M25.77,18a.63.63,0,0,0-.61.76v5.11H22.81a.66.66,0,0,0-.57.61.62.62,0,0,0,.5.6h3.1c.16,0,.42-.34.53-.53v-6.1C26.37,18.13,26,18,25.77,18Z"/><path class="a" d="M22.45,27.66H16.31c-.26,0-.57.3-.57.56a.66.66,0,0,0,.57.65h6.14a.59.59,0,0,0,.57-.61A.56.56,0,0,0,22.45,27.66Z"/><path class="a" d="M33.73,23.57h-5.8a.56.56,0,0,0-.57.6.72.72,0,0,0,.57.61h5.8a.59.59,0,0,0,.57-.61A.57.57,0,0,0,33.73,23.57Z"/><path class="a" d="M20.69,23.64H16.33a.54.54,0,0,0-.49.57c0,.23,0,.38.42.61h3.79v1.36a.61.61,0,0,0,.6.65c.23,0,.38-.08.61-.5V24.14C21.26,23.91,20.8,23.64,20.69,23.64Z"/><path class="a" d="M26.09,33.74H22.45V30.67c0-.3-.42-.45-.6-.45a.55.55,0,0,0-.57.42V34.5c0,.19.53.42.6.46H26a.69.69,0,0,0,.6-.61A.63.63,0,0,0,26.09,33.74Z"/><path class="a" d="M23.15,21.55h-.72V18.63a.58.58,0,0,0-.64-.57c-.27,0-.27,0-.57.42v3.79c0,.57.87.49,1.29.49.23,0,1.25.19,1.25-.6A.62.62,0,0,0,23.15,21.55Z"/><path class="a" d="M19.78,30.33H16.37a.61.61,0,0,0-.53.46v3.6c0,.11.38.38.45.45h3.57c.19,0,.45-.41.49-.49V30.79C20.35,30.56,19.89,30.33,19.78,30.33Zm-.64,3.3H17.05V31.55h2.09Z"/><path class="a" d="M33.69,18.1H30.35c-.22-.08-.56.3-.56.45v3.6c0,.19.41.42.56.49h3.34c.15,0,.49-.34.61-.53V18.55C34.3,18.32,33.76,18.1,33.69,18.1Zm-.61,3.29H31v-2h2.08Z"/><path class="a" d="M19.74,18.1H16.41c-.23-.08-.57.3-.57.45v3.6c0,.19.42.42.57.49h3.33c.15,0,.49-.34.61-.53V18.55C20.35,18.32,19.82,18.1,19.74,18.1Zm-.6,3.29H17.05v-2h2.09Z"/><path class="a" d="M17.32,37.05H15.15c-.31,0-1.1-.72-1.07-1.1V33.78a.53.53,0,0,0-.55-.48c-.24,0-.55.1-.55.45V36a2.64,2.64,0,0,0,2.13,2.14h2.24c.35,0,.49-.38.49-.55A.52.52,0,0,0,17.32,37.05Z"/><path class="a" d="M36.3,33.3c-.24,0-.55.1-.55.48V36a1.78,1.78,0,0,1-1.1,1.06H32.48a.54.54,0,0,0-.49.56.53.53,0,0,0,.45.55h2.28A2.71,2.71,0,0,0,36.85,36V33.75C36.85,33.4,36.47,33.3,36.3,33.3Z"/><path class="a" d="M34.61,14.27h-2.1a.5.5,0,0,0-.52.56.53.53,0,0,0,.49.55h2.17c.44,0,1,.79,1.1,1v2.24a.53.53,0,0,0,.55.48.54.54,0,0,0,.55-.48V16.38A2.57,2.57,0,0,0,34.61,14.27Z"/><path class="a" d="M17.28,14.28h-2.1A2.54,2.54,0,0,0,13,16.42v2.27c0,.31.34.45.55.45a.55.55,0,0,0,.55-.52V16.45c0-.41.79-1,1.07-1.07h2.17a.54.54,0,0,0,.52-.55A.52.52,0,0,0,17.28,14.28Z"/><path class="b" d="M25.41,50.32A24.91,24.91,0,0,1,25.41.5"/><path class="c" d="M25.35,50.32A24.91,24.91,0,0,0,25.35.5"/></svg>