<svg xmlns="http://www.w3.org/2000/svg" viewBox="0 0 50.51 50.82"><defs><style>.a{fill:#9251e6;}.b{opacity:0.8;}.c{fill:gray;fill-rule:evenodd;}.d,.e{fill:none;stroke-miterlimit:10;}.d{stroke:#9251e6;}.e{stroke:#e0e0e0;stroke-width:0.5px;}</style></defs><path class="a" d="M29.05,15.81v-2a1.56,1.56,0,0,0-1.55-1.58l-12-.09a1.57,1.57,0,0,0-1.58,1.55l-.2,26.39,15.12.12V39a1.57,1.57,0,0,0,1.44-1.55l.15-20.08A1.57,1.57,0,0,0,29.05,15.81ZM16.66,13l9.7.08-.07,8.7a.7.7,0,0,1-.72.7l-8.27-.06a.71.71,0,0,1-.71-.72l.07-8.7Zm.73,26.26.21-.46,7.48.06.2.46ZM28,39.34l-1.8,0L25.65,38,17,37.94l-.58,1.31-1.86,0,.2-25.53a.71.71,0,0,1,.72-.71h.28l-.06,8.71a1.57,1.57,0,0,0,1.55,1.58l8.28.06a1.57,1.57,0,0,0,1.58-1.56l.07-8.7h.28a.73.73,0,0,1,.71.72L28,39.34Zm1.44-1.87a.71.71,0,0,1-.57.69L29,16.68a.72.72,0,0,1,.57.7Z"/><path class="a" d="M26.2,34H25.06a1.29,1.29,0,1,0,0,2.57h1.14a1.28,1.28,0,0,0,1.29-1.28A1.27,1.27,0,0,0,26.2,34Zm0,1.71H25a.43.43,0,0,1,0-.86h1.14a.43.43,0,1,1,0,.86Z"/><path class="a" d="M17.71,24.54H16.57a1.27,1.27,0,0,0-1.29,1.27,1.28,1.28,0,0,0,1.27,1.3h1.14a1.28,1.28,0,1,0,0-2.56Zm0,1.71H16.56a.43.43,0,0,1,0-.86H17.7a.43.43,0,0,1,0,.86Z"/><path class="a" d="M22,24.57H20.85a1.29,1.29,0,0,0,0,2.57H22a1.29,1.29,0,0,0,0-2.57Zm0,1.71H20.84a.43.43,0,0,1-.43-.43.43.43,0,0,1,.43-.42H22a.43.43,0,0,1,.43.43A.43.43,0,0,1,22,26.28Z"/><path class="a" d="M26.27,24.6H25.13a1.28,1.28,0,0,0-1.29,1.28,1.27,1.27,0,0,0,1.27,1.29h1.14a1.29,1.29,0,0,0,0-2.57Zm0,1.71H25.12a.44.44,0,0,1-.43-.44.43.43,0,0,1,.43-.42h1.14a.43.43,0,0,1,.43.43A.42.42,0,0,1,26.26,26.31Z"/><path class="a" d="M17.69,27.68H16.55a1.28,1.28,0,1,0,0,2.56h1.14a1.28,1.28,0,0,0,0-2.56Zm0,1.71H16.53a.43.43,0,0,1-.42-.43.43.43,0,0,1,.43-.43h1.14a.43.43,0,0,1,.43.43A.44.44,0,0,1,17.67,29.39Z"/><path class="a" d="M22,27.71H20.83a1.29,1.29,0,1,0,0,2.57H22A1.29,1.29,0,0,0,23.24,29,1.28,1.28,0,0,0,22,27.71Zm0,1.71H20.81a.42.42,0,0,1-.42-.43.41.41,0,0,1,.43-.42H22a.43.43,0,0,1,0,.86Z"/><path class="a" d="M26.25,27.74H25.11a1.29,1.29,0,1,0,0,2.57h1.14a1.29,1.29,0,0,0,0-2.57Zm0,1.71H25.09a.43.43,0,1,1,0-.85h1.14a.41.41,0,0,1,.42.43A.42.42,0,0,1,26.23,29.45Z"/><path class="a" d="M17.66,30.81H16.52a1.28,1.28,0,0,0-1.29,1.28,1.27,1.27,0,0,0,1.27,1.29h1.14a1.28,1.28,0,0,0,1.3-1.27A1.3,1.3,0,0,0,17.66,30.81Zm0,1.72H16.51a.43.43,0,1,1,0-.86h1.14a.43.43,0,0,1,0,.86Z"/><path class="a" d="M21.94,30.85H20.8a1.27,1.27,0,0,0-1.29,1.27,1.28,1.28,0,0,0,1.27,1.3h1.14a1.28,1.28,0,1,0,0-2.56Zm0,1.71H20.79a.43.43,0,0,1-.43-.43.44.44,0,0,1,.43-.43h1.15a.43.43,0,0,1,.42.43A.43.43,0,0,1,21.93,32.56Z"/><path class="a" d="M26.22,30.88H25.08a1.29,1.29,0,0,0,0,2.57H26.2a1.29,1.29,0,1,0,0-2.57Zm0,1.71H25.07a.43.43,0,1,1,0-.85h1.15a.43.43,0,0,1,0,.85Z"/><path class="a" d="M17.64,34H16.5a1.3,1.3,0,0,0-1.3,1.28,1.28,1.28,0,0,0,1.28,1.29h1.14a1.29,1.29,0,0,0,0-2.57Zm0,1.71H16.48a.44.44,0,0,1-.42-.44.42.42,0,0,1,.43-.42h1.14a.43.43,0,0,1,.43.43A.42.42,0,0,1,17.63,35.66Z"/><path class="a" d="M21.92,34H20.78a1.28,1.28,0,1,0,0,2.56H21.9a1.27,1.27,0,0,0,1.29-1.27A1.28,1.28,0,0,0,21.92,34Zm0,1.72H20.76a.43.43,0,0,1-.42-.43.43.43,0,0,1,.43-.43h1.14a.43.43,0,0,1,.43.43A.44.44,0,0,1,21.91,35.7Z"/><path class="a" d="M17.21,15.86l-.05,6,8.56.07.05-6Zm7.66,5.19L18,21l0-4.28,6.84.05Z"/><rect class="a" x="21.07" y="10.73" width="0.86" height="7.7" transform="translate(6.75 35.96) rotate(-89.56)"/><g class="b"><path class="c" d="M37.43,27.73a.31.31,0,0,0-.17-.41l-2.79-1.17a.29.29,0,0,0-.4.17.3.3,0,0,0,.16.4L37,27.9A.31.31,0,0,0,37.43,27.73Zm-2.52-5a.31.31,0,0,0,.17.4l3.34,1.41a.31.31,0,0,0,.24-.58l-3.34-1.4A.32.32,0,0,0,34.91,22.76Zm3.23,3.29a.32.32,0,0,0-.17-.41l-2.24-.94a.29.29,0,0,0-.4.17.31.31,0,0,0,.16.41l2.24.93A.3.3,0,0,0,38.14,26.05Zm-5.47-4.23a.3.3,0,0,0,.17.4l.56.24a.31.31,0,0,0,.4-.17.31.31,0,0,0-.16-.41l-.56-.23A.33.33,0,0,0,32.67,21.82ZM32,23.48a.31.31,0,0,0,.16.41l.56.23a.29.29,0,0,0,.4-.17.3.3,0,0,0-.16-.4l-.56-.23A.29.29,0,0,0,32,23.48Zm.42-5.71L31.13,20.7l-.06,1.66,1.6-3.69.37.91a.32.32,0,0,0,.39.16h0l1.31-.54.54,1.32a.3.3,0,0,0,.38.16h0L37,20.14l.53,1.32a.32.32,0,0,0,.39.16h0l1.31-.54.54,1.31a.31.31,0,0,0,.39.17h0l.9-.37L36.23,33.65l-.37-.91a.31.31,0,0,0-.39-.16h0l-1.29.55-.54-1.32a.31.31,0,0,0-.39-.16h0l-1,.39a5,5,0,0,1-.86.49l.07.17a.31.31,0,0,0,.39.16h0l1.31-.54.53,1.32a.32.32,0,0,0,.39.16h0l1.31-.54L36,34.58a.31.31,0,0,0,.39.16.35.35,0,0,0,.17-.17l5.37-12.81a.31.31,0,0,0-.16-.41.33.33,0,0,0-.24,0l-1.31.54-.54-1.31a.3.3,0,0,0-.39-.16h0L38,21l-.53-1.31a.32.32,0,0,0-.39-.16h0l-1.3.54-.53-1.31a.3.3,0,0,0-.39-.16h0l-1.31.53L33,17.77a.32.32,0,0,0-.39-.16A.39.39,0,0,0,32.4,17.77Z"/><path class="c" d="M32.83,27.71a.3.3,0,0,0,.17.4l3.34,1.41a.31.31,0,0,0,.41-.17.29.29,0,0,0-.17-.4l-3.34-1.41A.32.32,0,0,0,32.83,27.71ZM36.06,31a.32.32,0,0,0-.17-.41l-2.23-.94a.3.3,0,0,0-.41.17.32.32,0,0,0,.17.41l2.23.94A.32.32,0,0,0,36.06,31ZM30.6,26.77a.3.3,0,0,0,.16.4l.56.24a.3.3,0,0,0,.4-.17.3.3,0,0,0-.16-.4L31,26.6A.32.32,0,0,0,30.6,26.77ZM31,31.38l.53,1.31a.32.32,0,0,0,.39.16h0l1.29-.54.54,1.31a.31.31,0,0,0,.39.16h0l1.31-.53L36,34.56a.3.3,0,0,0,.38.16.37.37,0,0,0,.19-.16l2.55-6.08a3.91,3.91,0,0,1-.61-.08l-2.21,5.26-.37-.91a.32.32,0,0,0-.39-.16h0l-1.31.53-.54-1.31a.32.32,0,0,0-.39-.16h0L32,32.19l-.54-1.32a.3.3,0,0,0-.38-.16h0Zm1.73-12.7.37.9a.3.3,0,0,0,.38.17h0l1.3-.55.54,1.32a.3.3,0,0,0,.38.16h0l1-.39a4.63,4.63,0,0,1,.86-.49l-.07-.17a.31.31,0,0,0-.39-.16h0L35.73,20l-.54-1.32a.3.3,0,0,0-.38-.16h0l-1.32.54L33,17.75a.32.32,0,0,0-.39-.16.35.35,0,0,0-.17.17"/></g><path class="d" d="M25.41,50.32A24.91,24.91,0,0,1,25.41.5"/><path class="e" d="M25.35,50.32A24.91,24.91,0,0,0,25.35.5"/></svg>