<svg xmlns="http://www.w3.org/2000/svg" viewBox="0 0 56 56.06"><defs><style>.a{fill:#ff6c02;}.b,.c{fill:none;stroke-miterlimit:10;}.b{stroke:#e0e0e0;}.c{stroke:#ff6c02;}</style></defs><path class="a" d="M14.73,34.06V15.84s0-.05,0-.07a1.35,1.35,0,0,1,.85-.92l.17-.07H26.06s0,0,.06,0a1.35,1.35,0,0,1,1,1.34c0,2.71,0,5.42,0,8.13v4.13s0,.09,0,.13a.24.24,0,0,0,.1-.1L28,27.2l3.71-6,3.5-5.64a2.17,2.17,0,0,1,.61-.8h.28l0,0a.45.45,0,0,1,.16.69L36,16l-3,4.83-.07.14h7a1.2,1.2,0,0,1,.53.11,1.14,1.14,0,0,1,.76,1.14V40.32s0,.08,0,.12a1.33,1.33,0,0,1-1.22.88h-9.8a.81.81,0,0,1-.22,0,1.36,1.36,0,0,1-1.08-1.37V27.55a.15.15,0,0,0-.1.09c-.39.63-.79,1.26-1.18,1.9-1.35,2.17-2.69,4.34-4,6.5L21,40.21l-.55.88a.44.44,0,0,1-.58.19.44.44,0,0,1-.17-.67l1.59-2.56c.58-.93,1.16-1.86,1.73-2.79a.44.44,0,0,0,.06-.12h-7a1.29,1.29,0,0,1-1.2-.74C14.82,34.29,14.78,34.17,14.73,34.06Zm25.66-2.91h0V25.56c0-.13,0-.16-.16-.16H35.32c-1.61,0-3.22,0-4.84,0a.48.48,0,0,0-.49.27,1.46,1.46,0,0,0-.23.79c0,1.75,0,3.5,0,5.25v5c0,.12,0,.17.16.17h1c.17,0,.17,0,.17-.18v-2.4a2.45,2.45,0,0,1,.11-.76A2.24,2.24,0,0,1,33.15,32h.49s.09,0,.1-.05a.39.39,0,0,0-.13-.44,3,3,0,0,1-1.13-3,2.63,2.63,0,0,1,1.14-1.74,2.34,2.34,0,0,1,2.18-.36,2.67,2.67,0,0,1,1.9,2.27,2.89,2.89,0,0,1-1.15,2.85.33.33,0,0,0-.15.31c0,.19,0,.2.19.19a2.47,2.47,0,0,1,1.2.22,2.14,2.14,0,0,1,1.26,1.88c0,.44,0,.89,0,1.33v1.3c0,.11,0,.14.14.14h1c.2,0,.2,0,.2-.2ZM15.61,25h0v5.61c0,.11,0,.13.15.13h.94c.24,0,.24,0,.24-.25v-2a2.9,2.9,0,0,1,.17-1.27,2.17,2.17,0,0,1,1.72-1.33c.21,0,.43,0,.65,0,0,0,.11,0,.11-.07a.44.44,0,0,0-.14-.43,2.94,2.94,0,0,1-1.13-3,2.59,2.59,0,0,1,1-1.63A2.4,2.4,0,0,1,22,20.36,2.86,2.86,0,0,1,23.41,24a2.83,2.83,0,0,1-1.06,1.42.28.28,0,0,0-.1.12c-.05.29,0,.33.27.33h.12a2.21,2.21,0,0,1,1.36.44,2.18,2.18,0,0,1,.9,1.86c0,.81,0,1.62,0,2.43,0,.1,0,.14.14.14h.7a.26.26,0,0,0,.14-.09c.1-.13.17-.28.27-.41a.55.55,0,0,0,.09-.33c0-1.3,0-2.59,0-3.89V19.39c0-.18,0-.19-.19-.19H15.8c-.19,0-.19,0-.19.2ZM35.08,37.79H29.92c-.12,0-.15,0-.15.16V39.9a.47.47,0,0,0,.54.54H39.9a.45.45,0,0,0,.49-.49c0-.68,0-1.35,0-2,0-.1,0-.14-.13-.13H35.08ZM20.91,18.31h5.17c.12,0,.16-.05.15-.17v-2a.46.46,0,0,0-.51-.5h-9.6a.45.45,0,0,0-.51.51c0,.65,0,1.31,0,2,0,.13,0,.17.17.17ZM25.26,31.6H15.75c-.09,0-.14,0-.14.12v2.1a.43.43,0,0,0,.37.42H23.5a.22.22,0,0,0,.21-.12c.49-.8,1-1.58,1.48-2.38C25.21,31.71,25.23,31.66,25.26,31.6Zm-4.34-.9h3c.08,0,.14,0,.14-.11,0-.87,0-1.75,0-2.62a1.26,1.26,0,0,0-.88-1.16,6,6,0,0,0-.74-.09.27.27,0,0,0-.3.17,1.32,1.32,0,0,1-2.25.16c-.09-.33-.34-.33-.63-.33a1.35,1.35,0,0,0-1.38,1.38c0,.82,0,1.64,0,2.46,0,.1,0,.14.14.14Zm9.82-6.2.16,0h9.32c.14,0,.17,0,.17-.17V22.41c0-.38-.16-.55-.53-.55H32.53a.26.26,0,0,0-.25.14l-1.46,2.35A1,1,0,0,0,30.74,24.5Zm6.12,4.67a1.91,1.91,0,0,0-1-1.77,1.46,1.46,0,0,0-1.24-.15,1.86,1.86,0,0,0-1.31,1.62,2,2,0,0,0,.5,1.68,1.67,1.67,0,0,0,1.81.48A1.93,1.93,0,0,0,36.86,29.17ZM19.15,22.94a2.12,2.12,0,0,0,.14.84,1.85,1.85,0,0,0,1.43,1.15A1.59,1.59,0,0,0,22,24.49a2.09,2.09,0,0,0-.17-3.19,1.52,1.52,0,0,0-1.44-.23A1.9,1.9,0,0,0,19.15,22.94Zm13,10.77a.85.85,0,0,0-.13.5v2.55c0,.1,0,.14.14.14h1.16a.2.2,0,0,0,.21-.15c.15-.44.31-.88.48-1.31a.36.36,0,0,0-.06-.43c-.12-.14-.11-.15-.26,0a.47.47,0,0,1-.78-.13c-.18-.27-.35-.54-.53-.8C32.28,33.94,32.2,33.84,32.12,33.71Zm5.92,0-.08.12-.72,1.07a.45.45,0,0,1-.71.1l-.11-.08a.11.11,0,0,0-.08,0,.48.48,0,0,0-.2.43c.18.48.36,1,.53,1.44a.16.16,0,0,0,.18.12H38c.12,0,.16,0,.16-.16V35.17c0-.36,0-.72,0-1.08A.71.71,0,0,0,38,33.71Zm-2.31,3.18s0-.06,0-.08c-.09-.26-.18-.52-.29-.78,0,0-.08-.05-.12-.05a2.44,2.44,0,0,1-.47,0c-.09,0-.13,0-.15.09s-.11.28-.16.42-.09.26-.14.41Zm-1.56-3.4L33.85,33a.14.14,0,0,0-.1,0c-.2,0-.4,0-.6,0a2.52,2.52,0,0,0-.41.11l.5.74c.18.27.18.27.43.08Zm1.82,0c.21.15.43.31.64.48s.13.05.19,0c.17-.27.35-.54.53-.8a.69.69,0,0,1,0-.1L37.25,33l-.86-.06a.11.11,0,0,0-.08,0C36.2,33.13,36.1,33.3,36,33.49ZM34.64,32a4.73,4.73,0,0,0,0,.53.43.43,0,0,0,.42.37.45.45,0,0,0,.44-.34,5.23,5.23,0,0,0,0-.56ZM21.38,26.11h0a1.21,1.21,0,0,1,0-.19c0-.09,0-.11-.12-.1H20.6c-.08,0-.12,0-.12.1s0,.26,0,.39a.43.43,0,0,0,.33.4.42.42,0,0,0,.5-.25A2,2,0,0,0,21.38,26.11Zm13.7,9c.18-.25.35-.47.51-.7a.07.07,0,0,0,0-.09L35.14,34A.11.11,0,0,0,35,34c-.15.1-.3.22-.45.34s0,.07,0,.09Z"/><path class="a" d="M35.08,38.67h.45a.46.46,0,0,1,.44.44.45.45,0,0,1-.44.45h-.92a.47.47,0,0,1-.42-.46.44.44,0,0,1,.43-.43Z"/><path class="a" d="M19.81,17.43h-.66a.43.43,0,0,1-.44-.42.44.44,0,0,1,.43-.46c.45,0,.9,0,1.36,0a.44.44,0,0,1,.42.45.42.42,0,0,1-.42.43Z"/><path class="a" d="M22.47,17.43h-.23a.43.43,0,0,1-.43-.43.44.44,0,0,1,.41-.45,4.17,4.17,0,0,1,.5,0,.44.44,0,0,1,.41.46.42.42,0,0,1-.42.42Z"/><path class="a" d="M20.92,33.36h-.43a.44.44,0,0,1-.45-.43.44.44,0,0,1,.45-.46h.87a.45.45,0,0,1,.45.45.45.45,0,0,1-.45.44Z"/><path class="a" d="M34,22.75c.24,0,.47,0,.71,0A.39.39,0,0,1,35,23a.44.44,0,0,1-.42.61c-.43,0-.87,0-1.3,0a.44.44,0,0,1-.21-.84.73.73,0,0,1,.25,0H34Z"/><path class="a" d="M36.63,22.75a1.92,1.92,0,0,1,.24,0,.41.41,0,0,1,.41.38.4.4,0,0,1-.34.48,2.51,2.51,0,0,1-.67,0,.4.4,0,0,1-.3-.46.43.43,0,0,1,.37-.39,2.8,2.8,0,0,1,.29,0Z"/><path class="b" d="M28,55.56A27.53,27.53,0,0,0,28,.5"/><path class="c" d="M28,.5a27.53,27.53,0,0,0,0,55.06"/></svg>