<svg xmlns="http://www.w3.org/2000/svg" viewBox="0 0 50.39 50.57"><defs><style>.a{isolation:isolate;}.b{fill:#0280ff;}.c,.d{fill:none;stroke-miterlimit:10;}.c{stroke:#0280ff;stroke-width:0.75px;}.d{stroke:#e0e0e0;stroke-width:0.5px;mix-blend-mode:multiply;}</style></defs><g class="a"><path class="b" d="M33.74,18.3a1.12,1.12,0,0,1,1.12,1.12V34a1.12,1.12,0,1,1-2.24,0V19.42A1.12,1.12,0,0,1,33.74,18.3Zm-4.48,3.36a1.12,1.12,0,0,1,1.12,1.11V34a1.12,1.12,0,0,1-2.23,0V22.77A1.11,1.11,0,0,1,29.26,21.66ZM24.79,25a1.12,1.12,0,0,1,1.12,1.12V34a1.12,1.12,0,1,1-2.24,0V26.13A1.12,1.12,0,0,1,24.79,25Zm-4.47,3.36a1.11,1.11,0,0,1,1.11,1.11V34a1.12,1.12,0,0,1-2.23,0V29.48A1.12,1.12,0,0,1,20.32,28.37Zm-4.48,3.36A1.11,1.11,0,0,1,17,32.83V34a1.12,1.12,0,0,1-2.24,0V32.83A1.11,1.11,0,0,1,15.84,31.73ZM23.32,15a2.7,2.7,0,0,1,1.81.55,2.36,2.36,0,0,1,.78,1.61H24.6a1.3,1.3,0,0,0-.4-.82,1.28,1.28,0,0,0-.84-.26,1.19,1.19,0,0,0-1.05.52A2.66,2.66,0,0,0,22,18.08v.42a2.59,2.59,0,0,0,.39,1.55,1.34,1.34,0,0,0,1.14.53,1.45,1.45,0,0,0,1.08-.33V19.13H23.34v-1h2.57v2.6a2.36,2.36,0,0,1-1,.68,4.28,4.28,0,0,1-1.47.24,3,3,0,0,1-1.49-.37,2.51,2.51,0,0,1-1-1.08,3.71,3.71,0,0,1-.36-1.65v-.45a4,4,0,0,1,.33-1.69,2.42,2.42,0,0,1,.95-1.09A2.67,2.67,0,0,1,23.32,15ZM18.76,15v4.07h.74v1.05h-.74v1.41h-1.3V20.16H14.78l-.06-.82L17.45,15Zm-1.3,1.76-.09.15L16,19.11h1.44Z"/><path class="c" d="M25.28,50.19a24.91,24.91,0,0,1,0-49.81"/><path class="d" d="M25.23,50.19a24.91,24.91,0,0,0,0-49.82"/></g></svg>