<svg xmlns="http://www.w3.org/2000/svg" xmlns:xlink="http://www.w3.org/1999/xlink" viewBox="0 0 36.75048 24.66013"><defs><style>.a,.c,.e{fill:#00598e;}.a{clip-rule:evenodd;}.b{fill:none;stroke:#e0e0e0;stroke-miterlimit:10;stroke-width:0.5px;}.c{fill-rule:evenodd;}.d{clip-path:url(#a);}</style><clipPath id="a"><path class="a" d="M19.97147,10.93977c0-.583.857-.63547,1.131-.63547a3.72551,3.72551,0,0,1,1.51.344L22.94478,9.115a5.40456,5.40456,0,0,0-1.749-.32066c-1.166,0-2.845.41977-3.1482,2.14545v.47806a2.08168,2.08168,0,0,0,.15741.50721,2.44865,2.44865,0,0,0,.97361.94446c.274.15741.583.30316.83952.44891s.6413.43725.6413.72875c0,.63547-.91531.72292-1.236.72292a4.58243,4.58243,0,0,1-1.82479-.44891l-.33231,1.56827a5.62006,5.62006,0,0,0,2.0988.37312,3.20071,3.20071,0,0,0,2.915-1.33507,2.08127,2.08127,0,0,0,.30316-1.131c.01166-1.94722-2.61184-2.00552-2.61184-2.86253Zm5.4394,2.641.97361-2.6818.548,2.6818Zm2.29119-4.664H26.04634a.79291.79291,0,0,0-.6413.32067,2.53557,2.53557,0,0,0-.30316.653c-.20405.49555-.41976,1.00276-.62381,1.49248-.09911.26235-.21571.53636-.33231.79871s-.21571.50721-.32065.75207c-.43143,1.07855-.88616,2.15127-1.33508,3.224h1.95889l.39061-1.09021h2.37281c.10494.36146.16324.72875.25069,1.09021h1.749Zm-12.039,0-1.55078,7.24087h1.87143L17.517,8.91675Zm-2.76926,0-1.94722,4.89138c-.19822-.78705-.33231-1.63823-.47806-2.40779-.1166-.583-.2332-1.21847-.344-1.83062a.892.892,0,0,0-.8162-.653H6.07274c.04664.04664,0,.05831,0,.22155a7.10531,7.10531,0,0,1,1.26511.344,1.8714,1.8714,0,0,1,.82786.4664,2.0231,2.0231,0,0,1,.274.78122c.15741.583.30316,1.166.44891,1.749s.36146,1.34673.5247,2.01718c.14575.53636.28567,1.11353.43142,1.66738h1.97637l3.03161-7.24086Z"/></clipPath></defs><title>Asset 8</title><rect class="b" x="0.25" y="0.25" width="36.25048" height="24.16013" rx="4.4419"/><path class="c" d="M19.97147,10.93977c0-.583.857-.63547,1.131-.63547a3.72551,3.72551,0,0,1,1.51.344L22.94478,9.115a5.40456,5.40456,0,0,0-1.749-.32066c-1.166,0-2.845.41977-3.1482,2.14545v.47806a2.08168,2.08168,0,0,0,.15741.50721,2.44865,2.44865,0,0,0,.97361.94446c.274.15741.583.30316.83952.44891s.6413.43725.6413.72875c0,.63547-.91531.72292-1.236.72292a4.58243,4.58243,0,0,1-1.82479-.44891l-.33231,1.56827a5.62006,5.62006,0,0,0,2.0988.37312,3.20071,3.20071,0,0,0,2.915-1.33507,2.08127,2.08127,0,0,0,.30316-1.131c.01166-1.94722-2.61184-2.00552-2.61184-2.86253Zm5.4394,2.641.97361-2.6818.548,2.6818Zm2.29119-4.664H26.04634a.79291.79291,0,0,0-.6413.32067,2.53557,2.53557,0,0,0-.30316.653c-.20405.49555-.41976,1.00276-.62381,1.49248-.09911.26235-.21571.53636-.33231.79871s-.21571.50721-.32065.75207c-.43143,1.07855-.88616,2.15127-1.33508,3.224h1.95889l.39061-1.09021h2.37281c.10494.36146.16324.72875.25069,1.09021h1.749Zm-12.039,0-1.55078,7.24087h1.87143L17.517,8.91675Zm-2.76926,0-1.94722,4.89138c-.19822-.78705-.33231-1.63823-.47806-2.40779-.1166-.583-.2332-1.21847-.344-1.83062a.892.892,0,0,0-.8162-.653H6.07274c.04664.04664,0,.05831,0,.22155a7.10531,7.10531,0,0,1,1.26511.344,1.8714,1.8714,0,0,1,.82786.4664,2.0231,2.0231,0,0,1,.274.78122c.15741.583.30316,1.166.44891,1.749s.36146,1.34673.5247,2.01718c.14575.53636.28567,1.11353.43142,1.66738h1.97637l3.03161-7.24086Z"/><g class="d"><rect class="e" x="3.15774" y="5.87932" width="28.9693" height="13.29886"/></g></svg>